<?xml version="1.0" encoding="UTF-8" standalone="no"?><svg xmlns="http://www.w3.org/2000/svg" xmlns:xlink="http://www.w3.org/1999/xlink" fill="#dfa136" height="30.3" preserveAspectRatio="xMidYMid meet" version="1" viewBox="-0.3 0.8 32.5 30.3" width="32.5" zoomAndPan="magnify"><g id="change1_1"><path d="M31.222,11.442L26.09,7.667V3.164c0-0.706-0.573-1.277-1.278-1.277h-2.077c-0.706,0-1.278,0.572-1.278,1.277v1.094 l-3.913-2.878c-0.849-0.626-2.239-0.626-3.088,0L0.778,11.442c-0.849,0.625-1.032,1.832-0.407,2.682l0.378,0.513 c0.624,0.85,1.831,1.034,2.679,0.409L14.456,6.93c0.849-0.625,2.239-0.625,3.088,0l11.027,8.116 c0.849,0.625,2.055,0.44,2.679-0.409l0.379-0.513C32.253,13.274,32.07,12.067,31.222,11.442z" fill="inherit"/><path d="M27.13,15.752l-9.589-7.087c-0.848-0.627-2.234-0.627-3.082,0L4.87,15.752c-0.848,0.627-1.542,1.544-1.542,2.041v0.897 v0.679v8.699c0,1.668,1.43,3.021,3.195,3.021h5.856v-9.089c0-0.702,0.575-1.276,1.277-1.276h4.686c0.702,0,1.277,0.574,1.277,1.276 v9.089h5.857c1.764,0,3.193-1.353,3.193-3.021V19.37V18.69v-0.897C28.67,17.296,27.978,16.379,27.13,15.752z" fill="inherit"/></g></svg>