<?xml version="1.0" encoding="UTF-8" standalone="no"?><svg xmlns="http://www.w3.org/2000/svg" xmlns:xlink="http://www.w3.org/1999/xlink" fill="#dfa136" height="64" preserveAspectRatio="xMidYMid meet" version="1" viewBox="0.5 1.0 65.2 64.0" width="65.2" zoomAndPan="magnify"><g><g id="change1_4"><path d="M21.07,18.167h20.632c0.414,0,0.75-0.336,0.75-0.75c0-0.414-0.336-0.75-0.75-0.75H21.07c-0.414,0-0.75,0.336-0.75,0.75 C20.32,17.832,20.656,18.167,21.07,18.167z"/></g><g id="change1_1"><path d="M9.72,21.525h6.916c0.414,0,0.75-0.336,0.75-0.75V14.06c0-0.414-0.336-0.75-0.75-0.75H9.72c-0.414,0-0.75,0.336-0.75,0.75 v6.716C8.97,21.19,9.306,21.525,9.72,21.525z M10.47,14.81h5.416v5.216H10.47V14.81z"/></g><g id="change1_7"><path d="M9.72,33.252h6.916c0.414,0,0.75-0.336,0.75-0.75v-6.715c0-0.414-0.336-0.75-0.75-0.75H9.72 c-0.414,0-0.75,0.336-0.75,0.75v6.715C8.97,32.917,9.306,33.252,9.72,33.252z M10.47,26.537h5.416v5.215H10.47V26.537z"/></g><g id="change1_5"><path d="M9.72,44.98h6.916c0.414,0,0.75-0.336,0.75-0.75v-6.716c0-0.414-0.336-0.75-0.75-0.75H9.72c-0.414,0-0.75,0.336-0.75,0.75 v6.716C8.97,44.644,9.306,44.98,9.72,44.98z M10.47,38.264h5.416v5.216H10.47V38.264z"/></g><g id="change1_3"><path d="M9.72,56.707h6.916c0.414,0,0.75-0.336,0.75-0.75v-6.716c0-0.414-0.336-0.75-0.75-0.75H9.72 c-0.414,0-0.75,0.336-0.75,0.75v6.716C8.97,56.371,9.306,56.707,9.72,56.707z M10.47,49.991h5.416v5.216H10.47V49.991z"/></g><g id="change1_6"><path d="M14.092,15.841l-1.563,1.562l-0.264-0.264c-0.293-0.293-0.767-0.293-1.061,0c-0.293,0.293-0.293,0.767,0,1.06l0.794,0.795 c0.146,0.146,0.338,0.22,0.53,0.22s0.384-0.073,0.53-0.22l2.093-2.093c0.293-0.293,0.293-0.768,0-1.061 C14.86,15.548,14.385,15.548,14.092,15.841z"/></g><g id="change1_2"><path d="M64.522,11.506l-5.395-3.609c-0.941-0.628-2.31-0.354-2.938,0.583l-3.397,5.079l-1.905,2.848V4.01 c0-1.66-1.346-3.01-3-3.01H3.536c-1.654,0-3,1.35-3,3.01V62c0,1.654,1.346,3,3,3h44.35c1.654,0,3-1.346,3-3V35.699l10.821-16.176 l3.397-5.078C65.758,13.469,65.494,12.156,64.522,11.506z M14.152,6.5c0.299,2.768,2.648,4.93,5.494,4.93H31.78 c2.845,0,5.194-2.162,5.493-4.93h8.113v18.129l-2.954,4.416c-0.139-1,0.143-0.65-21.362-0.65c-0.414,0-0.75,0.336-0.75,0.75 c0,0.414,0.336,0.75,0.75,0.75c0.231,0,20.595,0.021,20.818-0.038L35.024,40.12H21.067c-0.414,0-0.75,0.336-0.75,0.75 c0,0.414,0.336,0.75,0.75,0.75H34.02l-1.072,1.602c-0.001,0.002-0.001,0.005-0.003,0.007c-0.006,0.009-0.007,0.02-0.012,0.029 c-0.056,0.094-0.086,0.197-0.097,0.304c-0.002,0.015-0.013,0.028-0.014,0.043l-0.363,8.244H21.07c-0.414,0-0.75,0.336-0.75,0.75 c0,0.414,0.336,0.75,0.75,0.75h20.632c0.414,0,0.75-0.336,0.75-0.75c0-0.414-0.336-0.75-0.75-0.75H36.4l5.157-2.4 c0.005-0.002,0.008-0.008,0.013-0.011c0.085-0.042,0.153-0.111,0.218-0.184c0.021-0.024,0.052-0.037,0.07-0.063 c0.001-0.002,0.004-0.003,0.005-0.005l3.522-5.265V59.5H6.036v-53H14.152z M35.807,5.745c0,0.002-0.001,0.003-0.001,0.005 s0.001,0.003,0.001,0.005v0.148c0,2.221-1.807,4.027-4.027,4.027H19.646c-2.221,0-4.027-1.807-4.027-4.027V2.501h20.189V5.745z M34.262,45.003l5.453,3.648l-5.731,2.668L34.262,45.003z M34.612,43.432l19.009-28.415l2.587,1.731L37.2,45.163L34.612,43.432z M49.386,4.01v14.64l-2.5,3.737V5.75c0-0.414-0.336-0.75-0.75-0.75h-8.829V2.5h10.579C48.714,2.5,49.386,3.177,49.386,4.01z M49.386,62c0,0.827-0.673,1.5-1.5,1.5H3.536c-0.827,0-1.5-0.673-1.5-1.5V4.01c0-0.832,0.673-1.51,1.5-1.51h10.582V5H5.286 c-0.414,0-0.75,0.336-0.75,0.75v54.5c0,0.414,0.336,0.75,0.75,0.75h40.85c0.414,0,0.75-0.336,0.75-0.75V41.679l2.5-3.737V62z M41.034,47.728l-2.587-1.731l19.009-28.415l2.587,1.731L41.034,47.728z M63.858,13.611l-2.98,4.455l-3.211-2.148l-3.211-2.148 l2.98-4.455c0.183-0.273,0.582-0.356,0.858-0.17l5.395,3.609c0.137,0.092,0.23,0.232,0.262,0.394 C63.983,13.309,63.95,13.474,63.858,13.611z"/></g></g></svg>