<?xml version="1.0" encoding="UTF-8"?><svg xmlns="http://www.w3.org/2000/svg" xmlns:xlink="http://www.w3.org/1999/xlink" height="120.0" preserveAspectRatio="xMidYMid meet" version="1.0" viewBox="19.3 4.0 89.5 120.0" width="89.5" zoomAndPan="magnify"><g id="change1_1"><path d="M 30.644531 58.578125 C 30.582031 58.160156 30.503906 57.636719 30.414062 56.984375 C 30.296875 56.097656 30.089844 54.992188 29.949219 53.671875 C 29.808594 52.34375 29.65625 50.804688 29.476562 49.042969 C 29.386719 48.171875 29.292969 47.246094 29.191406 46.257812 C 29.085938 45.273438 29.054688 44.230469 28.96875 43.144531 C 28.851562 40.964844 28.644531 38.578125 28.542969 35.972656 C 28.503906 34.414062 28.457031 33.03125 27.769531 31.6875 C 27.65625 31.460938 27.460938 31.152344 27.191406 30.757812 C 26.65625 29.996094 25.785156 28.882812 24.394531 28.09375 C 24.21875 28.007812 24.039062 27.910156 23.855469 27.832031 C 23.660156 27.769531 23.46875 27.683594 23.265625 27.621094 C 23.058594 27.585938 22.851562 27.507812 22.632812 27.484375 C 22.464844 27.46875 22.292969 27.445312 22.117188 27.421875 C 22.046875 27.421875 21.960938 27.40625 21.875 27.414062 C 21.800781 27.429688 21.667969 27.398438 21.699219 27.515625 L 21.683594 27.769531 L 21.675781 27.832031 L 21.675781 28.046875 C 21.675781 28.195312 21.667969 28.347656 21.683594 28.496094 C 21.761719 30.929688 22.183594 33.609375 22.851562 36.382812 C 23.507812 39.15625 24.308594 41.789062 25.019531 44.214844 C 25.730469 46.632812 26.335938 48.867188 26.773438 50.765625 C 26.984375 51.726562 27.175781 52.589844 27.292969 53.371094 C 27.359375 53.757812 27.429688 54.121094 27.484375 54.453125 C 27.53125 54.785156 27.570312 55.09375 27.601562 55.371094 C 27.65625 55.789062 27.703125 56.136719 27.730469 56.40625 C 27.777344 56.4375 27.824219 56.46875 27.871094 56.5 C 28.707031 57.085938 29.632812 57.789062 30.644531 58.578125 Z M 39.011719 64.175781 C 39.019531 64.183594 39.027344 64.183594 39.035156 64.195312 C 39.003906 64.0625 38.972656 63.890625 38.925781 63.667969 C 38.824219 63.15625 38.632812 62.378906 38.371094 61.375 C 38.105469 60.339844 37.734375 59.085938 37.441406 57.511719 C 37.378906 57.117188 37.289062 56.722656 37.242188 56.289062 C 37.203125 55.851562 37.15625 55.402344 37.117188 54.945312 C 37.054688 54.050781 37.046875 53.183594 37.011719 52.234375 C 36.886719 48.457031 36.699219 43.960938 36.691406 38.957031 C 36.699219 36.445312 36.746094 33.820312 36.917969 31.089844 C 37.039062 29.730469 37.078125 28.347656 37.289062 26.941406 C 37.34375 26.480469 37.402344 26.007812 37.457031 25.53125 C 37.542969 25.351562 37.335938 25.375 37.21875 25.335938 L 37.019531 25.296875 C 36.949219 25.28125 36.910156 25.273438 36.707031 25.257812 C 36.035156 25.222656 35.371094 25.097656 34.699219 25.136719 L 33.703125 25.144531 C 33.363281 25.144531 33.070312 25.222656 32.753906 25.242188 C 32.152344 25.289062 31.472656 25.460938 30.976562 25.652344 C 30.636719 25.800781 30.542969 25.914062 30.535156 26.332031 C 30.527344 26.871094 30.574219 27.605469 30.582031 28.273438 C 30.605469 31.394531 30.785156 34.515625 31.0625 37.628906 C 31.160156 38.792969 31.261719 39.929688 31.363281 41.027344 C 31.570312 43.21875 31.695312 45.273438 31.988281 47.128906 C 32.523438 50.835938 32.859375 53.855469 33.332031 55.90625 C 33.742188 57.960938 33.964844 59.101562 33.964844 59.101562 C 34.113281 59.976562 34.105469 60.648438 33.996094 61.164062 C 34.234375 61.34375 34.5 61.527344 34.792969 61.722656 C 35.308594 62.070312 35.882812 62.515625 36.59375 62.894531 C 37.304688 63.289062 38.058594 63.804688 39.011719 64.175781 Z M 43.484375 24.480469 C 43.539062 23.40625 43.585938 22.09375 43.523438 20.601562 C 43.484375 19.859375 43.429688 19.070312 43.296875 18.277344 C 43.226562 17.890625 43.160156 17.464844 43.035156 17.109375 L 42.949219 16.832031 L 42.84375 16.59375 C 42.789062 16.414062 42.679688 16.3125 42.65625 16.253906 C 42.6875 16.265625 42.640625 16.191406 42.527344 16.128906 C 42.496094 16.113281 42.457031 16.089844 42.410156 16.074219 C 42.332031 16.050781 42.246094 16.027344 42.15625 16.003906 C 41.984375 15.949219 41.746094 15.921875 41.527344 15.882812 C 39.738281 15.664062 37.789062 15.789062 36.34375 16.175781 C 35.921875 16.296875 35.898438 16.335938 35.804688 16.429688 C 35.757812 16.46875 35.75 16.535156 35.742188 16.59375 C 35.734375 16.660156 35.734375 16.675781 35.742188 16.808594 C 35.742188 17.347656 35.890625 18.019531 36.035156 18.609375 C 36.351562 19.796875 36.707031 20.824219 36.925781 21.566406 C 37.148438 22.308594 37.25 22.777344 37.25 22.777344 C 37.265625 22.886719 37.265625 22.988281 37.257812 23.078125 C 37.472656 23.117188 37.734375 23.179688 37.960938 23.226562 C 38.324219 23.304688 38.6875 23.382812 39.050781 23.453125 L 39.589844 23.566406 L 39.859375 23.621094 C 39.929688 23.621094 39.921875 23.667969 39.914062 23.714844 L 39.898438 23.851562 C 39.851562 24.214844 39.8125 24.578125 39.777344 24.933594 C 39.652344 25.9375 39.535156 26.929688 39.425781 27.894531 C 39.28125 29.460938 39.1875 30.984375 39.117188 32.460938 C 39.019531 35.417969 39.019531 38.191406 39.101562 40.753906 C 39.257812 45.894531 39.582031 50.226562 39.8125 53.71875 C 39.851562 54.628906 39.984375 55.308594 40.0625 56.011719 C 40.230469 56.722656 40.332031 57.363281 40.53125 57.980469 C 40.664062 58.476562 40.800781 58.933594 40.933594 59.371094 C 40.941406 59.273438 40.941406 59.179688 40.941406 59.078125 C 40.964844 57.835938 40.980469 56.390625 41.011719 54.753906 C 41.042969 51.460938 41.089844 47.375 41.136719 42.515625 C 41.144531 41.296875 41.152344 40.035156 41.15625 38.722656 C 41.164062 38.066406 41.164062 37.402344 41.164062 36.722656 C 41.164062 36.097656 41.128906 35.425781 41.082031 34.730469 C 41.035156 34.019531 40.972656 33.300781 40.972656 32.511719 C 40.980469 31.726562 40.972656 30.898438 41.289062 29.902344 C 41.46875 29.414062 41.738281 28.84375 42.269531 28.417969 C 42.402344 28.308594 42.539062 28.210938 42.679688 28.117188 C 42.820312 28.046875 42.972656 27.984375 43.121094 27.925781 C 43.144531 27.914062 43.167969 27.910156 43.191406 27.902344 C 43.191406 27.886719 43.183594 27.871094 43.183594 27.847656 C 43.183594 27.847656 43.359375 26.632812 43.484375 24.480469 Z M 49.53125 35.324219 C 49.539062 34.164062 49.355469 33.054688 48.78125 32.195312 C 48.226562 31.324219 47.246094 30.714844 46.085938 30.320312 C 45.523438 30.101562 44.933594 29.964844 44.457031 29.933594 C 43.96875 29.941406 43.746094 30.027344 43.585938 30.273438 C 43.398438 30.535156 43.273438 31.058594 43.242188 31.625 C 43.214844 32.195312 43.21875 32.789062 43.265625 33.410156 C 43.34375 34.628906 43.476562 35.925781 43.476562 37.195312 C 43.492188 38.414062 43.5 39.613281 43.515625 40.777344 C 43.589844 45.445312 43.667969 49.664062 43.730469 53.207031 C 43.769531 54.976562 43.808594 56.585938 43.839844 57.996094 C 43.863281 58.699219 43.878906 59.355469 43.894531 59.960938 C 43.902344 60.261719 43.90625 60.554688 43.914062 60.824219 C 43.921875 61.101562 43.945312 61.304688 43.960938 61.527344 C 44.054688 62.417969 44.1875 63.15625 44.273438 63.691406 C 44.347656 64.230469 44.394531 64.511719 44.394531 64.511719 C 44.457031 65.050781 44.441406 65.570312 44.386719 65.976562 C 44.355469 66.117188 44.324219 66.222656 44.285156 66.347656 C 44.90625 66.574219 45.539062 66.804688 46.203125 67.035156 C 46.726562 67.222656 47.277344 67.398438 47.832031 67.578125 C 47.761719 67.28125 47.71875 66.964844 47.710938 66.59375 C 47.710938 66.59375 47.671875 65.398438 47.730469 63.429688 C 47.761719 61.425781 47.808594 58.546875 47.871094 54.984375 C 47.902344 53.207031 48.085938 51.253906 48.195312 49.160156 C 48.335938 47.066406 48.410156 44.855469 48.621094 42.476562 C 48.882812 40.074219 49.492188 37.671875 49.53125 35.324219 Z M 53.695312 66.519531 C 53.78125 65.089844 53.835938 62.941406 53.796875 60.066406 C 53.773438 57.203125 53.585938 53.617188 53.554688 49.300781 C 53.542969 47.515625 53.519531 45.597656 53.503906 43.582031 C 53.300781 43.519531 53.09375 43.472656 52.859375 43.460938 C 52.242188 43.445312 51.664062 43.621094 51.214844 43.785156 C 51.101562 43.832031 50.992188 43.875 50.898438 43.914062 C 50.890625 44.078125 50.882812 44.246094 50.875 44.410156 C 50.796875 46.828125 50.722656 49.042969 50.652344 51.070312 C 50.613281 52.082031 50.582031 53.046875 50.558594 53.957031 C 50.542969 54.867188 50.582031 55.742188 50.597656 56.5625 C 50.683594 59.828125 50.746094 62.308594 50.789062 63.96875 C 50.816406 64.796875 50.828125 65.429688 50.867188 65.808594 C 50.898438 66.203125 50.914062 66.394531 50.914062 66.394531 C 50.921875 67.289062 50.90625 67.925781 50.730469 68.402344 C 51.617188 68.628906 52.550781 68.835938 53.535156 69.007812 C 53.535156 68.898438 53.535156 68.789062 53.542969 68.664062 C 53.542969 68.664062 53.566406 68.488281 53.585938 68.132812 C 53.609375 67.769531 53.648438 67.238281 53.695312 66.519531 Z M 56.691406 19.480469 C 56.691406 19.480469 56.707031 18.984375 56.707031 18.050781 C 56.707031 17.117188 56.617188 15.664062 56.660156 13.878906 C 56.667969 13.03125 56.730469 12.027344 56.601562 11.308594 C 56.53125 10.929688 56.453125 10.722656 56.269531 10.542969 C 56.082031 10.359375 55.6875 10.1875 55.242188 10.039062 C 53.933594 9.699219 51.773438 9.183594 50.480469 9.933594 C 50.140625 10.132812 49.863281 10.410156 49.671875 10.804688 C 48.835938 12.542969 49.386719 15.578125 49.429688 17.433594 C 49.492188 19.703125 49.664062 21.753906 49.703125 23.503906 C 49.773438 25.257812 49.863281 26.679688 49.808594 27.683594 C 49.800781 28.6875 49.792969 29.246094 49.792969 29.246094 C 49.78125 29.476562 49.726562 29.664062 49.65625 29.824219 C 50.234375 30.34375 50.707031 31.007812 51.070312 31.6875 C 51.855469 33.410156 51.84375 35.125 51.75 36.597656 C 51.640625 38.089844 51.402344 39.449219 51.222656 40.730469 C 51.207031 40.855469 51.191406 40.972656 51.167969 41.09375 C 51.578125 41.164062 52.144531 41.21875 52.9375 41.242188 C 53.125 41.242188 53.300781 41.257812 53.480469 41.265625 C 53.457031 39.109375 53.433594 36.839844 53.410156 34.445312 C 53.371094 32.25 53.339844 30.15625 53.308594 28.292969 C 53.300781 27.824219 53.292969 27.375 53.285156 26.9375 C 53.277344 26.472656 53.269531 26.164062 53.238281 25.769531 C 53.179688 24.996094 53.09375 24.222656 53.101562 23.488281 C 53.117188 22.742188 53.171875 22.039062 53.503906 21.335938 C 53.859375 20.59375 54.382812 20.191406 54.738281 20.015625 C 55.109375 19.835938 55.300781 19.789062 55.25 19.789062 C 55.21875 19.804688 55.03125 19.835938 54.730469 19.96875 L 54.808594 19.921875 L 55.257812 19.757812 C 55.550781 19.664062 55.757812 19.644531 55.972656 19.613281 C 56.230469 19.582031 56.46875 19.566406 56.691406 19.558594 C 56.691406 19.527344 56.691406 19.503906 56.691406 19.480469 Z M 62.246094 36.800781 C 62.355469 36.707031 62.464844 36.628906 62.578125 36.5625 C 62.433594 36.183594 62.339844 35.6875 62.332031 35.0625 C 62.332031 35.0625 62.332031 34.898438 62.332031 34.496094 C 62.339844 34.089844 62.339844 33.425781 62.292969 32.421875 C 62.285156 31.917969 62.253906 31.324219 62.207031 30.636719 C 62.167969 29.949219 62.109375 29.160156 62.007812 28.265625 C 61.929688 27.367188 61.769531 26.378906 61.605469 25.265625 C 61.496094 24.71875 61.390625 24.140625 61.273438 23.527344 C 61.25 23.375 61.195312 23.226562 61.164062 23.074219 L 61.105469 22.839844 L 61.082031 22.734375 C 61.066406 22.679688 61.066406 22.632812 61.050781 22.585938 C 61.082031 22.632812 61.105469 22.65625 61.113281 22.617188 C 61.113281 22.601562 61.113281 22.570312 61.105469 22.523438 C 61.082031 22.507812 61.027344 22.503906 60.957031 22.484375 L 60.894531 22.476562 C 60.808594 22.464844 60.71875 22.453125 60.625 22.445312 C 60.433594 22.425781 60.214844 22.402344 59.992188 22.378906 C 59.558594 22.332031 59.074219 22.277344 58.554688 22.222656 C 58.050781 22.183594 57.503906 22.136719 56.980469 22.136719 C 56.714844 22.136719 56.453125 22.152344 56.222656 22.175781 C 55.96875 22.214844 55.953125 22.207031 55.867188 22.261719 C 55.90625 22.214844 55.796875 22.199219 55.679688 22.355469 C 55.628906 22.425781 55.511719 22.695312 55.472656 23.089844 C 55.425781 23.476562 55.425781 23.992188 55.464844 24.601562 C 55.496094 25.203125 55.574219 25.945312 55.558594 26.742188 C 55.566406 27.492188 55.566406 28.289062 55.574219 29.121094 C 55.589844 30.78125 55.613281 32.589844 55.636719 34.429688 C 55.679688 38.863281 55.804688 43.296875 55.914062 47.738281 C 56.011719 51.832031 56.277344 55.496094 56.46875 58.625 C 56.667969 61.742188 56.738281 64.316406 56.769531 66.09375 C 56.761719 66.988281 56.761719 67.683594 56.753906 68.15625 C 56.753906 68.628906 56.746094 68.882812 56.746094 68.882812 C 56.730469 69.082031 56.699219 69.269531 56.667969 69.445312 C 57.171875 69.492188 57.679688 69.5625 58.207031 69.578125 C 58.816406 69.601562 60.523438 69.988281 61.066406 69.546875 C 61.746094 68.980469 61.273438 67.253906 61.273438 66.480469 C 61.296875 63.96875 61.320312 61.457031 61.34375 58.949219 C 61.351562 55.941406 61.480469 52.203125 61.496094 47.761719 C 61.496094 45.535156 61.613281 43.136719 61.613281 40.5625 C 61.613281 40.238281 61.613281 39.914062 61.613281 39.589844 C 61.613281 39.25 61.480469 38.933594 61.574219 38.324219 C 61.644531 37.742188 61.816406 37.1875 62.246094 36.800781 Z M 69.078125 22.046875 C 69.121094 20.46875 69.015625 18.886719 68.820312 17.316406 C 68.726562 16.515625 68.636719 15.625 68.527344 14.683594 C 68.472656 14.203125 68.410156 13.710938 68.351562 13.207031 C 68.28125 12.660156 68.25 12.105469 68.21875 11.5625 C 68.164062 10.480469 68.140625 9.378906 67.917969 8.386719 C 67.808594 7.902344 67.640625 7.460938 67.414062 7.183594 C 67.308594 7.035156 67.183594 6.949219 67.042969 6.871094 C 66.914062 6.8125 66.78125 6.765625 66.542969 6.757812 C 66.023438 6.726562 65.359375 6.859375 64.78125 7.003906 C 64.179688 7.152344 63.621094 7.320312 63.152344 7.46875 C 62.820312 7.578125 62.78125 7.601562 62.6875 7.640625 C 62.617188 7.671875 62.609375 7.683594 62.65625 7.691406 C 62.648438 7.769531 62.671875 7.863281 62.671875 7.933594 L 62.6875 8.039062 L 62.695312 8.117188 L 62.710938 8.3125 C 62.75 8.828125 62.789062 9.324219 62.828125 9.800781 C 62.902344 10.753906 62.902344 11.625 62.949219 12.4375 C 63.027344 14.058594 63.042969 15.378906 63.089844 16.429688 C 63.160156 18.539062 63.234375 19.535156 63.234375 19.535156 C 63.226562 19.660156 63.21875 19.765625 63.199219 19.875 C 63.207031 19.875 63.21875 19.875 63.226562 19.875 L 63.25 19.96875 C 63.328125 20.222656 63.390625 20.445312 63.445312 20.640625 C 63.550781 21.019531 63.621094 21.265625 63.644531 21.359375 C 63.707031 21.535156 63.589844 21.070312 63.265625 19.820312 C 63.453125 20.515625 63.636719 21.195312 63.816406 21.851562 C 63.871094 22.054688 63.921875 22.261719 63.984375 22.453125 C 64.03125 22.632812 64.078125 22.804688 64.109375 22.980469 C 64.257812 23.660156 64.386719 24.308594 64.519531 24.921875 C 64.71875 26.132812 64.90625 27.214844 65.003906 28.164062 C 65.246094 30.0625 65.34375 31.460938 65.40625 32.472656 C 65.484375 33.484375 65.507812 34.121094 65.515625 34.496094 C 65.53125 34.878906 65.539062 35.007812 65.539062 35.007812 C 65.546875 35.394531 65.507812 35.71875 65.453125 36.011719 C 65.621094 35.996094 65.800781 35.988281 65.984375 35.972656 C 66.703125 35.917969 67.429688 35.867188 68.171875 35.8125 C 68.273438 35.804688 68.371094 35.804688 68.472656 35.796875 C 68.417969 35.640625 68.371094 35.472656 68.351562 35.269531 C 68.351562 35.269531 68.3125 34.800781 68.25 33.871094 C 68.195312 32.929688 68.078125 31.523438 68.085938 29.625 C 68.09375 28.664062 68.117188 27.59375 68.304688 26.355469 C 68.519531 24.871094 69.039062 23.574219 69.078125 22.046875 Z M 71.671875 43.320312 C 71.679688 42.222656 71.640625 41.109375 71.625 39.984375 C 71.570312 39.457031 71.519531 38.925781 71.464844 38.390625 L 71.433594 38.050781 L 71.410156 37.882812 C 71.363281 37.875 71.300781 37.882812 71.246094 37.882812 C 70.867188 37.898438 70.488281 37.914062 70.109375 37.929688 C 69.5 37.953125 68.890625 37.980469 68.296875 38.035156 C 67.082031 38.128906 65.894531 38.214844 64.710938 38.304688 C 64.03125 38.382812 63.960938 38.367188 63.761719 38.53125 C 63.691406 38.617188 63.675781 38.730469 63.667969 38.839844 C 63.660156 38.925781 63.652344 39.210938 63.652344 39.488281 C 63.691406 41.796875 63.722656 44.039062 63.761719 46.164062 C 63.847656 50.425781 63.921875 54.257812 64.039062 57.503906 C 64.273438 63.984375 64.472656 68.015625 64.472656 68.015625 C 64.488281 69.40625 64.449219 69.5 65.667969 69.730469 C 66.960938 69.972656 68.550781 69.730469 69.863281 69.710938 C 69.78125 69.339844 69.734375 68.898438 69.75 68.355469 C 69.75 68.355469 70.011719 64.324219 70.4375 57.828125 C 70.707031 54.566406 71.230469 50.742188 71.523438 46.542969 C 71.585938 45.492188 71.617188 44.417969 71.671875 43.320312 Z M 78.316406 50.804688 C 78.625 47.089844 78.839844 43.359375 78.722656 39.621094 C 78.664062 37.671875 78.53125 35.339844 78.402344 32.738281 C 78.355469 31.429688 78.269531 30.0625 78.269531 28.636719 C 78.269531 27.914062 78.238281 27.207031 78.269531 26.441406 C 78.285156 25.707031 78.371094 24.886719 78.324219 24.378906 C 78.285156 24.046875 78.144531 23.929688 77.511719 23.644531 C 77.371094 23.589844 77.203125 23.519531 77.070312 23.480469 C 76.949219 23.460938 76.855469 23.429688 76.714844 23.40625 C 76.40625 23.375 76.097656 23.335938 75.765625 23.328125 C 75.109375 23.296875 74.453125 23.320312 73.820312 23.375 C 73.203125 23.421875 72.558594 23.519531 72.164062 23.667969 C 71.578125 23.839844 71.140625 24.835938 70.96875 25.808594 C 70.785156 26.804688 70.769531 27.824219 70.796875 28.75 C 70.859375 30.621094 71.101562 32.164062 71.261719 33.238281 C 71.441406 34.3125 71.539062 34.914062 71.539062 34.914062 C 71.570312 35.183594 71.554688 35.425781 71.503906 35.640625 C 71.632812 35.632812 71.765625 35.625 71.886719 35.617188 L 72.816406 35.578125 L 73.269531 35.554688 L 73.386719 35.546875 C 73.425781 35.554688 73.402344 35.617188 73.417969 35.648438 L 73.441406 35.875 C 73.554688 36.910156 73.671875 37.929688 73.78125 38.925781 C 73.8125 39.265625 73.867188 39.613281 73.890625 39.945312 C 73.898438 40.285156 73.90625 40.617188 73.917969 40.941406 C 73.933594 41.605469 73.957031 42.253906 73.972656 42.894531 C 73.980469 43.527344 73.949219 44.148438 73.941406 44.757812 C 73.925781 45.367188 73.910156 45.960938 73.898438 46.550781 C 73.859375 47.136719 73.828125 47.707031 73.789062 48.265625 C 73.511719 52.738281 73.164062 56.4375 73.054688 59.394531 C 72.992188 65.382812 72.960938 68.457031 72.960938 68.457031 C 72.945312 68.90625 72.894531 69.292969 72.808594 69.617188 C 73.941406 69.5625 75.109375 69.484375 76.292969 69.375 C 76.214844 69.066406 76.191406 68.695312 76.246094 68.25 C 76.246094 68.25 76.53125 66.648438 76.925781 62.902344 C 77.15625 61.027344 77.363281 58.59375 77.851562 55.617188 C 77.90625 55.246094 77.96875 54.867188 78.023438 54.476562 C 78.082031 54.089844 78.097656 53.757812 78.136719 53.378906 C 78.191406 52.550781 78.253906 51.703125 78.316406 50.804688 Z M 83.824219 15.695312 C 83.832031 15.671875 83.832031 15.640625 83.839844 15.617188 C 83.824219 15.226562 83.792969 14.839844 83.753906 14.4375 C 83.691406 13.449219 83.738281 12.542969 83.699219 11.710938 C 83.660156 10.890625 83.539062 10.132812 83.226562 9.691406 C 83.074219 9.476562 82.910156 9.300781 82.65625 9.191406 C 82.410156 9.058594 82.125 8.976562 81.816406 8.9375 C 81.136719 8.859375 80.347656 8.890625 79.613281 8.960938 C 78.871094 9.027344 78.144531 9.144531 77.464844 9.308594 C 76.800781 9.46875 76.144531 9.679688 75.703125 9.933594 C 75.394531 10.117188 75.417969 10.171875 75.449219 10.441406 C 75.503906 10.929688 75.65625 11.523438 75.8125 12.078125 C 75.890625 12.375 75.972656 12.660156 76.050781 12.9375 C 76.089844 13.085938 76.128906 13.238281 76.167969 13.417969 C 76.191406 13.523438 76.230469 13.6875 76.222656 13.78125 L 76.230469 14.011719 C 76.253906 14.582031 76.285156 15.117188 76.300781 15.617188 C 76.324219 16.585938 76.339844 17.417969 76.351562 18.097656 C 76.382812 18.746094 76.398438 19.257812 76.414062 19.597656 C 76.484375 21.210938 76.753906 20.910156 78.007812 21.4375 C 78.4375 21.605469 78.878906 21.773438 79.449219 22.191406 C 80.054688 22.617188 80.464844 23.375 80.53125 24.121094 C 80.59375 24.765625 80.546875 25.203125 80.53125 25.636719 C 80.515625 26.0625 80.492188 26.464844 80.492188 26.859375 C 80.515625 27.671875 80.53125 28.457031 80.546875 29.222656 C 80.625 30.757812 80.71875 32.1875 80.847656 33.523438 C 81.097656 36.214844 81.3125 38.476562 81.480469 40.300781 C 81.515625 40.648438 81.542969 40.972656 81.566406 41.289062 C 81.582031 41.054688 81.597656 40.753906 81.613281 40.394531 C 81.675781 39.386719 81.699219 37.890625 81.851562 35.917969 C 82 33.949219 82.101562 31.492188 82.402344 28.589844 C 82.546875 27.136719 82.625 25.5625 82.851562 23.878906 C 83.050781 22.199219 83.257812 20.40625 83.484375 18.507812 C 83.597656 17.589844 83.667969 16.667969 83.824219 15.695312 Z M 88.757812 50.289062 C 88.96875 48.65625 89.152344 46.859375 88.882812 45.304688 C 88.84375 45.121094 88.796875 44.941406 88.742188 44.796875 C 88.699219 44.65625 88.589844 44.503906 88.621094 44.519531 C 88.621094 44.496094 88.582031 44.472656 88.566406 44.457031 L 88.433594 44.339844 L 88.289062 44.253906 C 88.1875 44.160156 88.003906 44.140625 87.863281 44.070312 C 87.175781 43.882812 86.289062 43.914062 85.421875 44.0625 C 81.3125 44.789062 81.019531 46.625 80.765625 50.402344 C 80.710938 51.199219 80.6875 51.996094 80.65625 52.777344 C 80.632812 53.167969 80.625 53.539062 80.59375 53.957031 C 80.570312 54.367188 80.546875 54.761719 80.492188 55.109375 C 80.339844 56.53125 80.160156 57.851562 80.0625 59.070312 C 79.976562 60.292969 79.898438 61.40625 79.828125 62.402344 C 79.707031 64.417969 79.613281 65.96875 79.550781 67.019531 C 79.472656 68.085938 79.425781 68.644531 79.425781 68.644531 C 79.410156 68.78125 79.382812 68.914062 79.359375 69.042969 C 79.472656 69.027344 79.597656 69.015625 79.722656 68.996094 C 81.429688 68.757812 83.167969 68.425781 84.925781 67.964844 C 84.925781 67.738281 84.945312 67.5 84.996094 67.230469 C 84.996094 67.230469 85.214844 66.433594 85.613281 65.011719 C 85.707031 64.664062 85.816406 64.285156 85.941406 63.867188 C 86.03125 63.460938 86.140625 63.019531 86.25 62.546875 C 86.363281 62.105469 86.464844 61.503906 86.589844 60.917969 C 86.71875 60.339844 86.859375 59.734375 86.996094 59.09375 C 87.578125 56.570312 88.296875 53.585938 88.757812 50.289062 Z M 92.894531 16.003906 C 92.914062 15.503906 92.9375 14.984375 92.886719 14.550781 C 92.839844 14.105469 92.714844 13.804688 92.621094 13.71875 C 92.523438 13.609375 92.089844 13.472656 91.503906 13.464844 C 90.929688 13.449219 90.265625 13.484375 89.578125 13.53125 C 88.203125 13.609375 86.984375 13.8125 86.496094 14.628906 C 86.308594 14.9375 86.171875 15.371094 86.070312 15.867188 C 86.070312 15.882812 86.078125 15.902344 86.078125 15.921875 C 86.125 16.484375 86.101562 17.023438 86.101562 17.558594 C 86.109375 18.621094 86.007812 19.644531 85.941406 20.625 C 85.761719 22.578125 85.515625 24.339844 85.351562 25.96875 C 85.277344 26.78125 85.183594 27.5625 85.160156 28.292969 C 85.136719 28.65625 85.113281 29.023438 85.097656 29.367188 C 85.097656 29.722656 85.089844 30.0625 85.089844 30.398438 C 85.089844 31.734375 85.167969 32.96875 85.238281 34.082031 C 85.382812 36.304688 85.476562 38.042969 85.484375 39.226562 C 85.515625 39.8125 85.46875 40.277344 85.476562 40.578125 C 85.46875 40.878906 85.460938 41.035156 85.460938 41.035156 C 85.4375 41.34375 85.367188 41.605469 85.289062 41.835938 C 86.125 41.714844 86.992188 41.644531 87.902344 41.804688 C 87.925781 41.730469 87.957031 41.636719 87.996094 41.527344 C 88.070312 41.3125 88.171875 41.046875 88.273438 40.71875 C 88.359375 40.367188 88.449219 39.96875 88.558594 39.511719 C 88.734375 38.570312 88.914062 37.378906 89.046875 35.882812 C 89.121094 35.140625 89.214844 34.3125 89.316406 33.449219 C 89.378906 32.976562 89.421875 32.636719 89.421875 32.203125 C 89.421875 31.746094 89.421875 31.277344 89.421875 30.789062 C 89.421875 29.792969 89.394531 28.835938 89.484375 27.886719 C 89.515625 27.414062 89.59375 26.929688 89.695312 26.457031 C 89.726562 26.230469 89.839844 25.953125 89.925781 25.714844 C 90.019531 25.460938 90.109375 25.222656 90.273438 24.996094 C 90.804688 24.132812 91.671875 23.558594 92.445312 23.296875 C 92.414062 23.117188 92.40625 22.925781 92.4375 22.710938 C 92.4375 22.710938 92.476562 22.5625 92.515625 22.269531 C 92.542969 21.976562 92.589844 21.535156 92.644531 20.972656 C 92.769531 19.84375 92.824219 18.144531 92.894531 16.003906 Z M 97.378906 26.449219 C 97.347656 26.441406 97.320312 26.449219 97.289062 26.441406 C 97.289062 26.441406 96.988281 26.316406 96.445312 26.132812 C 95.914062 25.960938 95.117188 25.714844 94.234375 25.652344 C 93.804688 25.621094 93.347656 25.652344 92.984375 25.792969 C 92.628906 25.929688 92.3125 26.164062 92.113281 26.609375 C 92.066406 26.734375 91.996094 26.828125 91.957031 26.972656 C 91.917969 27.121094 91.878906 27.273438 91.84375 27.429688 C 91.75 27.730469 91.734375 28.109375 91.679688 28.449219 C 91.617188 29.183594 91.585938 29.964844 91.59375 30.78125 C 91.59375 31.59375 91.625 32.425781 91.585938 33.292969 C 91.519531 34.066406 91.476562 34.816406 91.457031 35.527344 C 91.402344 36.960938 91.402344 38.277344 91.308594 39.425781 C 91.238281 40.5625 91.125 41.519531 90.984375 42.191406 C 90.875 42.863281 90.753906 43.25 90.753906 43.25 C 90.714844 43.34375 90.667969 43.429688 90.613281 43.496094 C 90.691406 43.652344 90.785156 43.816406 90.828125 43.953125 C 91.101562 44.640625 91.191406 45.25 91.246094 45.824219 C 91.433594 48.109375 91.167969 50.039062 90.953125 51.847656 C 90.46875 55.433594 89.847656 58.375 89.449219 60.71875 C 89.347656 61.304688 89.261719 61.84375 89.199219 62.332031 C 89.113281 62.871094 89.03125 63.382812 88.945312 63.851562 C 88.789062 64.820312 88.605469 65.523438 88.480469 66.140625 C 88.425781 66.425781 88.382812 66.664062 88.335938 66.882812 C 88.535156 66.8125 88.734375 66.742188 88.929688 66.664062 C 90.390625 66.09375 91.84375 65.390625 93.246094 64.546875 C 93.101562 64.054688 93.023438 63.414062 93.039062 62.585938 C 93.039062 62.585938 93.054688 62.355469 93.078125 61.898438 C 93.109375 61.433594 93.101562 60.746094 93.1875 59.835938 C 93.347656 58.019531 93.503906 55.300781 93.925781 51.746094 C 94.296875 48.179688 94.917969 43.777344 95.65625 38.5625 C 96.035156 35.957031 96.4375 33.148438 96.878906 30.125 C 97.046875 28.9375 97.21875 27.699219 97.378906 26.449219 Z M 105.570312 55.554688 C 105.570312 55.511719 105.570312 55.472656 105.570312 55.433594 C 105.554688 55.285156 105.5 55.179688 105.4375 55.125 C 105.308594 55.039062 105.273438 55.0625 105.351562 55.132812 C 105.269531 55.054688 105.128906 55.0625 105.042969 55.125 C 104.941406 55.195312 104.882812 55.277344 104.820312 55.371094 C 104.363281 56.042969 103.945312 56.878906 103.546875 57.703125 C 103.121094 58.554688 102.773438 59.386719 102.125 60.339844 C 102.03125 60.46875 101.953125 60.585938 101.820312 60.722656 L 101.589844 60.972656 L 101.113281 61.488281 C 100.855469 61.769531 100.609375 62.039062 100.355469 62.308594 C 99.480469 65.515625 99.082031 68.621094 98.746094 71.46875 C 98.402344 74.566406 98.144531 77.394531 97.828125 79.953125 C 97.535156 82.53125 97.0625 84.78125 96.699219 86.757812 C 96.332031 88.734375 95.996094 90.449219 95.742188 91.941406 C 95.472656 93.425781 95.292969 94.683594 95.125 95.734375 C 94.984375 96.785156 94.871094 97.628906 94.785156 98.285156 C 94.636719 99.605469 94.476562 100.183594 94.3125 100.183594 C 94.160156 100.183594 94.003906 99.605469 93.882812 98.261719 C 93.820312 97.582031 93.835938 96.707031 93.828125 95.617188 C 93.882812 94.535156 93.941406 93.238281 94.113281 91.710938 C 94.269531 90.1875 94.507812 88.433594 94.800781 86.441406 C 95.085938 84.441406 95.480469 82.214844 95.703125 79.710938 C 95.9375 77.171875 96.199219 74.351562 96.484375 71.222656 C 96.691406 69.277344 96.933594 67.199219 97.355469 65.003906 C 95.433594 66.488281 93.378906 67.683594 91.308594 68.613281 C 85.003906 71.402344 78.792969 72.09375 73.332031 72.421875 C 70.589844 72.589844 68.003906 72.589844 65.5625 72.605469 C 63.097656 72.589844 60.878906 72.597656 58.617188 72.519531 C 54.160156 72.367188 50.273438 71.492188 47.042969 70.496094 C 44.84375 69.816406 43.003906 68.628906 40.878906 67.855469 C 38.144531 66.851562 35.511719 66.164062 33.070312 64.464844 C 32.421875 64 31.71875 63.574219 30.875 63.097656 C 30.875 63.097656 30.652344 62.972656 30.21875 62.734375 C 30.101562 62.664062 29.964844 62.59375 29.816406 62.507812 C 30.117188 65.167969 30.414062 67.660156 30.675781 69.996094 C 31.015625 73.292969 31.316406 76.273438 31.585938 78.964844 C 31.871094 81.644531 32.128906 84.03125 32.351562 86.148438 C 32.574219 88.257812 32.714844 90.109375 32.945312 91.695312 C 33.757812 98.042969 33.859375 100.515625 33.546875 100.570312 C 33.230469 100.632812 32.550781 98.277344 31.316406 91.925781 C 30.976562 90.351562 30.753906 88.503906 30.4375 86.386719 C 30.140625 84.277344 29.792969 81.882812 29.460938 79.203125 C 28.867188 74.203125 28.148438 68.15625 27.300781 60.941406 C 26.566406 60.386719 25.777344 59.660156 25.050781 58.777344 C 24.589844 58.230469 24.101562 57.648438 23.558594 57.078125 C 23.382812 56.878906 23.453125 56.953125 23.414062 56.910156 C 23.398438 56.894531 23.375 56.871094 23.34375 56.863281 C 23.304688 56.855469 23.296875 56.894531 23.289062 56.914062 L 23.28125 56.960938 C 23.28125 56.96875 23.273438 57.007812 23.28125 57.09375 C 23.296875 57.582031 23.335938 58.089844 23.382812 58.625 C 23.429688 59.15625 23.484375 59.660156 23.570312 60.246094 C 23.886719 62.523438 24.234375 64.996094 24.59375 67.652344 C 25.027344 70.289062 25.40625 73.085938 25.957031 76.089844 C 26.503906 79.101562 27.074219 82.277344 27.679688 85.613281 C 28.753906 92.304688 29.839844 99.636719 30.984375 107.46875 C 31.53125 111.398438 32.25 115.417969 32.914062 119.582031 C 33 120.097656 33.085938 120.617188 33.171875 121.132812 L 33.210938 121.390625 L 33.222656 121.503906 C 33.253906 121.527344 33.300781 121.527344 33.339844 121.535156 L 33.585938 121.550781 L 34.28125 121.574219 C 34.816406 121.582031 35.347656 121.589844 35.882812 121.597656 C 38.035156 121.613281 40.230469 121.597656 42.457031 121.566406 C 46.898438 121.511719 51.457031 121.417969 56.105469 121.304688 C 60.75 121.203125 65.515625 121.171875 70.351562 121.101562 C 72.769531 121.070312 75.210938 121.042969 77.675781 121.003906 C 78.902344 120.988281 80.140625 120.972656 81.375 120.957031 C 82.65625 120.933594 83.914062 121.042969 85.152344 121.101562 C 87.625 121.234375 90.101562 121.34375 92.460938 120.996094 C 93.625 120.816406 94.769531 120.5 95.617188 119.929688 C 96.042969 119.636719 96.367188 119.304688 96.601562 118.878906 C 96.839844 118.429688 97.039062 117.90625 97.171875 117.339844 C 97.644531 115.355469 97.652344 113.140625 97.667969 110.96875 C 97.699219 108.796875 97.605469 106.5625 97.984375 104.324219 C 98.695312 100.085938 99.382812 95.949219 100.046875 91.988281 C 100.371094 90.003906 100.695312 88.0625 101.011719 86.179688 C 101.328125 84.292969 101.628906 82.457031 101.859375 80.695312 C 102.433594 77.1875 102.640625 73.84375 102.949219 70.804688 C 103.089844 69.277344 103.230469 67.824219 103.351562 66.464844 C 103.515625 65.097656 103.714844 63.824219 103.871094 62.632812 C 103.953125 62.046875 104.03125 61.472656 104.109375 60.925781 C 104.132812 60.785156 104.148438 60.648438 104.171875 60.515625 C 104.203125 60.355469 104.226562 60.167969 104.269531 60.03125 C 104.347656 59.71875 104.433594 59.464844 104.511719 59.210938 C 104.84375 58.238281 105.144531 57.433594 105.328125 56.738281 C 105.421875 56.390625 105.492188 56.074219 105.539062 55.796875 C 105.554688 55.726562 105.554688 55.648438 105.5625 55.609375 Z M 106.3125 24.078125 C 106.394531 23.453125 106.464844 22.816406 106.464844 22.222656 C 106.464844 21.636719 106.402344 21.027344 106.234375 20.925781 C 106.007812 20.625 105.652344 20.453125 105.082031 20.367188 C 104.527344 20.292969 103.839844 20.316406 103.128906 20.324219 C 102.394531 20.328125 101.707031 20.308594 101.105469 20.386719 L 100.886719 20.414062 L 100.765625 20.445312 C 100.6875 20.46875 100.632812 20.484375 100.570312 20.53125 C 100.453125 20.609375 100.394531 20.726562 100.355469 20.886719 C 99.621094 26.597656 98.917969 32.050781 98.277344 37.023438 C 97.945312 39.535156 97.675781 41.914062 97.410156 44.148438 C 97.179688 46.378906 96.957031 48.457031 96.792969 50.359375 C 96.65625 52.257812 96.515625 53.980469 96.421875 55.488281 C 96.367188 57 96.324219 58.304688 96.277344 59.363281 C 96.222656 60.429688 96.238281 61.257812 96.246094 61.820312 C 96.246094 62.097656 96.253906 62.316406 96.253906 62.457031 C 96.746094 62.054688 97.242188 61.636719 97.714844 61.1875 C 98.378906 60.5625 98.988281 59.84375 99.644531 59.164062 L 99.867188 58.917969 C 99.90625 58.871094 99.953125 58.816406 100 58.738281 C 100.101562 58.59375 100.207031 58.40625 100.316406 58.214844 C 100.53125 57.820312 100.75 57.378906 100.972656 56.929688 C 101.234375 56.40625 101.496094 55.867188 101.792969 55.308594 C 101.777344 55.171875 101.769531 55.015625 101.769531 54.84375 C 101.746094 54.460938 101.769531 54.011719 101.847656 53.492188 C 101.847656 53.492188 101.859375 53.433594 101.882812 53.300781 C 101.914062 53.167969 101.9375 52.96875 101.976562 52.691406 C 102.039062 52.132812 102.15625 51.355469 102.261719 50.265625 C 102.371094 49.214844 102.554688 47.824219 102.789062 46.308594 C 103.019531 44.804688 103.28125 43.082031 103.566406 41.1875 C 103.714844 40.238281 103.863281 39.242188 104.015625 38.207031 C 104.195312 37.171875 104.371094 36.097656 104.558594 34.984375 C 104.949219 32.746094 105.273438 30.402344 105.632812 27.914062 L 105.699219 27.453125 L 105.738281 27.167969 L 105.792969 26.898438 C 105.855469 26.578125 105.917969 26.269531 105.980469 25.953125 C 106.101562 25.328125 106.21875 24.703125 106.3125 24.078125 Z M 108.699219 21.3125 C 108.796875 22.253906 108.734375 23.050781 108.660156 23.839844 C 108.574219 24.609375 108.457031 25.351562 108.335938 26.070312 C 108.265625 26.425781 108.203125 26.773438 108.140625 27.121094 L 108.0625 27.523438 L 108.003906 28.039062 C 107.917969 28.726562 107.832031 29.398438 107.746094 30.0625 C 107.4375 32.722656 107.082031 35.101562 106.773438 37.273438 C 106.464844 39.449219 106.265625 41.441406 106.046875 43.210938 C 105.847656 44.972656 105.644531 46.550781 105.523438 47.847656 C 105.382812 49.128906 105.3125 50.25 105.261719 51.144531 C 105.238281 51.476562 105.214844 51.773438 105.191406 52.042969 C 105.253906 52.035156 105.308594 52.027344 105.367188 52.019531 C 105.414062 52.019531 105.460938 52.027344 105.507812 52.027344 C 105.40625 52.027344 105.300781 52.035156 105.191406 52.050781 C 105.191406 52.058594 105.191406 52.074219 105.191406 52.089844 C 105.398438 52.066406 105.632812 52.066406 105.894531 52.109375 C 106.335938 52.203125 106.789062 52.433594 107.175781 52.84375 C 107.601562 53.214844 107.863281 53.804688 108.011719 54.492188 C 108.027344 54.851562 108.085938 55.222656 108.039062 55.640625 C 108.027344 55.8125 108.003906 55.980469 107.980469 56.160156 C 107.957031 56.289062 107.925781 56.421875 107.902344 56.5625 C 107.785156 57.101562 107.625 57.636719 107.445312 58.175781 C 107.261719 58.691406 107.066406 59.242188 106.867188 59.820312 C 106.765625 60.089844 106.675781 60.367188 106.613281 60.601562 C 106.566406 60.738281 106.566406 60.816406 106.535156 60.941406 C 106.511719 61.09375 106.488281 61.257812 106.464844 61.417969 C 106.273438 62.71875 106.070312 64.125 105.847656 65.628906 C 105.46875 68.664062 105.183594 72.125 104.78125 75.988281 C 104.632812 77.914062 104.269531 79.929688 103.984375 82.023438 C 103.691406 84.125 103.289062 86.230469 102.925781 88.441406 C 102.1875 92.851562 101.390625 97.535156 100.570312 102.421875 C 100.464844 103.035156 100.363281 103.644531 100.253906 104.261719 L 100.105469 105.183594 C 100.078125 105.476562 100.03125 105.746094 100.015625 106.046875 C 99.914062 107.230469 99.90625 108.496094 99.898438 109.769531 C 99.890625 111.0625 99.898438 112.367188 99.835938 113.710938 C 99.777344 115.0625 99.675781 116.4375 99.328125 117.875 C 99.109375 118.707031 98.863281 119.519531 98.300781 120.367188 C 97.71875 121.203125 96.917969 121.8125 96.121094 122.207031 C 94.507812 122.996094 92.894531 123.226562 91.347656 123.367188 C 88.25 123.613281 85.269531 123.3125 82.480469 123.203125 C 81.808594 123.171875 81.097656 123.203125 80.386719 123.210938 C 79.675781 123.21875 78.964844 123.234375 78.261719 123.242188 C 76.855469 123.265625 75.457031 123.289062 74.074219 123.304688 C 71.300781 123.351562 68.574219 123.390625 65.902344 123.4375 C 63.21875 123.476562 60.585938 123.519531 58 123.558594 C 55.394531 123.628906 52.847656 123.699219 50.34375 123.769531 C 45.328125 123.882812 40.515625 124 35.851562 124 C 35.265625 123.992188 34.675781 123.984375 34.097656 123.984375 L 33.65625 123.96875 L 32.96875 123.9375 C 32.46875 123.898438 31.910156 123.882812 31.601562 123.597656 L 31.503906 123.476562 L 31.449219 123.414062 C 31.449219 123.375 31.285156 123.503906 31.339844 123.414062 L 31.191406 123.117188 C 31.109375 122.910156 30.96875 122.765625 30.9375 122.5 L 30.722656 121.257812 C 30.628906 120.703125 30.535156 120.144531 30.445312 119.597656 C 30.074219 117.394531 29.703125 115.238281 29.347656 113.140625 C 28.628906 108.921875 28.054688 104.886719 27.445312 101.042969 C 26.226562 93.363281 25.175781 86.425781 23.921875 80.316406 C 23.628906 78.777344 23.34375 77.292969 23.074219 75.851562 C 22.796875 74.414062 22.578125 72.976562 22.339844 71.609375 C 22.109375 70.242188 21.890625 68.914062 21.675781 67.640625 C 21.480469 66.371094 21.304688 65.152344 21.128906 63.976562 C 20.949219 62.800781 20.785156 61.683594 20.625 60.601562 C 20.539062 60.082031 20.46875 59.496094 20.417969 58.972656 C 20.363281 58.4375 20.316406 57.914062 20.285156 57.378906 L 20.277344 57.164062 L 20.269531 56.832031 C 20.261719 56.613281 20.253906 56.398438 20.269531 56.160156 C 20.277344 55.925781 20.277344 55.695312 20.316406 55.488281 C 20.339844 55.261719 20.363281 55.046875 20.425781 54.859375 C 20.617188 54.058594 20.964844 53.539062 21.558594 53.199219 C 22.207031 52.867188 22.804688 52.898438 23.421875 53.132812 C 23.761719 53.261719 24.109375 53.476562 24.441406 53.726562 C 24.386719 53.214844 24.324219 52.675781 24.238281 52.058594 C 24.015625 50.359375 23.578125 48.242188 22.957031 45.722656 C 22.339844 43.203125 21.496094 40.285156 20.6875 36.894531 C 20.292969 35.195312 19.945312 33.570312 19.714844 32.027344 C 19.605469 31.253906 19.480469 30.511719 19.425781 29.777344 C 19.398438 29.414062 19.359375 29.058594 19.328125 28.703125 C 19.304688 28.535156 19.304688 28.355469 19.296875 28.179688 C 19.289062 27.941406 19.28125 27.707031 19.273438 27.46875 C 19.265625 27.167969 19.257812 26.871094 19.25 26.578125 C 19.25 26.300781 19.257812 26.023438 19.265625 25.746094 L 19.273438 25.34375 C 19.335938 25.257812 19.519531 25.273438 19.644531 25.234375 C 19.90625 25.1875 20.167969 25.144531 20.433594 25.089844 C 20.957031 24.996094 21.488281 24.972656 22 24.910156 C 22.285156 24.882812 22.433594 24.921875 22.601562 24.921875 C 22.773438 24.933594 22.941406 24.941406 23.105469 24.957031 C 24.433594 25.121094 25.554688 25.597656 26.441406 26.125 C 27.191406 26.589844 27.785156 27.058594 28.289062 27.515625 C 28.28125 27.160156 28.265625 26.804688 28.273438 26.371094 C 28.28125 25.945312 28.367188 25.113281 28.765625 24.585938 C 29.136719 24.023438 29.863281 23.652344 30.320312 23.496094 C 30.789062 23.328125 31.199219 23.234375 31.632812 23.136719 C 32.429688 23.035156 33.253906 22.910156 34.042969 22.917969 C 34.027344 22.785156 34.011719 22.632812 33.980469 22.414062 C 33.898438 21.835938 33.71875 20.957031 33.496094 19.710938 C 33.386719 19.078125 33.246094 18.375 33.210938 17.480469 C 33.210938 17.242188 33.195312 17.015625 33.21875 16.746094 C 33.230469 16.601562 33.246094 16.453125 33.261719 16.296875 C 33.285156 16.121094 33.363281 15.949219 33.410156 15.765625 L 33.496094 15.503906 C 33.535156 15.417969 33.582031 15.332031 33.625 15.253906 C 33.710938 15.085938 33.796875 14.914062 33.949219 14.800781 C 34.082031 14.660156 34.222656 14.519531 34.398438 14.4375 C 34.570312 14.335938 34.722656 14.203125 34.917969 14.136719 C 35.078125 14.082031 35.25 14.019531 35.417969 13.964844 C 35.558594 13.925781 35.6875 13.894531 35.828125 13.863281 C 35.945312 13.835938 36.050781 13.8125 36.167969 13.796875 C 36.167969 13.785156 36.167969 13.785156 36.167969 13.78125 C 36.167969 13.78125 36.230469 12.730469 36.269531 10.664062 C 36.253906 10.15625 36.214844 9.585938 36.175781 8.953125 C 36.152344 8.636719 36.128906 8.304688 36.105469 7.953125 C 36.058594 7.3125 36.003906 6.648438 35.945312 5.953125 C 35.929688 5.785156 35.921875 5.605469 35.90625 5.4375 L 35.890625 5.296875 C 35.914062 5.273438 35.972656 5.28125 36.011719 5.265625 L 36.285156 5.222656 C 36.640625 5.152344 37.003906 5.082031 37.371094 5.019531 C 37.953125 4.910156 38.546875 4.804688 39.164062 4.6875 C 40.078125 4.511719 41.058594 4.441406 42.09375 4.292969 C 43.136719 4.179688 44.125 4.140625 45.042969 4.0625 C 45.507812 4.023438 45.957031 4.039062 46.386719 4.023438 C 47.097656 4.023438 47.777344 4.015625 48.425781 4.007812 C 48.605469 4 48.78125 4 48.953125 4 L 49.085938 4 C 49.105469 4.023438 49.097656 4.078125 49.113281 4.117188 L 49.152344 4.363281 C 49.207031 4.695312 49.253906 5.019531 49.308594 5.335938 C 49.394531 5.871094 49.476562 6.378906 49.5625 6.859375 C 49.617188 7.144531 49.664062 7.40625 49.710938 7.660156 C 49.863281 7.613281 50.019531 7.578125 50.15625 7.546875 C 51.078125 7.351562 51.847656 7.359375 52.582031 7.375 C 53.332031 7.398438 54.011719 7.460938 54.714844 7.554688 C 55.402344 7.644531 56.105469 7.777344 56.839844 8.085938 C 57.195312 8.234375 57.582031 8.464844 57.921875 8.75 C 58.269531 9.058594 58.539062 9.4375 58.730469 9.816406 C 59.109375 10.597656 59.148438 11.230469 59.226562 11.796875 C 59.328125 12.898438 59.34375 13.773438 59.398438 14.550781 C 59.445312 15.308594 59.535156 15.996094 59.597656 16.585938 C 59.675781 17.195312 59.730469 17.703125 59.78125 18.113281 C 59.859375 18.980469 59.898438 19.410156 59.898438 19.410156 C 59.898438 19.511719 59.882812 19.605469 59.875 19.6875 C 59.929688 19.695312 59.984375 19.703125 60.039062 19.703125 C 60.03125 19.644531 60.023438 19.589844 60.023438 19.519531 C 60.023438 19.519531 60.0625 18.730469 60.152344 16.746094 C 60.191406 15.765625 60.269531 14.46875 60.285156 12.851562 C 60.292969 12.039062 60.316406 11.136719 60.300781 10.148438 C 60.246094 8.882812 60.191406 7.5 60.132812 5.992188 C 60.160156 6.316406 60.167969 6.324219 60.160156 6.070312 C 60.160156 6.03125 60.160156 5.992188 60.160156 5.945312 C 60.167969 5.898438 60.132812 5.824219 60.191406 5.816406 C 60.316406 5.792969 60.457031 5.761719 60.609375 5.730469 C 60.933594 5.667969 61.335938 5.585938 61.785156 5.484375 C 62.355469 5.328125 63.082031 5.128906 63.90625 4.910156 C 64.679688 4.734375 65.523438 4.503906 66.664062 4.539062 C 66.90625 4.539062 67.183594 4.585938 67.453125 4.65625 C 67.753906 4.742188 68.027344 4.855469 68.265625 5.003906 C 68.519531 5.136719 68.71875 5.335938 68.929688 5.515625 C 69.105469 5.714844 69.277344 5.914062 69.40625 6.125 C 69.925781 6.960938 70.101562 7.746094 70.25 8.457031 C 70.503906 9.871094 70.527344 11.097656 70.660156 12.132812 C 70.683594 12.398438 70.730469 12.636719 70.769531 12.882812 C 70.816406 13.144531 70.859375 13.402344 70.898438 13.65625 C 70.992188 14.15625 71.078125 14.644531 71.160156 15.101562 C 71.324219 16.027344 71.476562 16.871094 71.617188 17.609375 C 71.878906 19.117188 72.058594 20.300781 72.171875 21.078125 C 72.179688 21.140625 72.179688 21.179688 72.191406 21.234375 C 72.382812 21.195312 72.566406 21.164062 72.746094 21.148438 C 72.96875 21.117188 73.1875 21.109375 73.410156 21.09375 C 73.332031 20.847656 73.261719 20.570312 73.238281 20.222656 C 73.238281 20.222656 73.238281 20.066406 73.246094 19.773438 C 73.261719 19.480469 73.277344 19.03125 73.292969 18.445312 C 73.308594 17.84375 73.355469 17.164062 73.394531 16.3125 C 73.425781 15.890625 73.425781 15.457031 73.433594 14.984375 C 73.417969 14.550781 73.488281 13.902344 73.410156 13.71875 C 73.308594 13.222656 73.164062 12.621094 73.03125 11.957031 C 72.96875 11.617188 72.90625 11.269531 72.867188 10.859375 C 72.832031 10.535156 72.800781 9.738281 73.039062 9.191406 C 73.15625 8.898438 73.363281 8.648438 73.574219 8.402344 C 73.8125 8.210938 74.050781 7.941406 74.328125 7.816406 C 74.5625 7.675781 74.769531 7.578125 74.976562 7.5 C 75.195312 7.398438 75.402344 7.335938 75.613281 7.269531 C 76.453125 7.003906 77.296875 6.84375 78.175781 6.71875 C 79.058594 6.609375 79.960938 6.539062 80.949219 6.558594 C 81.867188 6.589844 83.207031 6.648438 84.339844 7.578125 C 84.898438 8.023438 85.328125 8.675781 85.546875 9.300781 C 85.769531 9.925781 85.855469 10.535156 85.902344 11.113281 C 85.925781 11.4375 85.941406 11.765625 85.941406 12.078125 C 86.171875 11.949219 86.410156 11.816406 86.644531 11.734375 C 87.136719 11.53125 87.601562 11.425781 88.046875 11.339844 C 88.273438 11.308594 88.488281 11.277344 88.707031 11.246094 C 88.90625 11.230469 89.097656 11.207031 89.285156 11.183594 C 89.664062 11.144531 90.042969 11.105469 90.429688 11.074219 C 91.191406 11.03125 91.957031 10.960938 92.90625 11.160156 C 93.371094 11.253906 93.933594 11.5 94.359375 11.902344 C 94.816406 12.304688 95.054688 12.789062 95.21875 13.207031 C 95.742188 14.867188 95.527344 16.011719 95.613281 16.945312 C 95.644531 17.929688 95.65625 18.792969 95.679688 19.535156 C 95.710938 20.285156 95.695312 20.933594 95.679688 21.460938 C 95.671875 21.976562 95.664062 22.371094 95.664062 22.632812 C 95.652344 22.8125 95.644531 22.917969 95.636719 22.980469 C 96.351562 23.035156 96.894531 23.136719 97.289062 23.1875 C 97.503906 23.226562 97.660156 23.257812 97.789062 23.28125 C 97.796875 23.1875 97.8125 23.097656 97.820312 23.003906 C 97.953125 22.160156 97.960938 21.421875 98.214844 20.292969 C 98.394531 19.582031 98.839844 18.886719 99.511719 18.554688 C 99.851562 18.382812 100.207031 18.277344 100.523438 18.222656 C 100.785156 18.175781 101.050781 18.144531 101.28125 18.136719 C 101.753906 18.097656 102.1875 18.097656 102.617188 18.089844 C 103.027344 18.089844 103.429688 18.082031 103.839844 18.074219 C 104.679688 18.082031 105.644531 18.042969 106.726562 18.515625 C 106.992188 18.609375 107.246094 18.816406 107.492188 18.992188 C 107.753906 19.164062 107.902344 19.402344 108.117188 19.664062 L 108.273438 19.859375 L 108.371094 20.097656 C 108.441406 20.253906 108.519531 20.414062 108.542969 20.546875 C 108.628906 20.824219 108.667969 21.070312 108.699219 21.3125 Z M 44.339844 14.738281 C 44.480469 14.90625 44.601562 15.0625 44.703125 15.21875 C 44.804688 15.378906 44.867188 15.53125 44.953125 15.6875 C 45.121094 16.011719 45.191406 16.289062 45.296875 16.585938 C 45.46875 17.148438 45.59375 17.671875 45.683594 18.175781 C 45.871094 19.171875 45.96875 20.074219 46.046875 20.894531 C 46.195312 22.53125 46.25 23.859375 46.296875 24.902344 C 46.363281 26.988281 46.394531 27.953125 46.394531 27.953125 C 46.386719 27.992188 46.378906 28.03125 46.371094 28.070312 C 46.480469 28.101562 46.589844 28.140625 46.695312 28.179688 C 46.703125 28.054688 46.71875 27.933594 46.742188 27.785156 C 46.78125 27.390625 46.835938 26.90625 46.90625 26.316406 C 46.929688 25.722656 46.953125 25.035156 46.984375 24.246094 C 47.058594 22.679688 47.058594 20.679688 47.058594 18.308594 C 47.066406 17.109375 47.082031 15.8125 47.097656 14.421875 C 47.105469 13.726562 47.136719 13.03125 47.167969 12.273438 C 47.167969 12.1875 47.175781 12.097656 47.183594 12.011719 C 47.183594 11.886719 47.183594 11.578125 47.191406 11.113281 C 47.167969 10.488281 47.222656 9.601562 47.121094 8.480469 C 47.082031 7.972656 47.035156 7.398438 46.992188 6.796875 C 46.992188 6.695312 46.992188 6.589844 46.996094 6.480469 C 47.015625 6.394531 46.945312 6.417969 46.898438 6.402344 L 46.726562 6.378906 L 46.644531 6.371094 C 46.605469 6.363281 46.605469 6.363281 46.488281 6.363281 C 46.300781 6.355469 46.117188 6.347656 45.925781 6.339844 C 45.546875 6.316406 45.160156 6.316406 44.765625 6.347656 C 43.976562 6.394531 43.160156 6.402344 42.332031 6.503906 C 41.496094 6.609375 40.6875 6.71875 39.914062 6.851562 C 39.550781 6.929688 39.203125 7.003906 38.863281 7.082031 C 38.738281 7.121094 38.625 7.160156 38.507812 7.191406 C 38.429688 7.191406 38.484375 7.28125 38.484375 7.335938 L 38.53125 7.507812 L 38.570312 7.644531 C 38.59375 7.816406 38.617188 7.980469 38.640625 8.140625 C 38.746094 8.8125 38.847656 9.4375 38.933594 10.011719 C 39.148438 11.816406 39.296875 13.070312 39.351562 13.53125 C 40.140625 13.53125 40.949219 13.5625 41.839844 13.679688 C 42.519531 13.804688 43.21875 13.886719 43.886719 14.351562 C 44.015625 14.453125 44.117188 14.546875 44.21875 14.605469 C 44.273438 14.652344 44.308594 14.707031 44.339844 14.738281" fill="inherit"/><path d="M 87.476562 115.679688 C 92.46875 116.871094 95.324219 118.300781 95.21875 118.601562 C 95.09375 118.972656 92.074219 118.191406 87.136719 117.488281 C 84.664062 117.164062 81.722656 116.824219 78.429688 116.660156 C 77.621094 116.628906 76.785156 116.601562 75.929688 116.566406 C 75.078125 116.539062 74.167969 116.554688 73.261719 116.539062 C 71.457031 116.53125 69.578125 116.515625 67.65625 116.507812 C 65.714844 116.476562 63.929688 116.507812 62.148438 116.542969 C 61.242188 116.601562 60.347656 116.660156 59.480469 116.714844 C 58.65625 116.753906 57.8125 116.914062 57.011719 117 C 56.199219 117.101562 55.402344 117.203125 54.636719 117.292969 C 53.867188 117.402344 53.117188 117.558594 52.390625 117.679688 C 50.929688 117.929688 49.570312 118.160156 48.328125 118.375 C 47.066406 118.585938 45.925781 118.769531 44.925781 118.910156 C 43.929688 119.019531 43.066406 119.078125 42.355469 119.125 C 40.941406 119.203125 40.140625 119.164062 40.113281 118.984375 C 40.085938 118.808594 40.828125 118.507812 42.195312 118.121094 C 42.871094 117.929688 43.714844 117.710938 44.6875 117.472656 C 45.65625 117.195312 46.742188 116.894531 47.957031 116.566406 C 49.144531 116.242188 50.511719 115.910156 51.964844 115.5625 C 52.691406 115.394531 53.433594 115.1875 54.230469 115.039062 C 55.023438 114.90625 55.84375 114.769531 56.675781 114.621094 C 57.527344 114.496094 58.363281 114.304688 59.289062 114.226562 C 60.152344 114.152344 61.042969 114.074219 61.945312 113.996094 C 63.792969 113.917969 65.761719 113.863281 67.679688 113.902344 C 69.609375 113.925781 71.484375 113.957031 73.308594 113.980469 C 74.222656 114.011719 75.101562 114.019531 75.988281 114.082031 C 76.878906 114.144531 77.75 114.207031 78.601562 114.257812 C 81.976562 114.566406 84.980469 115.109375 87.476562 115.679688" fill="inherit"/></g></svg>