<?xml version="1.0" encoding="UTF-8" standalone="no"?><svg xmlns="http://www.w3.org/2000/svg" xmlns:xlink="http://www.w3.org/1999/xlink" fill="#fefefe" height="427.6" preserveAspectRatio="xMidYMid meet" version="1" viewBox="-3.5 19.8 471.8 427.6" width="471.8" zoomAndPan="magnify"><g><g id="change1_2"><path d="M136.781,326.608c1.934,5.322-0.806,11.207-6.119,13.144c-5.313,1.937-11.188-0.807-13.122-6.129 s0.806-11.207,6.119-13.144S134.847,321.286,136.781,326.608z"/></g><g id="change1_3"><circle cx="143.401" cy="142.68" r="9"/></g><g id="change1_4"><path d="M322.943,214.073c29.686-11.253,44.971-44.443,34.091-74.381c-9.988-29.366-44.82-45.913-73.874-35.091l-21.705-59.726 c-5.479-16.111-24.687-25.079-40.552-18.922c-15.111,5.509-23.486,21.42-20.015,36.722c-10.988,19.155-24.336,36.884-39.719,52.724 c-2.693,2.774-2.628,7.205,0.146,9.897c2.771,2.691,7.203,2.63,9.899-0.145c13.419-13.818,25.367-29.001,35.651-45.271 l73.504,202.266c-51.945-16.516-108.444-17.437-160.898-2.44l-34.303-94.394c12.25-5.477,24.188-11.876,35.507-19.058 c3.264-2.071,4.231-6.396,2.159-9.66c-2.072-3.263-6.398-4.23-9.661-2.159c-22.88,16.316-68.906,31.323-95.416,41.03 c-13.979,5.096-21.216,20.624-16.132,34.615l25.104,69.079c4.67,13.752,21.091,21.408,34.617,16.152l16.713-6.092l43.466,119.607 c4.097,12.115,18.837,18.569,30.511,13.347l29.884-12.573c11.316-4.761,16.892-17.535,12.695-29.081l-41.436-114.022 c44.666-7.256,91.044-2.968,133.648,12.654c6.803,13.879,24.478,20.836,38.936,15.234c16.378-5.97,24.855-24.162,18.898-40.552 L322.943,214.073z M56.551,302.161c-6.521,2.531-14.412-1.16-16.663-7.781l-4.158-11.442l26.356-9.607 c3.632-1.324,5.503-5.342,4.179-8.973c-1.324-3.632-5.342-5.504-8.974-4.179l-26.342,9.602l-7.224-19.878l26.356-9.608 c3.632-1.324,5.503-5.342,4.179-8.973c-1.325-3.631-5.341-5.503-8.975-4.178l-26.342,9.603l-4.16-11.446 c-2.451-6.744,1.035-14.228,7.77-16.683l49.616-18.086l33.994,93.543L56.551,302.161z M162.41,352.888l-47.317,17.249 l-23.88-65.711l0,0l26.065-9.502c7.216-2.173,14.62-4.186,21.971-5.768L162.41,352.888z M320.969,301.236 c-8.845,3.432-19.545-1.571-22.6-10.55l-83.205-228.96c-3.323-9.144,1.403-19.291,10.536-22.62 c8.846-3.432,19.543,1.571,22.598,10.55l83.206,228.961C334.826,287.759,330.101,297.906,320.969,301.236z"/></g><g id="change1_1"><path d="M375.01,85.644c-5.987,0.212-9.411-7.784-4.954-11.944l36.093-36.149c2.731-2.736,7.164-2.74,9.9-0.009 c2.736,2.731,2.74,7.163,0.009,9.898L379.964,83.59C378.597,84.959,376.803,85.644,375.01,85.644z"/><path d="M461.007,186.796c-0.205,0-51.468-4.483-51.468-4.483c-3.851-0.337-6.699-3.732-6.362-7.583 c0.338-3.851,3.732-6.705,7.585-6.361l50.849,4.456c3.851,0.337,6.699,3.732,6.362,7.583 C467.654,184.05,464.597,186.796,461.007,186.796z"/><path d="M398.58,131.807c-7.533,0.257-9.687-11.17-2.398-13.577l47.965-17.485c3.634-1.325,7.65,0.547,8.974,4.178 c1.324,3.632-0.546,7.649-4.179,8.973l-47.965,17.485C400.185,131.67,399.376,131.807,398.58,131.807z"/></g></g></svg>