<?xml version="1.0" encoding="UTF-8"?><svg xmlns="http://www.w3.org/2000/svg" xmlns:xlink="http://www.w3.org/1999/xlink" height="814.7" preserveAspectRatio="xMidYMid meet" version="1.0" viewBox="0.0 0.0 814.7 814.7" width="814.7" zoomAndPan="magnify"><defs><linearGradient gradientUnits="userSpaceOnUse" id="a" x1="407.349" x2="407.349" xlink:actuate="onLoad" xlink:show="other" xlink:type="simple" xmlns:xlink="http://www.w3.org/1999/xlink" y1="-5.373" y2="814.347"><stop offset="0" stop-color="#fdfec0"/><stop offset=".194" stop-color="#ebde9a"/><stop offset=".448" stop-color="#d7bb6e"/><stop offset=".676" stop-color="#c8a14e"/><stop offset=".868" stop-color="#bf913b"/><stop offset="1" stop-color="#bc8b34"/></linearGradient><linearGradient gradientUnits="userSpaceOnUse" id="b" x1="92.64" x2="739.891" xlink:actuate="onLoad" xlink:show="other" xlink:type="simple" xmlns:xlink="http://www.w3.org/1999/xlink" y1="92.64" y2="739.891"><stop offset="0" stop-color="#a87c27"/><stop offset=".014" stop-color="#b38a31"/><stop offset=".055" stop-color="#cdad4b"/><stop offset=".097" stop-color="#e2c85f"/><stop offset=".139" stop-color="#f0dc6e"/><stop offset=".182" stop-color="#f9e776"/><stop offset=".226" stop-color="#fceb79"/><stop offset=".355" stop-color="#e5cd63"/><stop offset=".469" stop-color="#d5ba54"/><stop offset=".548" stop-color="#d0b34f"/><stop offset=".785" stop-color="#fdec7c"/><stop offset=".827" stop-color="#f5e274"/><stop offset=".898" stop-color="#e1c760"/><stop offset=".99" stop-color="#bf9a3f"/><stop offset="1" stop-color="#bb953b"/></linearGradient><linearGradient id="c" x1="407.349" x2="407.349" xlink:actuate="onLoad" xlink:href="#a" xlink:show="other" xlink:type="simple" xmlns:xlink="http://www.w3.org/1999/xlink" y1="743.776" y2="63.547"/><linearGradient id="d" x1="407.349" x2="407.349" xlink:actuate="onLoad" xlink:href="#a" xlink:show="other" xlink:type="simple" xmlns:xlink="http://www.w3.org/1999/xlink" y1="104.392" y2="706.71"/><linearGradient id="e" x1="180.897" x2="640.936" xlink:actuate="onLoad" xlink:href="#b" xlink:show="other" xlink:type="simple" xmlns:xlink="http://www.w3.org/1999/xlink" y1="180.897" y2="640.936"/></defs><g><circle cx="407.349" cy="407.349" fill="url(#a)" r="407.349"/><circle cx="407.349" cy="407.349" fill="url(#b)" r="398.364"/><circle cx="407.349" cy="407.349" fill="url(#c)" r="341.496"/><g id="change1_3"><circle cx="407.349" cy="407.349" fill="#252427" r="334.223"/></g><circle cx="407.349" cy="407.349" fill="url(#d)" r="302.957"/><circle cx="407.349" cy="407.349" fill="url(#e)" r="297.43"/><g fill="#b98732" opacity=".3"><g id="change2_4"><path d="M424.433 131.702L412.619 130.046 407.286 119.376 402.061 130.1 390.265 131.876 398.849 140.159 396.893 151.926 407.423 146.321 418.01 151.818 415.933 140.072 424.433 131.702z"/><path d="M424.433 675.097L412.619 673.442 407.286 662.772 402.061 673.496 390.265 675.271 398.849 683.554 396.893 695.321 407.423 689.717 418.01 695.214 415.933 683.467 424.433 675.097z"/></g><g id="change2_3"><path d="M682.996 424.433L684.651 412.619 695.321 407.286 684.597 402.061 682.822 390.265 674.539 398.849 662.772 396.893 668.376 407.423 662.879 418.01 674.626 415.933 682.996 424.433z"/><path d="M139.601 424.433L141.256 412.619 151.926 407.286 141.202 402.061 139.427 390.265 131.144 398.849 119.376 396.893 124.981 407.423 119.484 418.01 131.231 415.933 139.601 424.433z"/></g><g id="change2_7"><path d="M614.341 224.517L607.158 214.993 610.931 203.677 599.654 207.565 590.057 200.48 590.271 212.407 580.566 219.344 591.976 222.827 595.575 234.2 602.413 224.425 614.341 224.517z"/><path d="M230.103 608.756L222.92 599.232 226.693 587.915 215.416 591.804 205.819 584.718 206.032 596.645 196.328 603.583 207.737 607.065 211.336 618.438 218.174 608.664 230.103 608.756z"/></g><g id="change2_5"><path d="M590.181 614.341L599.705 607.158 611.021 610.931 607.132 599.654 614.218 590.057 602.291 590.271 595.354 580.566 591.871 591.976 580.498 595.575 590.272 602.413 590.181 614.341z"/><path d="M205.942 230.103L215.466 222.92 226.782 226.693 222.894 215.416 229.98 205.819 218.052 206.032 211.115 196.328 207.632 207.737 196.259 211.336 206.034 218.174 205.942 230.103z"/></g><g id="change2_2"><path d="M317.647 146.146L306.099 149.138 297.088 141.321 296.365 153.228 286.146 159.383 297.247 163.75 299.943 175.37 307.526 166.162 319.411 167.19 312.997 157.132 317.647 146.146z"/><path d="M525.595 648.178L514.048 651.17 505.036 643.353 504.313 655.26 494.095 661.415 505.195 665.782 507.891 677.402 515.475 668.194 527.359 669.221 520.946 659.163 525.595 648.178z"/></g><g id="change2_8"><path d="M668.552 317.647L665.56 306.099 673.377 297.088 661.47 296.365 655.315 286.146 650.948 297.247 639.327 299.943 648.535 307.526 647.508 319.411 657.566 312.997 668.552 317.647z"/><path d="M166.52 525.595L163.528 514.048 171.345 505.036 159.438 504.313 153.283 494.095 148.916 505.195 137.296 507.891 146.504 515.475 145.476 527.359 155.534 520.946 166.52 525.595z"/></g><g id="change2_6"><path d="M528.618 159.222L518.337 153.172 517.493 141.273 508.562 149.181 496.984 146.307 501.746 157.245 495.435 167.368 507.308 166.219 514.986 175.349 517.563 163.702 528.618 159.222z"/><path d="M320.67 661.254L310.389 655.204 309.544 643.305 300.613 651.213 289.036 648.339 293.797 659.276 287.486 669.399 299.36 668.251 307.037 677.381 309.614 665.734 320.67 661.254z"/></g><g id="change2_1"><path d="M655.476 528.618L661.526 518.337 673.425 517.493 665.517 508.562 668.391 496.984 657.453 501.746 647.33 495.435 648.479 507.308 639.349 514.986 650.996 517.563 655.476 528.618z"/><path d="M153.444 320.67L159.494 310.389 171.393 309.544 163.485 300.613 166.359 289.036 155.421 293.797 145.298 287.486 146.447 299.36 137.317 307.037 148.964 309.614 153.444 320.67z"/></g></g><g fill="#252427"><g id="change1_7"><path d="M460.868 270.389L423.86 265.204 407.151 231.779 390.783 265.373 353.83 270.935 380.722 296.883 374.593 333.746 407.581 316.188 440.746 333.409 434.241 296.61 460.868 270.389z"/></g><g id="change1_1"><path d="M550.244 294.661L527.413 291.462 517.105 270.842 507.008 291.567 484.212 294.998 500.802 311.005 497.021 333.746 517.371 322.915 537.831 333.538 533.818 310.837 550.244 294.661z"/><path d="M330.486 294.661L307.656 291.462 297.348 270.842 287.251 291.567 264.454 294.998 281.044 311.005 277.263 333.746 297.613 322.915 318.073 333.538 314.06 310.837 330.486 294.661z"/></g><g><g id="change1_2"><path d="M321.6 555.708H507.491V564.0799999999999H321.6z"/><path d="M356.737 574.547H472.353V582.919H356.737z"/></g><g id="change1_4"><path d="M593.99 484.597L582.096 482.931 576.725 472.187 571.465 482.985 559.588 484.773 568.231 493.112 566.261 504.96 576.864 499.317 587.523 504.852 585.433 493.024 593.99 484.597z"/></g><g id="change1_5"><path d="M251.111 484.597L239.217 482.931 233.847 472.187 228.586 482.985 216.709 484.773 225.352 493.112 223.383 504.96 233.985 499.317 244.644 504.852 242.554 493.024 251.111 484.597z"/></g><g id="change1_6"><path d="M206.544,409.833v22.64h-14.8V366.752h23.19q24.84,0,24.84,20.945a20.1,20.1,0,0,1-7.126,16.018q-7.128,6.117-19.043,6.118Zm0-31.715V398.6h5.821q11.824,0,11.824-10.357,0-10.128-11.824-10.129Z"/><path d="M304.529,432.473h-17l-10.22-16.911q-1.146-1.926-2.2-3.438a19.127,19.127,0,0,0-2.131-2.589,8.464,8.464,0,0,0-2.246-1.65,5.7,5.7,0,0,0-2.543-.573H264.2v25.161H249.4V366.752h23.466q23.922,0,23.923,17.874a18.527,18.527,0,0,1-1.054,6.348,17.641,17.641,0,0,1-2.979,5.247,18.892,18.892,0,0,1-4.652,4.033,23.969,23.969,0,0,1-6.072,2.658v.184a9.449,9.449,0,0,1,2.841,1.489,20.435,20.435,0,0,1,2.658,2.406,33.708,33.708,0,0,1,2.452,2.956q1.168,1.581,2.131,3.094Zm-40.33-54.63V396.13h6.416a10.637,10.637,0,0,0,7.653-2.75,9.18,9.18,0,0,0,2.934-6.921q0-8.614-10.312-8.616Z"/><path d="M350.084,432.473H310.67V366.752h37.9v12.054h-23.1v14.62h21.5v12.007h-21.5v15.032h24.611Z"/><path d="M435.512,432.473h-14.62V393.151q0-6.371.55-14.07h-.367a69.3,69.3,0,0,1-2.062,8.708l-15.4,44.684h-12.1l-15.674-44.226a85.917,85.917,0,0,1-2.063-9.166h-.412q.6,9.717.6,17.049v36.343H360.625V366.752H382.3l13.428,38.956a55.026,55.026,0,0,1,2.338,9.395h.274a94.59,94.59,0,0,1,2.613-9.487l13.428-38.864h21.128Z"/><path d="M465.255,432.473h-14.8V366.752h14.8Z"/><path d="M533.771,404.012q0,29.607-27.589,29.607-26.766,0-26.765-28.919V366.752h14.849v38.131q0,15.95,12.466,15.949,12.235,0,12.236-15.4V366.752h14.8Z"/><path d="M622.957,432.473h-14.62V393.151q0-6.371.55-14.07h-.367a69.3,69.3,0,0,1-2.062,8.708l-15.4,44.684h-12.1l-15.674-44.226a85.753,85.753,0,0,1-2.062-9.166h-.413q.6,9.717.6,17.049v36.343H548.07V366.752h21.678l13.428,38.956a54.933,54.933,0,0,1,2.338,9.395h.274a94.59,94.59,0,0,1,2.613-9.487l13.428-38.864h21.128Z"/></g><g id="change1_8"><path d="M291.8,517.51a24.381,24.381,0,0,1-9.54-1.8,20.939,20.939,0,0,1-7.3-5.042,22.773,22.773,0,0,1-4.685-7.757,28.681,28.681,0,0,1-1.663-9.982,31.624,31.624,0,0,1,1.68-10.592,23.174,23.174,0,0,1,4.787-8.114,21.059,21.059,0,0,1,7.554-5.194,25.883,25.883,0,0,1,9.948-1.834,23.426,23.426,0,0,1,9.3,1.8,20.755,20.755,0,0,1,7.2,5.041,22.853,22.853,0,0,1,4.634,7.758,28.836,28.836,0,0,1,1.647,9.947,30.77,30.77,0,0,1-2.411,12.613,21.678,21.678,0,0,1-6.79,8.708l14.124,10.185H308l-8.691-6.756a29.994,29.994,0,0,1-3.6.746A27.12,27.12,0,0,1,291.8,517.51Zm.373-43.218a14.09,14.09,0,0,0-6.094,1.307,13.909,13.909,0,0,0-4.77,3.7,17.248,17.248,0,0,0-3.106,5.72,23.406,23.406,0,0,0-1.1,7.4,23.979,23.979,0,0,0,1.07,7.367,17.114,17.114,0,0,0,3,5.687,13.434,13.434,0,0,0,10.661,4.974,15.468,15.468,0,0,0,6.28-1.223,13,13,0,0,0,4.736-3.513,15.977,15.977,0,0,0,3-5.619,25.1,25.1,0,0,0,1.052-7.571,26.958,26.958,0,0,0-1.018-7.741,16.344,16.344,0,0,0-2.92-5.72,12.509,12.509,0,0,0-4.634-3.548A14.934,14.934,0,0,0,292.174,474.292Z"/><path d="M361.737,497q0,20.506-19.419,20.506-18.6,0-18.6-19.725V468.011h8.08v28.111q0,14.326,11.135,14.327,10.728,0,10.728-13.818v-28.62h8.08Z"/><path d="M411.712,516.7h-8.861l-4.38-12.391H379.323L375.114,516.7h-8.827l18.231-48.684h9.1Zm-15.38-18.978L389.576,478.3a22.872,22.872,0,0,1-.645-3.055H388.8a19.784,19.784,0,0,1-.679,3.055l-6.688,19.419Z"/><path d="M445.356,516.7H418.4V468.011h8.08v41.86h18.876Z"/><path d="M460.667,516.7H452.35V468.011h8.317Z"/><path d="M503.885,474.869H489.9V516.7h-8.08V474.869H467.864v-6.858h36.021Z"/><path d="M546.085,468.011l-15.956,31V516.7h-8.081V499.177L506.5,468.011h9.2l9.574,20.879q.169.375,1.018,2.818h.1a19.366,19.366,0,0,1,1.12-2.818l10.015-20.879Z"/></g></g></g></g></svg>