<?xml version="1.0" encoding="UTF-8" standalone="no"?><svg xmlns="http://www.w3.org/2000/svg" xmlns:xlink="http://www.w3.org/1999/xlink" data-name="Layer 1" fill="#000000" height="777" preserveAspectRatio="xMidYMid meet" version="1" viewBox="-1.0 -0.6 1854.9 777.0" width="1854.9" zoomAndPan="magnify"><g id="change1_1"><path d="M403.359,200.76H1566.063c158.87,0,287.852,128.982,287.852,287.852h0c0,158.87-128.982,287.852-287.851,287.852H403.358c-158.869,0-287.851-128.982-287.851-287.851h0c0-158.871,128.982-287.853,287.852-287.853Z" fill="#f0c020"/></g><g id="change2_2"><path d="M694.334,721.365h-25.53c-2.343,0-4.238,1.896-4.238,4.238s1.896,4.238,4.238,4.238h25.53c2.343,0,4.238-1.896,4.238-4.238s-1.896-4.238-4.238-4.238Z"/><path d="M643.266,721.365h-25.53c-2.343,0-4.238,1.896-4.238,4.238s1.896,4.238,4.238,4.238h25.53c2.343,0,4.238-1.896,4.238-4.238s-1.896-4.238-4.238-4.238Z"/><path d="M592.198,721.365h-25.53c-2.343,0-4.238,1.896-4.238,4.238s1.896,4.238,4.238,4.238h25.53c2.343,0,4.238-1.896,4.238-4.238s-1.896-4.238-4.238-4.238Z"/><path d="M654.549,247.381h-25.53c-2.343,0-4.238,1.896-4.238,4.238s1.896,4.238,4.238,4.238h25.53c2.343,0,4.238-1.896,4.238-4.238s-1.896-4.238-4.238-4.238Z"/><path d="M603.481,247.381h-25.53c-2.343,0-4.238,1.896-4.238,4.238s1.896,4.238,4.238,4.238h25.53c2.343,0,4.238-1.896,4.238-4.238s-1.896-4.238-4.238-4.238Z"/><path d="M552.413,247.381h-25.53c-2.343,0-4.238,1.896-4.238,4.238s1.896,4.238,4.238,4.238h25.53c2.343,0,4.238-1.896,4.238-4.238s-1.896-4.238-4.238-4.238Z"/><path d="M501.345,247.381h-25.53c-2.343,0-4.238,1.896-4.238,4.238s1.896,4.238,4.238,4.238h25.53c2.343,0,4.238-1.896,4.238-4.238s-1.896-4.238-4.238-4.238Z"/><path d="M541.13,721.365h-25.53c-2.343,0-4.238,1.896-4.238,4.238s1.896,4.238,4.238,4.238h25.53c2.343,0,4.238-1.896,4.238-4.238s-1.896-4.238-4.238-4.238Z"/><path d="M756.686,247.381h-25.53c-2.343,0-4.238,1.896-4.238,4.238s1.896,4.238,4.238,4.238h25.53c2.343,0,4.238-1.896,4.238-4.238s-1.896-4.238-4.238-4.238Z"/><path d="M858.822,247.381h-25.53c-2.343,0-4.238,1.896-4.238,4.238s1.896,4.238,4.238,4.238h25.53c2.343,0,4.238-1.896,4.238-4.238s-1.896-4.238-4.238-4.238Z"/><path d="M847.539,721.365h-25.53c-2.343,0-4.238,1.896-4.238,4.238s1.896,4.238,4.238,4.238h25.53c2.343,0,4.238-1.896,4.238-4.238s-1.896-4.238-4.238-4.238Z"/><path d="M898.607,721.365h-25.53c-2.343,0-4.238,1.896-4.238,4.238s1.896,4.238,4.238,4.238h25.53c2.343,0,4.238-1.896,4.238-4.238s-1.896-4.238-4.238-4.238Z"/><path d="M909.89,247.381h-25.53c-2.343,0-4.238,1.896-4.238,4.238s1.896,4.238,4.238,4.238h25.53c2.343,0,4.238-1.896,4.238-4.238s-1.896-4.238-4.238-4.238Z"/><path d="M450.277,247.381h-25.53c-2.343,0-4.238,1.896-4.238,4.238s1.896,4.238,4.238,4.238h25.53c2.343,0,4.238-1.896,4.238-4.238s-1.896-4.238-4.238-4.238Z"/><path d="M745.403,721.365h-25.53c-2.343,0-4.238,1.896-4.238,4.238s1.896,4.238,4.238,4.238h25.53c2.343,0,4.238-1.896,4.238-4.238s-1.896-4.238-4.238-4.238Z"/><path d="M705.618,247.381h-25.53c-2.343,0-4.238,1.896-4.238,4.238s1.896,4.238,4.238,4.238h25.53c2.343,0,4.238-1.896,4.238-4.238s-1.896-4.238-4.238-4.238Z"/><path d="M807.754,247.381h-25.53c-2.343,0-4.238,1.896-4.238,4.238s1.896,4.238,4.238,4.238h25.53c2.343,0,4.238-1.896,4.238-4.238s-1.896-4.238-4.238-4.238Z"/><path d="M796.471,721.365h-25.53c-2.343,0-4.238,1.896-4.238,4.238s1.896,4.238,4.238,4.238h25.53c2.343,0,4.238-1.896,4.238-4.238s-1.896-4.238-4.238-4.238Z"/><path d="M403.356,721.365c-8.328,0-16.747-.447-25.033-1.333-2.194-.199-4.412,1.432-4.661,3.767-.248,2.326,1.432,4.412,3.767,4.661,8.576,.919,17.301,1.382,25.927,1.382,2.343,0,4.238-1.896,4.238-4.238s-1.896-4.238-4.238-4.238Z"/><path d="M167.088,507.664c2.334-.149,4.114-2.161,3.965-4.495-.298-4.81-.455-9.661-.447-14.553,0-3.518,.083-7.028,.232-10.497,.108-2.343-1.705-4.321-4.04-4.421-2.624-.439-4.321,1.697-4.421,4.04-.166,3.601-.248,7.227-.248,10.869-.008,5.066,.149,10.099,.464,15.091,.141,2.243,2.003,3.974,4.23,3.974,.083,0,.174,0,.265-.008Z"/><path d="M211.459,620.197c-1.316-1.937-3.974-2.409-5.894-1.093-1.929,1.325-2.417,3.965-1.093,5.894,4.884,7.103,10.215,14.023,15.853,20.588,.836,.969,2.02,1.474,3.212,1.474,.977,0,1.962-.339,2.765-1.026,1.772-1.523,1.978-4.197,.447-5.977-5.43-6.325-10.58-13.013-15.29-19.859Z"/><path d="M187.701,576.174c-.886-2.177-3.369-3.22-5.522-2.326-2.169,.877-3.212,3.353-2.326,5.522,3.228,7.947,6.962,15.853,11.076,23.485,.77,1.424,2.227,2.227,3.733,2.227,.687,0,1.374-.166,2.012-.505,2.061-1.118,2.831-3.684,1.722-5.745-3.974-7.368-7.575-14.992-10.695-22.657Z"/><path d="M209.208,360.37c4.594-6.937,9.628-13.709,14.95-20.124,1.498-1.805,1.242-4.478-.555-5.969-1.813-1.49-4.487-1.25-5.969,.555-5.513,6.647-10.729,13.667-15.497,20.853-1.291,1.954-.762,4.578,1.192,5.878,.72,.472,1.531,.704,2.343,.704,1.366,0,2.715-.662,3.535-1.896Z"/><path d="M179.514,552.49c-2.277-7.988-4.147-16.209-5.555-24.421-.397-2.318-2.657-3.858-4.892-3.469-2.31,.397-3.858,2.591-3.469,4.892,1.465,8.518,3.402,17.045,5.77,25.331,.53,1.854,2.227,3.071,4.073,3.071,.381,0,.778-.05,1.167-.166,2.243-.637,3.551-2.988,2.906-5.24Z"/><path d="M168.463,456.728c.224,.033,.439,.05,.654,.05,2.053,0,3.858-1.498,4.18-3.593,1.258-8.195,2.98-16.449,5.132-24.537,.596-2.26-.745-4.578-3.013-5.182-2.277-.613-4.578,.745-5.182,3.013-2.227,8.378-4.015,16.929-5.315,25.414-.356,2.318,1.233,4.478,3.543,4.834Z"/><path d="M1791.865,432.051c.488,1.929,2.21,3.212,4.114,3.212,.339,0,.687-.041,1.026-.124,2.277-.571,3.651-2.873,3.088-5.141-2.086-8.336-4.669-16.681-7.674-24.818-.811-2.202-3.27-3.328-5.439-2.508-2.202,.811-3.32,3.245-2.508,5.439,2.897,7.856,5.381,15.911,7.392,23.941Z"/><path d="M1796.633,456.645c1.126,8.204,1.829,16.606,2.078,24.967,.066,2.301,1.954,4.114,4.238,4.114h.124c2.343-.075,4.18-2.028,4.114-4.363-.257-8.667-.985-17.376-2.161-25.878-.315-2.326-2.541-3.94-4.777-3.618-2.318,.315-3.94,2.459-3.618,4.777Z"/><path d="M180.723,407.249c.505,.199,1.018,.29,1.531,.29,1.697,0,3.303-1.026,3.949-2.707,3.022-7.781,6.482-15.472,10.306-22.856,1.076-2.078,.257-4.636-1.821-5.712-2.061-1.068-4.636-.265-5.712,1.821-3.957,7.649-7.55,15.621-10.671,23.684-.853,2.185,.232,4.636,2.417,5.48Z"/><path d="M325.599,269.202c7.831-2.773,15.919-5.166,24.04-7.103,2.277-.546,3.684-2.831,3.137-5.108-.538-2.277-2.831-3.725-5.108-3.137-8.411,2.003-16.788,4.478-24.901,7.368-2.21,.778-3.361,3.204-2.575,5.406,.613,1.738,2.243,2.823,3.99,2.823,.472,0,.952-.075,1.416-.248Z"/><path d="M353.596,716.009c-8.113-1.78-16.242-4.023-24.156-6.672-2.21-.77-4.628,.455-5.364,2.666-.745,2.219,.447,4.628,2.666,5.364,8.204,2.757,16.631,5.083,25.05,6.921,.306,.066,.604,.099,.911,.099,1.945,0,3.7-1.349,4.131-3.336,.505-2.285-.944-4.545-3.237-5.041Z"/><path d="M374.283,257.662c8.27-1.035,16.672-1.631,24.992-1.772,2.343-.041,4.205-1.97,4.164-4.313-.05-2.343-1.97-4.553-4.313-4.164-8.618,.149-17.326,.77-25.886,1.838-2.326,.29-3.974,2.409-3.684,4.727,.265,2.144,2.094,3.717,4.197,3.717,.174,0,.356-.008,.53-.033Z"/><path d="M949.675,721.365h-25.53c-2.343,0-4.238,1.896-4.238,4.238s1.896,4.238,4.238,4.238h25.53c2.343,0,4.238-1.896,4.238-4.238s-1.896-4.238-4.238-4.238Z"/><path d="M241.153,321.843c5.952-5.795,12.301-11.341,18.874-16.49,1.838-1.449,2.161-4.106,.72-5.952-1.449-1.846-4.114-2.152-5.952-.72-6.805,5.339-13.386,11.084-19.553,17.086-1.68,1.631-1.714,4.313-.083,5.993,.828,.853,1.937,1.283,3.038,1.283,1.068,0,2.136-.397,2.955-1.2Z"/><path d="M439.002,721.365h-25.538c-2.343,0-4.238,1.896-4.238,4.238s1.896,4.238,4.238,4.238h25.538c2.343,0,4.238-1.896,4.238-4.238s-1.896-4.238-4.238-4.238Z"/><path d="M306.145,700.082c-7.583-3.502-15.041-7.442-22.152-11.714-2.003-1.176-4.603-.563-5.82,1.449-1.209,2.012-.555,4.611,1.449,5.82,7.376,4.429,15.108,8.518,22.98,12.144,.571,.265,1.176,.389,1.772,.389,1.598,0,3.137-.911,3.849-2.467,.977-2.119,.05-4.644-2.078-5.621Z"/><path d="M244.059,658.178c-1.689-1.598-4.396-1.531-5.985,.19-1.606,1.705-1.523,4.387,.19,5.985,6.316,5.935,12.988,11.565,19.843,16.747,.77,.579,1.664,.861,2.558,.861,1.283,0,2.55-.579,3.378-1.68,1.416-1.871,1.043-4.528-.82-5.935-6.614-5.008-13.063-10.447-19.164-16.167Z"/><path d="M280.549,290.966c7.061-4.404,14.445-8.477,21.945-12.103,2.111-1.018,2.988-3.551,1.97-5.662s-3.551-2.988-5.662-1.97c-7.773,3.758-15.422,7.98-22.74,12.533-1.987,1.242-2.591,3.858-1.358,5.844,.803,1.291,2.194,1.995,3.601,1.995,.77,0,1.548-.207,2.243-.637Z"/><path d="M490.062,721.365h-25.53c-2.343,0-4.238,1.896-4.238,4.238s1.896,4.238,4.238,4.238h25.53c2.343,0,4.238-1.896,4.238-4.238s-1.896-4.238-4.238-4.238Z"/><path d="M1625.274,254.74c-8.361-2.127-16.937-3.808-25.489-5.008-2.243-.29-4.454,1.291-4.785,3.609-.323,2.318,1.291,4.462,3.609,4.785,8.245,1.159,16.515,2.781,24.578,4.826,.348,.091,.704,.132,1.043,.132,1.896,0,3.618-1.275,4.106-3.195,.579-2.268-.795-4.578-3.063-5.149Z"/><path d="M1573.917,247.505c-2.608-.083-5.224-.124-7.856-.124h-17.815c-2.343,0-4.238,1.896-4.238,4.238s1.896,4.238,4.238,4.238h17.815c2.533,0,5.066,.041,7.575,.124h.141c2.277,0,4.164-1.805,4.238-4.098,.075-2.343-1.763-4.305-4.098-4.379Z"/><path d="M1612.394,716.729c-8.137,1.647-16.474,2.873-24.793,3.642-2.334,.215-4.048,2.285-3.833,4.611,.207,2.202,2.053,3.849,4.214,3.849,.132,0,.265-.008,.397-.017,8.626-.803,17.268-2.07,25.687-3.775,2.301-.464,3.783-2.699,3.32-4.992-.464-2.301-2.748-3.783-4.992-3.32Z"/><path d="M1660.059,701.531c-7.599,3.378-15.48,6.366-23.419,8.899-2.235,.712-3.469,3.096-2.757,5.331,.579,1.796,2.243,2.947,4.04,2.947,.422,0,.861-.066,1.291-.199,8.229-2.624,16.407-5.729,24.288-9.23,2.136-.952,3.104-3.452,2.152-5.596s-3.46-3.096-5.596-2.152Z"/><path d="M1522.708,247.381h-25.53c-2.343,0-4.238,1.896-4.238,4.238s1.896,4.238,4.238,4.238h25.53c2.343,0,4.238-1.896,4.238-4.238s-1.896-4.238-4.238-4.238Z"/><path d="M1562.493,721.365h-25.53c-2.343,0-4.238,1.896-4.238,4.238s1.896,4.238,4.238,4.238h25.53c2.343,0,4.238-1.896,4.238-4.238s-1.896-4.238-4.238-4.238Z"/><path d="M1460.356,721.365h-25.53c-2.343,0-4.238,1.896-4.238,4.238s1.896,4.238,4.238,4.238h25.53c2.343,0,4.238-1.896,4.238-4.238s-1.896-4.238-4.238-4.238Z"/><path d="M1511.425,721.365h-25.53c-2.343,0-4.238,1.896-4.238,4.238s1.896,4.238,4.238,4.238h25.53c2.343,0,4.238-1.896,4.238-4.238s-1.896-4.238-4.238-4.238Z"/><path d="M1673.892,272.853c-7.74-3.874-15.753-7.368-23.816-10.381-2.185-.811-4.636,.29-5.455,2.492-.82,2.194,.298,4.636,2.492,5.455,7.781,2.897,15.513,6.267,22.972,10.017,.613,.306,1.258,.447,1.904,.447,1.548,0,3.046-.853,3.791-2.334,1.043-2.094,.199-4.644-1.887-5.695Z"/><path d="M1471.64,247.381h-25.53c-2.343,0-4.238,1.896-4.238,4.238s1.896,4.238,4.238,4.238h25.53c2.343,0,4.238-1.896,4.238-4.238s-1.896-4.238-4.238-4.238Z"/><path d="M1794.199,553.02c-2.227-.662-4.603,.596-5.281,2.831-2.417,8.005-5.298,15.936-8.551,23.56-.919,2.152,.083,4.644,2.235,5.563,.546,.232,1.109,.339,1.664,.339,1.647,0,3.212-.969,3.899-2.575,3.378-7.914,6.358-16.134,8.866-24.437,.679-2.243-.588-4.603-2.831-5.281Z"/><path d="M1775.101,600.288c-2.036-1.142-4.628-.422-5.77,1.631-4.081,7.293-8.584,14.421-13.394,21.184-1.358,1.912-.911,4.553,.993,5.911,.745,.53,1.606,.786,2.459,.786,1.325,0,2.624-.621,3.452-1.78,4.992-7.02,9.661-14.404,13.891-21.962,1.142-2.045,.414-4.628-1.631-5.77Z"/><path d="M1782.105,381.33c-3.858-7.724-8.171-15.323-12.823-22.575-1.275-1.987-3.907-2.541-5.853-1.283-1.97,1.258-2.55,3.882-1.283,5.853,4.487,7.003,8.651,14.338,12.376,21.796,.745,1.482,2.243,2.343,3.791,2.343,.637,0,1.283-.141,1.896-.447,2.094-1.043,2.939-3.593,1.896-5.687Z"/><path d="M1802.676,502.771c-2.21-.339-4.371,1.556-4.545,3.899-.646,8.32-1.747,16.681-3.27,24.835-.43,2.301,1.084,4.512,3.386,4.942,.265,.05,.522,.075,.786,.075,1.995,0,3.775-1.424,4.156-3.46,1.581-8.452,2.724-17.111,3.386-25.745,.182-2.326-1.565-4.371-3.899-4.545Z"/><path d="M1736.79,318.333c-1.656-1.656-4.346-1.647-6.002-.008-1.656,1.656-1.656,4.338-.008,6.002,5.902,5.911,11.532,12.185,16.738,18.667,.836,1.043,2.07,1.581,3.303,1.581,.935,0,1.871-.306,2.657-.935,1.821-1.465,2.111-4.139,.646-5.96-5.397-6.714-11.233-13.22-17.335-19.346Z"/><path d="M1696.45,285.734c-1.954-1.283-4.594-.704-5.853,1.267-1.275,1.962-.704,4.586,1.267,5.853,6.979,4.503,13.808,9.445,20.306,14.694,.786,.637,1.73,.944,2.666,.944,1.233,0,2.459-.538,3.295-1.573,1.474-1.821,1.192-4.487-.629-5.96-6.738-5.447-13.816-10.563-21.051-15.224Z"/><path d="M1703.354,676.456c-6.714,4.917-13.767,9.536-20.977,13.709-2.02,1.176-2.715,3.767-1.54,5.795,.786,1.358,2.21,2.111,3.667,2.111,.728,0,1.457-.182,2.127-.571,7.467-4.329,14.777-9.106,21.739-14.205,1.887-1.382,2.293-4.04,.911-5.927-1.382-1.896-4.031-2.301-5.927-.911Z"/><path d="M1740.341,642.731c-5.538,6.242-11.457,12.252-17.599,17.856-1.73,1.573-1.854,4.255-.273,5.985,.836,.919,1.978,1.382,3.129,1.382,1.018,0,2.045-.364,2.856-1.109,6.366-5.803,12.5-12.028,18.229-18.502,1.556-1.747,1.391-4.429-.364-5.977-1.747-1.565-4.429-1.407-5.977,.364Z"/><path d="M1063.095,247.381h-25.53c-2.343,0-4.238,1.896-4.238,4.238s1.896,4.238,4.238,4.238h25.53c2.343,0,4.238-1.896,4.238-4.238s-1.896-4.238-4.238-4.238Z"/><path d="M1420.571,247.381h-25.53c-2.343,0-4.238,1.896-4.238,4.238s1.896,4.238,4.238,4.238h25.53c2.343,0,4.238-1.896,4.238-4.238s-1.896-4.238-4.238-4.238Z"/><path d="M1114.163,247.381h-25.53c-2.343,0-4.238,1.896-4.238,4.238s1.896,4.238,4.238,4.238h25.53c2.343,0,4.238-1.896,4.238-4.238s-1.896-4.238-4.238-4.238Z"/><path d="M1165.231,247.381h-25.53c-2.343,0-4.238,1.896-4.238,4.238s1.896,4.238,4.238,4.238h25.53c2.343,0,4.238-1.896,4.238-4.238s-1.896-4.238-4.238-4.238Z"/><path d="M1102.879,721.365h-25.53c-2.343,0-4.238,1.896-4.238,4.238s1.896,4.238,4.238,4.238h25.53c2.343,0,4.238-1.896,4.238-4.238s-1.896-4.238-4.238-4.238Z"/><path d="M1051.811,721.365h-25.53c-2.343,0-4.238,1.896-4.238,4.238s1.896,4.238,4.238,4.238h25.53c2.343,0,4.238-1.896,4.238-4.238s-1.896-4.238-4.238-4.238Z"/><path d="M1000.743,721.365h-25.53c-2.343,0-4.238,1.896-4.238,4.238s1.896,4.238,4.238,4.238h25.53c2.343,0,4.238-1.896,4.238-4.238s-1.896-4.238-4.238-4.238Z"/><path d="M960.958,247.381h-25.53c-2.343,0-4.238,1.896-4.238,4.238s1.896,4.238,4.238,4.238h25.53c2.343,0,4.238-1.896,4.238-4.238s-1.896-4.238-4.238-4.238Z"/><path d="M1012.026,247.381h-25.53c-2.343,0-4.238,1.896-4.238,4.238s1.896,4.238,4.238,4.238h25.53c2.343,0,4.238-1.896,4.238-4.238s-1.896-4.238-4.238-4.238Z"/><path d="M1205.016,721.365h-25.53c-2.343,0-4.238,1.896-4.238,4.238s1.896,4.238,4.238,4.238h25.53c2.343,0,4.238-1.896,4.238-4.238s-1.896-4.238-4.238-4.238Z"/><path d="M1153.948,721.365h-25.53c-2.343,0-4.238,1.896-4.238,4.238s1.896,4.238,4.238,4.238h25.53c2.343,0,4.238-1.896,4.238-4.238s-1.896-4.238-4.238-4.238Z"/><path d="M1358.22,721.365h-25.53c-2.343,0-4.238,1.896-4.238,4.238s1.896,4.238,4.238,4.238h25.53c2.343,0,4.238-1.896,4.238-4.238s-1.896-4.238-4.238-4.238Z"/><path d="M1369.503,247.381h-25.53c-2.343,0-4.238,1.896-4.238,4.238s1.896,4.238,4.238,4.238h25.53c2.343,0,4.238-1.896,4.238-4.238s-1.896-4.238-4.238-4.238Z"/><path d="M1409.288,721.365h-25.53c-2.343,0-4.238,1.896-4.238,4.238s1.896,4.238,4.238,4.238h25.53c2.343,0,4.238-1.896,4.238-4.238s-1.896-4.238-4.238-4.238Z"/><path d="M1216.299,247.381h-25.53c-2.343,0-4.238,1.896-4.238,4.238s1.896,4.238,4.238,4.238h25.53c2.343,0,4.238-1.896,4.238-4.238s-1.896-4.238-4.238-4.238Z"/><path d="M1318.435,247.381h-25.53c-2.343,0-4.238,1.896-4.238,4.238s1.896,4.238,4.238,4.238h25.53c2.343,0,4.238-1.896,4.238-4.238s-1.896-4.238-4.238-4.238Z"/><path d="M1256.084,721.365h-25.53c-2.343,0-4.238,1.896-4.238,4.238s1.896,4.238,4.238,4.238h25.53c2.343,0,4.238-1.896,4.238-4.238s-1.896-4.238-4.238-4.238Z"/><path d="M1307.152,721.365h-25.53c-2.343,0-4.238,1.896-4.238,4.238s1.896,4.238,4.238,4.238h25.53c2.343,0,4.238-1.896,4.238-4.238s-1.896-4.238-4.238-4.238Z"/><path d="M1267.367,247.381h-25.53c-2.343,0-4.238,1.896-4.238,4.238s1.896,4.238,4.238,4.238h25.53c2.343,0,4.238-1.896,4.238-4.238s-1.896-4.238-4.238-4.238Z"/></g><g><g><g><g id="change2_3"><path d="M315.843,245.886c11.105-26.872,12.292-56.711,3.392-84.514-20.769-64.001-89.856-99.265-153.941-78.496-64.085,20.769-99.264,89.855-78.496,153.94,8.986,27.72,27.465,51.116,52.219,66.373,8.815,25.007,30.94,41.876,55.776,45.266l16.277,50.183c8.815,27.21,38.146,42.13,65.356,33.315l3.729-1.273c27.21-8.815,42.13-37.976,33.313-65.187l-16.275-50.267c18.141-17.378,26.109-43.911,18.649-69.341Zm-108.165-5.34c15.004,7.714,31.535,2.968,45.097-5.849l5.086,84.938-30.517,10.002-44.164-76.377c8.647-3.221,17.039-7.205,24.497-12.715Zm-5.085-11.952c-2.034-2.374-2.628-4.408-1.611-5.765,.763-1.781,3.73-3.052,6.018-2.882,7.12,2.797,5.934,7.543,.763,12.8-1.78-1.188-3.475-2.543-5.17-4.154Zm98.585,20.004c9.241,28.483-6.442,59.085-34.84,68.324l-1.187,.424-5.339-87.906c3.475-2.881,6.611-5.933,9.408-9.07-2.966,2.289-6.188,4.493-9.493,6.612l-.594-8.054c-.085-2.119-1.78-3.644-3.899-3.475-2.034,.085-3.476,1.865-3.391,3.899l.678,11.613c-12.63,6.358-26.786,9.664-39.078,4.831,.255-.169,.423-.338,.678-.593,14.496-14.495-7.289-32.381-19.496-16.106-4.154,7.291,1.357,14.157,7.545,18.395-5.933,4.493-13.649,8.985-20.768,12.8l-3.9-6.697c-1.017-1.78-3.306-2.373-5.001-1.357-1.78,1.018-2.374,3.307-1.357,5.002l3.73,6.527c-5.426,2.797-9.833,4.831-11.614,5.764,4.154-1.186,8.477-2.459,12.8-3.814l44.08,76.122c-28.312,8.816-58.491-6.697-67.646-35.009l-1.186-3.561-2.459-1.44c-22.802-13.309-39.841-34.417-47.978-59.593-18.311-56.371,12.63-117.066,69.001-135.29,56.371-18.31,116.981,12.715,135.29,69.001,8.138,25.177,6.697,52.387-3.984,76.546l-1.101,2.628,1.101,3.475Z"/></g><g fill="#ffbf0d"><g id="change3_1"><path d="M207.732,232.711c-1.742-1.19-3.483-2.508-5.12-4.135-2.046-2.322-2.678-4.381-1.644-5.789,.753-1.718,3.714-2.99,6.051-2.798,7.08,2.782,5.876,7.479,.712,12.722Z"/></g><g id="change3_2"><path d="M252.742,234.694l5.129,84.95-30.521,9.956-44.202-76.344c8.675-3.197,17.096-7.167,24.496-12.682,15.074,7.676,31.593,2.974,45.098-5.88Z"/><path d="M305.175,165.97c8.131,25.143,6.719,52.374-3.955,76.556l-1.168,2.564,1.166,3.526c9.195,28.463-6.442,59.071-34.88,68.318l-1.21,.405-5.295-87.88c3.457-2.862,6.606-5.956,9.422-9.078-2.966,2.299-6.188,4.468-9.564,6.585l-.528-8.071c-.119-2.056-1.833-3.58-3.889-3.461-2.057,.119-3.555,1.884-3.462,3.89l.691,11.644c-12.569,6.34-26.743,9.691-39.029,4.803,.233-.178,.413-.332,.62-.562,14.559-14.502-7.302-32.411-19.506-16.125-4.145,7.304,1.372,14.191,7.546,18.382-5.906,4.521-13.61,9.033-20.694,12.855l-3.901-6.725c-1.02-1.804-3.33-2.329-5.03-1.36-1.804,1.02-2.406,3.304-1.36,5.031l3.722,6.492c-5.41,2.802-9.839,4.862-11.642,5.753,4.22-1.187,8.466-2.453,12.789-3.82l44.125,76.189c-28.281,8.785-58.53-6.773-67.675-35.005l-1.19-3.577-2.435-1.425c-22.807-13.34-39.849-34.465-48.005-59.659-18.29-56.334,12.674-117.012,69.034-135.251,56.335-18.29,117.013,12.674,135.303,69.008Z"/></g></g><g id="change4_1"><path d="M252.765,338.246l-40.772,11.941s12.377,50.591,25.092,62.765c12.715,12.174,33.547,5.411,33.547,5.411,0,0-37.334,11.092-47.894-66.255l30.027-13.862Z" fill="#ffffff"/></g></g><g id="change2_1"><path d="M244.351,.085c-4.723-.662-9.075,2.635-9.723,7.348l-6.841,49.16c-.659,4.716,2.634,9.07,7.348,9.723,1.288,.18,2.549,.062,3.713-.295,3.1-.952,5.537-3.626,6.01-7.053l6.841-49.16c.659-4.716-2.634-9.07-7.348-9.723Z"/><path d="M337.001,39.908c-3.695-2.991-9.14-2.411-12.114,1.303l-31.143,38.646c-2.988,3.706-2.409,9.128,1.303,12.114,2.311,1.867,5.298,2.341,7.942,1.528,1.588-.488,3.057-1.438,4.172-2.831l31.143-38.646c2.988-3.706,2.409-9.128-1.303-12.114Z"/><path d="M382.336,112.775l-47.448,14.575c-4.548,1.397-7.105,6.221-5.708,10.77,1.397,4.548,6.221,7.105,10.77,5.708l47.448-14.575c4.548-1.397,7.105-6.221,5.708-10.77-1.397-4.548-6.221-7.105-10.77-5.708Z"/><path d="M144.172,7.66c-4.548,1.397-7.105,6.221-5.708,10.77l14.575,47.448c1.397,4.548,6.221,7.105,10.77,5.708,4.548-1.397,7.105-6.221,5.708-10.77l-14.575-47.448c-1.397-4.548-6.221-7.105-10.77-5.708Z"/><path d="M69.183,58.254c-3.193-3.533-8.64-3.82-12.172-.622-3.533,3.193-3.815,8.638-.622,12.172l33.264,36.841c2.321,2.568,5.833,3.415,8.933,2.462,1.164-.358,2.274-.968,3.238-1.84,3.533-3.193,3.815-8.638,.622-12.172l-33.264-36.841Z"/><path d="M60.923,151.37l-47.473-14.496c-4.559-1.388-9.371,1.176-10.76,5.73-1.389,4.553,1.175,9.366,5.73,10.76l47.473,14.496c1.709,.52,3.453,.483,5.041-.005,2.644-.812,4.85-2.881,5.72-5.725,1.389-4.553-1.175-9.366-5.73-10.76Z"/><path d="M53.532,213.777l-47.442,14.573c-4.548,1.397-7.105,6.221-5.708,10.77,1.397,4.548,6.221,7.105,10.77,5.708l47.442-14.573c4.548-1.397,7.105-6.221,5.708-10.77-1.397-4.548-6.221-7.105-10.77-5.708Z"/></g></g><g id="change4_2"><path d="M126.162,141.242s-42.549,54.108-7.4,96.672c0,0-10.175-53.747,7.4-96.672Z" fill="#ffffff"/></g></g></svg>