<?xml version="1.0" encoding="UTF-8" standalone="no"?><svg xmlns="http://www.w3.org/2000/svg" xmlns:xlink="http://www.w3.org/1999/xlink" fill="#ffffff" height="348" preserveAspectRatio="xMidYMid meet" version="1" viewBox="0.0 0.0 331.3 348.0" width="331.3" zoomAndPan="magnify"><g id="change1_1"><path d="M 165.660156 86.0625 C 129.0625 86.0625 99.394531 117.222656 99.394531 155.660156 C 99.394531 194.101562 129.0625 225.261719 165.660156 225.261719 C 202.257812 225.261719 231.921875 194.101562 231.921875 155.660156 C 231.921875 117.222656 202.257812 86.0625 165.660156 86.0625"/><path d="M 275.710938 294.121094 C 261.035156 258.296875 230.226562 235.890625 165.558594 235.890625 C 100.976562 235.890625 70.167969 258.238281 55.46875 293.980469 C 25.554688 263.660156 6.945312 221.113281 6.945312 174 C 6.945312 81.929688 78.003906 7.292969 165.660156 7.292969 C 253.316406 7.292969 324.375 81.929688 324.375 174 C 324.375 221.1875 305.707031 263.792969 275.710938 294.121094 Z M 165.660156 0 C 74.167969 0 0 77.902344 0 174 C 0 224.261719 20.289062 269.546875 52.738281 301.3125 C 82.324219 330.277344 122.019531 348 165.660156 348 C 209.222656 348 248.859375 330.335938 278.433594 301.457031 C 310.964844 269.6875 331.320312 224.339844 331.320312 174 C 331.320312 77.902344 257.148438 0 165.660156 0"/></g></svg>