<?xml version="1.0" encoding="UTF-8"?><svg xmlns="http://www.w3.org/2000/svg" xmlns:xlink="http://www.w3.org/1999/xlink" height="252.0" preserveAspectRatio="xMidYMid meet" version="1.0" viewBox="-1.3 -2.2 366.0 252.0" width="366.0" zoomAndPan="magnify"><g><g><g><g><g id="change1_1"><path d="M274.01,33.92c-2.17,12.79-5.84,26.2-12,37.71-2.7,5.03-5.93,7.13-10.71,10.45-14.26,9.91-27.17,21.27-41.94,30.63-27.79,17.62-55.55,26.64-87.94,31.17-24.86,3.49-52.25,12.67-77.3,8.23-12.28-2.18-25.99-10.23-34.24-19.63C.63,121.95-1.31,104.41,.75,90.97c.5-3.28,1.07-5.96,2.21-8.47,.8-1.78,1.89-3.47,3.43-5.25,1.1-1.26,1.84-2.22,2.35-3.06,1.32-2.14,1.23-3.54,2.35-7.44,1.76-6.11,4.07-5.08,8.66-5.62,.64-.08,1.21-.18,1.71-.3,4.63-1.17,3.95-4.36,8.47-6.28,2.18-.93,7.92,1.14,10.38,1.38,4.46,.45,9.24,.75,13.85,.34,18.01-1.62,37.58-7.9,54.34-14.46,15.84-6.2,30.59-13.36,47.44-16.6,6.1-1.18,12.02-1.99,18.28-1.68,3.64,.19,4.83,3.46,7.89,4.16,3.62,.83,7.37-1.03,10.43-2.77,7.32-4.15,12.52-11.16,19.28-16.04,10.05-7.26,18.24-10.21,30.57-8.35,6.33,.96,12.81,3.02,19.02,5.34,.37,.14,.74,.28,1.1,.42,2.3,.87,4.56,1.77,6.75,2.66,.99,.4,1.98,.8,2.95,1.19,.7,.28,1.31,.62,1.83,1,1.17,.86,1.93,1.95,2.39,3.21,1.94,5.27-1.4,13.48-2.43,19.56Z" fill="#e0a198"/></g><g id="change2_1"><path d="M276.44,14.36c-2.5,3.48-6.01,6.4-9.7,9.18-8.68,6.54-17.3,12.05-25.56,19-23.18,19.51-53.79,31.8-80.82,45.52-30.64,15.55-67.12,28.93-101.76,27.36-16.81-.76-29.44-4.03-41.59-15.67-4.17-3.99-10.37-10.47-14.06-17.24,.8-1.78,1.89-3.47,3.43-5.25,1.1-1.26,1.84-2.22,2.35-3.06,1.32-2.14,1.23-3.54,2.35-7.44,1.76-6.11,4.07-5.08,8.66-5.62,.64-.08,1.21-.18,1.71-.3,4.63-1.17,3.95-4.36,8.47-6.28,2.18-.93,7.92,1.14,10.38,1.38,4.46,.45,9.24,.75,13.85,.34,18.01-1.62,37.58-7.9,54.34-14.46,15.84-6.2,30.59-13.36,47.44-16.6,6.1-1.18,12.02-1.99,18.28-1.68,3.64,.19,4.83,3.46,7.89,4.16,3.62,.83,7.37-1.03,10.43-2.77,7.32-4.15,12.52-11.16,19.28-16.04,10.05-7.26,18.24-10.21,30.57-8.35,6.33,.96,12.81,3.02,19.02,5.34,.37,.14,.74,.28,1.1,.42,2.3,.87,4.56,1.77,6.75,2.66,.99,.4,1.98,.8,2.95,1.19,.7,.28,1.31,.62,1.83,1,1.17,.86,1.93,1.95,2.39,3.21Z" fill="#f07c73"/></g><g id="change3_1"><path d="M274.04,11.15c-1,3.6-4.61,7.04-6.86,9.11-3.23,2.97-6.69,5.02-10.17,7.61-10.38,7.73-21.82,14.76-32.73,21.78-20.38,13.12-41.46,23.76-64.06,32.7-16.44,6.5-33.19,13.47-50.38,17.82-9.46,2.39-19,6.2-28.75,7.29-17.64,1.96-40.79,7.03-55.38-4.41-6.48-5.09-10.2-12.19-14.49-18.87-1.31-2.05-2.28-5.92-2.49-9.98,1.32-2.14,1.23-3.54,2.35-7.44,1.76-6.11,4.07-5.08,8.66-5.62,.64-.08,1.21-.18,1.71-.3,5.43,1.69,11.6,5.26,15.81,5.84,3.5,.49,9.32-.04,12.47,2.32,.34,.26,.65,.54,.92,.86,2.58,3.09-.96,10.78-2.98,13.29,9.48,11.72,22.9,10.31,36.14,9.29,16.41-1.27,32.38-5.54,47.79-11.16,18.71-6.81,36.19-15.89,53.7-25.09,15.43-8.11,31.9-14.47,46.46-24.11,1.75-1.16,3.48-2.37,5.17-3.63,8.76-6.55,14.66-16.55,24.11-22.35,.12-.07,.24-.15,.36-.22,.37,.14,.74,.28,1.1,.42,2.3,.87,4.56,1.77,6.75,2.66,.99,.4,1.98,.8,2.95,1.19,.7,.28,1.31,.62,1.83,1Z" fill="#f8c6d5"/></g><g id="change2_2"><path d="M262.52,6.3c2.3,.87,4.56,1.77,6.75,2.66-.84,.49-1.67,1.03-2.41,1.72-2.41,2.24-4.46,6.44-6.66,9.3-5.04,6.5-13.51,10.26-20.1,15.22-18.73,14.09-40.35,21.71-60.53,33.43-21.43,12.45-46.27,20.12-69.88,28.35-17.51,6.11-40.63,8.63-58.55,6.98-5.3-.49-9.91,.43-13.09-3.97-2.19-3.03-2.66-8.36-4.58-11.89-1.07-1.96-5.03-2.76-3.06-5.76,1.15-1.76,4.64-1.12,6.25-.45,4.78,2,5.1,8.05,7.99,11.49,2.78,3.31,7.13,5.08,11.49,5.56,6.99,.76,12.82-1.31,19.34-2.57,19.21-3.7,38.53-7.35,57.96-11.89,18.33-4.29,37.66-14.8,54.17-23.28,8.23-4.22,16.67-8.44,24.92-12.78,7.23-3.81,12.78-9.7,20-13.53,8.56-4.54,16.35-10.06,21.56-18.13,1.82-2.81,4.86-7.16,8.43-10.46Z" fill="#f07c73"/></g><g id="change2_3"><path d="M17.8,86.76c1.16,4.11,7.32,9.85,11.39,10.5,1.62-5.17-3.55-9.37-4.7-14.15-.65-2.71-1.43-19.05-8.09-14.77-2.73,1.75,.66,15.8,1.4,18.42Z" fill="#f07c73"/></g><g id="change4_1"><path d="M62.22,87.98c-5.95-1.91-5.47-10.9-4.54-16.76,1.01-6.38,4.25-6.18,10.63-4.42,3.97,1.1,6.59,5.4,10.32,6.6,8.25,2.66,13.51-5.41,21.24-4.2,.14,2.34,.04,4.78,.18,7.12,19.03-2.32,36.76-12.77,54.56-19.52,8.64-3.27,16.27-9.86,25.09-13.25,5.1-1.96,22.9-11.94,28.01-9.15,7.54,4.12-15.41,14.41-18.29,15.7-13.48,6.09-26.05,13.45-40.01,19.16-21.22,8.68-47.79,20.81-70.76,21.02-4.91,.04-11.88-.84-16.43-2.3Z" fill="#d85756"/></g><g id="change4_2"><path d="M102.24,49.02c9.25-3.22,18.84-6.35,27.68-9.6,6.45-2.38,13.3-5.78,19.98-6.81,2.59-.4,9.25-1.33,8.04,3.19-.45,1.69-7.84,4.7-9.37,5.92,2.06,3.9,3.32,6.2,7.98,3.59,2.15-1.2-.62,4.47-.73,4.62-1.2,1.65-2.96,2.13-4.7,2.83-5.01,2.01-11.34,1.15-16.48,.38-8.33-1.25-14.01,1.21-21.43,4.34-9.1,3.84-18.78,5.29-28.48,6.75-6.64,1-11.95,.51-17.8-1.68-5.75-2.15-12.36-3.19-18.5-.09,8.53-7.24,19.06-2.06,28.43-3.65,8.92-1.52,16.92-6.85,25.38-9.8Z" fill="#d85756"/></g><g id="change4_3"><path d="M184.56,35.63c-3.59,1.84-20.01,14.32-21.16,4.15-.74-6.53,14.12-7.52,18.69-8.45,9.56-1.95,16.3-6.43,24.35-12.29,7.02-5.12,14.46-10.86,22.53-14,5.24-2.04,23.89-7.24,22.54,1.98-1.1,7.49-12.43,14.57-18.26,17.8-9.4,5.22-14.59,6.52-24.48,5.46-8.51-.91-16.82,1.56-24.21,5.34Z" fill="#d85756"/></g><g id="change3_2"><path d="M161.66,33.03c-3.06,.49-5.55,4.11-6.91,6.67-.61,1.15-.45,2.44,.44,3.39,1.19,1.27,2.76,2.73,1.7,4.38-1.15,1.79-3.72,2.87-5.59,3.66-2.45,1.03-4.97,1.7-7.57,2.22-.57,.11-1.14,.22-1.71,.32-.26,.05-.53,.09-.79,.14,.77,.27,.92,.31,.47,.12-1.24-.53-2.43-.57-3.76-.68-3.16-.28-6.68,.59-9.82,.96-3.75,.44-7.49,.95-11.16,1.84-3.52,.85-6.99,2.12-10.17,3.87-3.42,1.88-7.94,5.18-6.91,9.6,.33-1.25,.66-2.51,.99-3.76,.13-.09,.25-.17,.38-.26l4.2,.54c-2.75-2.45-5.42-2.8-8.94-2.21-.52,.09-1.02,.55-1.53,.6-1.09,.12-2.18,.3-3.28,.44-1.91,.24-3.78,.66-5.65,1.09-2.11,.49-3.94,1.09-6.15,1.08-2.09-.01-3.93-.7-5.85-1.42-2.77-1.04-5.89-3.68-8.98-2.69-.63,.2-.67,.95-.17,1.31,1.25,.9,2.72,1.24,4.09,1.91,1.35,.66,2.6,1.49,3.89,2.25,2.68,1.6,5.72,1.89,8.78,1.7,3.3-.2,6.39-.77,9.64-1.34,2.71-.48,6.14-.96,8.4,1.08,.59,.53,.85,1.17,1.56,1.63-1.24-.81,1.23,.71,1.33,.74,1.9,.52,3.51-.33,4.94-1.5,1.82-1.49,3.31-2.87,5.43-3.98,4.73-2.48,10.39-3.42,15.59-4.45,4.04-.8,10.45-.92,13.5-4.13,.33-.35,.68-.39-.04-.16,.37-.12,.76-.2,1.14-.3,.86-.23,1.71-.47,2.57-.72,2.06-.61,4.14-1.24,6.17-1.95,3.35-1.18,6.77-2.78,8.93-5.7,2.53-3.42,1.04-7.51-1.65-10.21l.44,3.39c1.21-2.46,2.54-4.91,3.69-7.38,.56-1.2-.34-2.32-1.62-2.11h0Z" fill="#f8c6d5"/></g><g id="change3_3"><path d="M157.96,50.55c.25-.18,.62-.2,.91-.39,.42-.27,.86-.5,1.27-.79,.91-.63,2.03-1.07,2.73-1.96,.13-.17,.11-.46-.14-.52-1.15-.27-2.19,.45-3.12,1.02-.5,.31-.93,.68-1.37,1.06-.18,.16-.43,.34-.55,.55-.11,.19-.08,.35-.22,.53-.22,.29,.21,.69,.49,.49h0Z" fill="#f8c6d5"/></g><g id="change3_4"><path d="M171.2,43.59c1.15-.8,2.33-1.53,3.56-2.19,1.61-.86,3.36-1.14,5.04-1.75,.38-.14,.35-.8-.1-.75-3.1,.3-6.19,2.75-8.56,4.61-.04,.03,.01,.11,.06,.08h0Z" fill="#f8c6d5"/></g><g id="change3_5"><path d="M159.24,48.79c1.43,1.67,4.25,.59,5.96,0,3.11-1.09,6.01-2.81,8.83-4.51,6.82-4.11,14.21-7.35,22.01-9.05,4.13-.91,8.37-1.15,12.59-.98,2.2,.09,4.42,.36,6.54,.96,1.9,.53,3.37,1.08,5.39,1.18,3.77,.19,6.89-.62,10.47-1.57,1.64-.43,3.39-.88,4.72-1.98,1.56-1.28,3.53-1.75,4.96-3.15,.62-.6,.2-1.89-.75-1.8-1.74,.17-3.2,1.28-4.95,1.27-1.85-.01-3.5,.54-5.28,.94-3.32,.75-7.33,.57-10.74,.58-1.69,0-3.27,.54-4.97,.45-2.1-.12-4.17-.54-6.28-.62-3.97-.16-7.94,.24-11.83,.96-7.31,1.33-15.02,4.32-21.02,8.73-2.55,1.87-5.33,3.5-8.14,4.95-1.51,.78-3.08,1.4-4.73,1.82-1.03,.26-1.95,.39-2.78,1.09-.23,.2-.17,.54,0,.75h0Z" fill="#f8c6d5"/></g><g id="change3_6"><path d="M67.56,64.04c-1.91-1.45-3-2.23-5.5-2.45-2.36-.21-4.75,.55-6.88,1.5-2.47,1.1-5.02,2.15-7.4,3.44-2.33,1.26-5.8,2.7-6.44,5.51-.33,1.44,.42,2.92,1.89,3.33,4.09,1.14,8.66-4.08,11.36-6.62,2.74-2.57,8.66-3.98,12.24-3.01,1.09,.3,1.52-1.1,.72-1.71h0Z" fill="#f8c6d5"/></g></g><g><g id="change1_2"><path d="M359.21,95.24c-2.74,16.11-7.35,33.02-15.13,47.52-3.4,6.34-7.47,8.98-13.5,13.17-17.97,12.48-34.24,26.8-52.85,38.6-35.01,22.2-70,33.57-110.81,39.28-31.33,4.39-65.84,15.97-97.41,10.38-15.47-2.75-32.75-12.89-43.14-24.74-11.65-13.28-14.09-35.39-11.5-52.33,.63-4.14,1.34-7.51,2.78-10.67,1.01-2.24,2.38-4.38,4.33-6.61,1.39-1.59,2.32-2.79,2.97-3.85,1.66-2.7,1.55-4.46,2.97-9.38,2.21-7.7,5.13-6.4,10.91-7.08,.81-.1,1.52-.23,2.15-.38,5.83-1.48,4.98-5.49,10.68-7.92,2.75-1.17,9.98,1.43,13.08,1.74,5.63,.56,11.64,.95,17.45,.43,22.69-2.05,47.35-9.96,68.48-18.22,19.96-7.81,38.55-16.83,59.78-20.92,7.69-1.48,15.14-2.51,23.04-2.11,4.59,.24,6.08,4.36,9.95,5.25,4.56,1.05,9.29-1.3,13.14-3.49,9.23-5.23,15.78-14.06,24.3-20.21,12.67-9.14,22.98-12.87,38.52-10.52,7.97,1.21,16.14,3.81,23.97,6.73,.47,.17,.93,.35,1.39,.53,2.9,1.1,5.74,2.23,8.5,3.35,1.25,.5,2.5,1.01,3.71,1.5,.88,.35,1.65,.78,2.31,1.26,1.47,1.08,2.43,2.45,3.02,4.04,2.44,6.64-1.76,16.99-3.06,24.64Z" fill="#e0a198"/></g><g id="change2_4"><path d="M362.27,70.6c-3.14,4.38-7.57,8.06-12.23,11.56-10.93,8.24-21.8,15.19-32.21,23.95-29.2,24.58-67.78,40.07-101.84,57.36-38.61,19.59-84.59,36.46-128.23,34.47-21.18-.96-37.1-5.08-52.41-19.75-5.25-5.03-13.07-13.19-17.72-21.73,1.01-2.24,2.38-4.38,4.33-6.61,1.39-1.59,2.32-2.79,2.97-3.85,1.66-2.7,1.55-4.46,2.97-9.38,2.21-7.7,5.13-6.4,10.91-7.08,.81-.1,1.52-.23,2.15-.38,5.83-1.48,4.98-5.49,10.68-7.92,2.75-1.17,9.98,1.43,13.08,1.74,5.63,.56,11.64,.95,17.45,.43,22.69-2.05,47.35-9.96,68.48-18.22,19.96-7.81,38.55-16.83,59.78-20.92,7.69-1.48,15.14-2.51,23.04-2.11,4.59,.24,6.08,4.36,9.95,5.25,4.56,1.05,9.29-1.3,13.14-3.49,9.23-5.23,15.78-14.06,24.3-20.21,12.67-9.14,22.98-12.87,38.52-10.52,7.97,1.21,16.14,3.81,23.97,6.73,.47,.17,.93,.35,1.39,.53,2.9,1.1,5.74,2.23,8.5,3.35,1.25,.5,2.5,1.01,3.71,1.5,.88,.35,1.65,.78,2.31,1.26,1.47,1.08,2.43,2.45,3.02,4.04Z" fill="#f07c73"/></g><g id="change3_7"><path d="M359.26,66.55c-1.26,4.54-5.8,8.87-8.65,11.48-4.07,3.74-8.43,6.32-12.81,9.59-13.08,9.75-27.5,18.6-41.25,27.44-25.69,16.53-52.24,29.94-80.72,41.21-20.72,8.2-41.82,16.97-63.49,22.45-11.91,3.01-23.95,7.82-36.23,9.18-22.23,2.47-51.4,8.86-69.78-5.56-8.17-6.41-12.86-15.36-18.26-23.78-1.66-2.59-2.88-7.47-3.13-12.57,1.66-2.7,1.55-4.46,2.97-9.38,2.21-7.7,5.13-6.4,10.91-7.08,.81-.1,1.52-.23,2.15-.38,6.85,2.13,14.62,6.63,19.92,7.36,4.41,.61,11.74-.05,15.72,2.93,.42,.32,.81,.68,1.16,1.09,3.25,3.9-1.21,13.59-3.75,16.75,11.95,14.76,28.85,12.99,45.54,11.71,20.67-1.6,40.8-6.99,60.22-14.06,23.57-8.58,45.6-20.02,67.66-31.61,19.44-10.22,40.2-18.23,58.55-30.39,2.21-1.46,4.39-2.98,6.52-4.58,11.04-8.25,18.48-20.85,30.39-28.16,.15-.09,.3-.18,.46-.28,.47,.17,.93,.35,1.39,.53,2.9,1.1,5.74,2.23,8.5,3.35,1.25,.5,2.5,1.01,3.71,1.5,.88,.35,1.65,.78,2.31,1.26Z" fill="#f8c6d5"/></g><g id="change2_5"><path d="M344.73,60.44c2.9,1.1,5.74,2.23,8.5,3.35-1.05,.61-2.1,1.29-3.04,2.16-3.04,2.82-5.62,8.12-8.4,11.72-6.35,8.2-17.02,12.93-25.33,19.18-23.6,17.75-50.85,27.35-76.28,42.13-27.01,15.69-58.31,25.35-88.05,35.73-22.06,7.7-51.2,10.88-73.79,8.8-6.67-.61-12.49,.55-16.49-5-2.76-3.81-3.35-10.53-5.77-14.98-1.34-2.46-6.34-3.48-3.85-7.26,1.45-2.22,5.85-1.41,7.88-.56,6.02,2.52,6.43,10.14,10.07,14.48,3.5,4.17,8.99,6.4,14.48,7,8.81,.96,16.15-1.66,24.37-3.24,24.21-4.66,48.55-9.26,73.04-14.98,23.1-5.4,47.46-18.65,68.26-29.34,10.37-5.32,21.01-10.63,31.41-16.1,9.11-4.8,16.11-12.23,25.2-17.04,10.79-5.72,20.6-12.67,27.17-22.84,2.29-3.54,6.12-9.02,10.62-13.18Z" fill="#f07c73"/></g><g id="change2_6"><path d="M36.36,161.83c1.46,5.18,9.22,12.41,14.36,13.24,2.04-6.52-4.47-11.81-5.92-17.84-.82-3.41-1.8-24-10.2-18.62-3.44,2.2,.83,19.91,1.76,23.22Z" fill="#f07c73"/></g><g id="change4_4"><path d="M92.33,163.36c-7.5-2.4-6.89-13.74-5.72-21.12,1.27-8.04,5.35-7.79,13.39-5.57,5,1.38,8.31,6.81,13,8.32,10.39,3.35,17.02-6.82,26.77-5.29,.18,2.95,.06,6.02,.23,8.97,23.98-2.92,46.32-16.1,68.75-24.6,10.88-4.12,20.5-12.43,31.62-16.7,6.43-2.47,28.86-15.05,35.3-11.53,9.5,5.2-19.42,18.15-23.05,19.79-16.99,7.68-32.83,16.95-50.42,24.14-26.74,10.93-60.22,26.23-89.16,26.49-6.19,.06-14.97-1.06-20.71-2.9Z" fill="#d85756"/></g><g id="change4_5"><path d="M142.76,114.27c11.65-4.06,23.74-8,34.88-12.1,8.13-3,16.76-7.29,25.18-8.59,3.26-.5,11.65-1.67,10.14,4.02-.57,2.13-9.88,5.92-11.8,7.46,2.59,4.92,4.18,7.81,10.06,4.53,2.71-1.51-.79,5.64-.92,5.83-1.51,2.08-3.73,2.69-5.92,3.57-6.31,2.54-14.29,1.45-20.76,.48-10.5-1.58-17.65,1.52-27.01,5.47-11.47,4.83-23.67,6.66-35.89,8.51-8.37,1.26-15.06,.64-22.43-2.11-7.25-2.71-15.57-4.02-23.32-.12,10.75-9.13,24.02-2.59,35.83-4.6,11.24-1.91,21.32-8.64,31.98-12.35Z" fill="#d85756"/></g><g id="change4_6"><path d="M246.5,97.4c-4.52,2.31-25.22,18.04-26.66,5.24-.93-8.23,17.8-9.47,23.55-10.64,12.04-2.46,20.54-8.1,30.68-15.49,8.85-6.45,18.22-13.68,28.4-17.64,6.6-2.57,30.11-9.12,28.4,2.49-1.39,9.44-15.67,18.35-23.01,22.43-11.85,6.58-18.38,8.21-30.85,6.88-10.72-1.14-21.2,1.97-30.51,6.73Z" fill="#d85756"/></g><g id="change3_8"><path d="M217.74,94.48c-3.69,.95-6.5,5.22-8.17,8.41-.6,1.15-.46,2.44,.44,3.39,1.44,1.52,3.58,3.75,2.39,5.87-1.31,2.34-4.26,3.7-6.58,4.77-3.02,1.4-6.21,2.33-9.45,3.05-1.42,.31-2.84,.59-4.27,.85-.57,.1-2.31-.3-3.4-.31-4.01-.05-8.05,.7-12.03,1.19-4.63,.57-9.26,1.17-13.81,2.21-4.42,1.01-8.74,2.49-12.78,4.55-3.81,1.95-9.51,5.55-9.47,10.35l1.13-2.73c-.11,.08-.21,.17-.29,.28,.82-.34,1.64-.68,2.46-1.02h-.2c.82,.35,1.63,.69,2.45,1.03-3.15-3.01-6.64-3.48-10.8-2.75-.82,.15-1.48,.54-2.33,.65-1.27,.16-2.54,.33-3.8,.51-2.52,.36-5,.93-7.48,1.49-2.32,.52-4.37,1.12-6.78,1.14-2.64,.01-4.95-.72-7.39-1.64-3.68-1.39-7.5-4.67-11.62-3.78-.62,.13-.69,1.02-.17,1.31,1.75,1,3.65,1.49,5.46,2.39,1.99,.99,3.82,2.24,5.79,3.26,4.04,2.1,8.51,1.46,12.85,1.28,4.63-.2,9.28-1.65,13.9-2.22,1.59-.2,3.78,.46,5.2,1.15,1.97,.96,2.45,2.98,4.92,3.13-.82-.34-1.64-.68-2.46-1.02,4.06,4.31,8.72-2.41,12.06-4.48,3.95-2.45,8.49-3.77,12.97-4.87,4.78-1.17,9.62-2.05,14.45-2.92,4.03-.73,8.46-1.35,11.77-3.97,.46-.36,2.8-.7,3.82-.98,1.72-.48,3.41-1.04,5.13-1.54,3.42-.99,6.84-2.25,9.9-4.08,2.5-1.5,4.8-3.57,5.6-6.47,1.08-3.88-.48-6.92-3.2-9.65,.15,1.13,.29,2.26,.44,3.39,1.56-3.15,3.12-6.14,4.96-9.13,.68-1.1-.43-2.42-1.62-2.11h0Z" fill="#f8c6d5"/></g><g id="change3_9"><path d="M212.93,116.12c.29-.22,.39-.06,.69-.27,.56-.39,1.13-.76,1.72-1.11,1.25-.75,2.72-1.51,3.76-2.55,.21-.21,.04-.51-.22-.53-2.21-.22-4.51,1.8-6.02,3.21-.17,.15-.21,.4-.16,.61-.07-.28-.07-.1-.21,.08-.24,.29,.08,.83,.44,.56h0Z" fill="#f8c6d5"/></g><g id="change3_10"><path d="M229.65,107.41c1.44-1.01,2.92-1.94,4.47-2.78,2.03-1.1,4.19-1.55,6.35-2.26,.39-.13,.35-.81-.1-.75-3.93,.49-7.73,3.36-10.77,5.72-.04,.03,.01,.11,.06,.08h0Z" fill="#f8c6d5"/></g><g id="change3_11"><path d="M214.68,113.88c2.35,1.91,6.05,.28,8.52-.72,3.82-1.54,7.38-3.69,10.88-5.84,8.43-5.18,17.84-9.08,27.54-11.06,4.95-1.01,10.01-1.29,15.04-1.1,2.53,.1,5.02,.46,7.51,.93,2.46,.46,4.54,1.37,7.09,1.5,2.05,.11,4.12,.11,6.16-.1,2.36-.24,4.43-.97,6.69-1.53,2.25-.55,4.63-1.15,6.54-2.49,2.03-1.42,4.54-2.1,6.38-3.75,.88-.79-.09-1.9-1.03-1.76-2.49,.35-4.56,1.68-7.15,1.86-2.03,.13-4.07,.97-6.06,1.4-4.12,.88-8.92,.67-13.14,.68-2.44,0-4.66,.56-7.12,.19-2.26-.33-4.49-.56-6.77-.66-4.79-.19-9.59,.25-14.3,1.08-8.92,1.57-18.63,5.06-26.05,10.32-3.4,2.41-6.94,4.63-10.63,6.58-1.77,.94-3.61,1.73-5.53,2.32-1.54,.48-3.08,.55-4.49,1.34-.28,.15-.37,.61-.11,.83h0Z" fill="#f8c6d5"/></g><g id="change3_12"><path d="M98.94,133.41c-2.52-1.85-4.4-2.75-7.58-2.77-2.9-.02-5.62,1.02-8.23,2.18-2.92,1.3-5.92,2.73-8.7,4.3-2.59,1.46-6.91,3.26-7.72,6.35-.36,1.4,.44,2.97,1.89,3.33,2.77,.69,4.92-1.22,7.04-2.75,2.44-1.76,4.59-4,7.08-5.67,4.29-2.89,10.38-4.83,15.5-3.26,1.08,.33,1.53-1.12,.72-1.71h0Z" fill="#f8c6d5"/></g></g><g id="change5_1"><path d="M31.39,183.33c1.12,.36-.19-.11-.59-.2-1.17-.27-2.23-.08-3.23,.57-1.17,.76-2.2,1.86-2.84,3.1-.82,1.6-1.05,3.4-.76,5.16,.38,2.26,1.87,3.8,3.97,4.57,1.75,.65,4.06-.39,4.92-2,.6-1.14,.82-2.18,.7-3.45-.07-.57-.14-1.13-.24-1.7-.21-1.31-.02,1.01-.07-.28-.02-.24-.02-.48-.02-.73,0,.92,.01,.07,.11-.24,.2-.41,.29-.85,.27-1.32,0,.65-.11-2.37-.11-.73,0-1.31-.88-2.37-2.1-2.76h0Z" fill="#e6afa7"/></g><g id="change5_2"><path d="M38.87,193c-1.22,1.38-1.86,2.75-2.04,4.61-.2,2.06,1.19,4.91,3.33,5.32,2.49,.47,4.59-1.29,4.53-3.87-.01-.58,.06-1.16,.06-1.74,0-.43-.21-2.15-.08-.86-.02-.2,.05-1.08-.08-.12,.22-1.55-.12-3.01-1.57-3.86-1.26-.74-3.14-.61-4.15,.53h0Z" fill="#e6afa7"/></g><g id="change5_3"><path d="M331.3,107.16c-4.08,2.03-7.54,4.95-10.48,8.41-2.76,3.24-6.92,7.65-6.45,12.22,.21,2.02,2.12,4.3,4.43,3.38,4.13-1.65,5.92-5.71,8.08-9.36,2.19-3.69,4.5-7.54,7.59-10.53,2.23-2.16-.59-5.41-3.18-4.12h0Z" fill="#e6afa7"/></g><g id="change5_4"><path d="M334.04,122.84c-2.37,2.11-4.78,5.16-4.02,8.5,.48,2.11,3.33,3.37,5.17,2.1,1.23-.84,1.93-1.84,2.6-3.13,.23-.45,.48-.9,.74-1.33,.13-.21,.26-.41,.4-.62,.64-.95-.43,.48,.27-.35,1.28-1.52,1.5-3.67,0-5.17-1.47-1.47-3.68-1.33-5.17,0h0Z" fill="#e6afa7"/></g><g id="change5_5"><path d="M252.64,41.6c-.79,1.23-1.35,2.58-1.84,3.96-.5,1.42-1.21,3.11-.71,4.58,.5,1.49,2.27,2,3.45,.91,1.07-.99,1.19-2.44,1.59-3.78,.35-1.19,.82-2.29,1.48-3.35,1.58-2.53-2.37-4.8-3.97-2.32h0Z" fill="#e6afa7"/></g><g id="change5_6"><path d="M257.14,46.6c-.52,.63-.95,1.26-1.32,1.99-.51,1.01-.94,2.52-.5,3.64,.46,1.17,1.51,1.94,2.82,1.6,.95-.25,1.91-1.08,2.48-1.88,.18-.25,.35-.52,.54-.77-.46,.65,.14-.13,.3-.27,1.22-1.13,1.14-3.17,0-4.31-1.09-1.09-3.25-1.28-4.31,0h0Z" fill="#e6afa7"/></g></g></g></g></svg>