<?xml version="1.0" encoding="UTF-8"?><svg xmlns="http://www.w3.org/2000/svg" xmlns:xlink="http://www.w3.org/1999/xlink" height="1738.6" preserveAspectRatio="xMidYMid meet" version="1.0" viewBox="49.4 130.1 1913.4 1738.6" width="1913.4" zoomAndPan="magnify"><g><g><path d="M 1178.5 1271.121094 C 1154.410156 1287.378906 1128.039062 1300.019531 1100.609375 1309.570312 C 1046.308594 1328.511719 988.746094 1335.640625 931.789062 1341 C 818.5625 1351.609375 704.726562 1354.019531 591.117188 1349.109375 C 440.699219 1342.640625 283.359375 1327.570312 139.414062 1282.75 C 112.71875 1274.460938 84.226562 1261.109375 72.421875 1233.988281 C 69.160156 1226.5 68.351562 1219.578125 69.4375 1213.148438 C 71.183594 1208.429688 73.078125 1203.730469 75.152344 1199.101562 C 75.152344 1199.070312 75.175781 1199.050781 75.175781 1199.019531 C 93.730469 1170.910156 148.867188 1155.308594 171.492188 1148.128906 C 219.601562 1133.320312 268.441406 1121.390625 317.941406 1112.210938 C 342.589844 1107.609375 367.339844 1103.871094 392.164062 1100.808594 C 494.421875 1088.269531 598.019531 1087.789062 700.882812 1091.839844 C 851.980469 1097.75 1007.050781 1105.160156 1150.789062 1156.398438 C 1175.140625 1165.101562 1203.101562 1173.789062 1219.398438 1194.300781 C 1219.449219 1194.351562 1219.480469 1194.398438 1219.53125 1194.449219 C 1221.679688 1197.53125 1223.75 1200.691406 1225.699219 1203.949219 C 1226.859375 1206.101562 1227.871094 1208.378906 1228.78125 1210.75 C 1236.789062 1231.960938 1191.921875 1262.070312 1178.5 1271.121094" fill="#f5eacb"/></g><g><path d="M 991.046875 1180.519531 C 910.152344 1170.410156 829.253906 1165.351562 748.359375 1162.820312 C 546.117188 1152.710938 341.351562 1157.769531 149.222656 1233.609375 C 132.265625 1239.261719 113.917969 1250.539062 103.570312 1267.421875 C 114.730469 1274.121094 127.25 1278.96875 139.414062 1282.75 C 283.359375 1327.570312 440.699219 1342.640625 591.117188 1349.109375 C 704.726562 1354.019531 818.5625 1351.609375 931.789062 1341 C 988.746094 1335.640625 1046.308594 1328.511719 1100.609375 1309.570312 C 1128.039062 1300.019531 1154.410156 1287.378906 1178.5 1271.121094 C 1184.28125 1267.21875 1195.898438 1259.410156 1206.621094 1250.089844 C 1192.5 1238.078125 1177.210938 1227.390625 1160.421875 1218.441406 C 1109.859375 1193.160156 1049.191406 1188.101562 991.046875 1180.519531" fill="#f5e59d"/></g><g><path d="M 1225.699219 1203.949219 C 1226.859375 1206.101562 1227.871094 1208.378906 1228.78125 1210.75 C 1236.789062 1231.960938 1191.921875 1262.070312 1178.5 1271.121094 C 1154.410156 1287.378906 1128.039062 1300.019531 1100.609375 1309.570312 C 1046.308594 1328.511719 988.746094 1335.640625 931.789062 1341 C 818.5625 1351.609375 704.726562 1354.019531 591.117188 1349.109375 C 440.699219 1342.640625 283.359375 1327.570312 139.414062 1282.75 C 112.71875 1274.460938 84.226562 1261.109375 72.421875 1233.988281 C 69.160156 1226.5 68.351562 1219.578125 69.4375 1213.148438 C 55.054688 1251.910156 50.628906 1293.488281 50.046875 1330.929688 C 49.390625 1373.25 55.433594 1415.71875 68.175781 1456.121094 C 107.535156 1581 213.914062 1680.410156 328.53125 1738.421875 C 350.046875 1749.289062 372.269531 1758.75 395.019531 1766.660156 C 412.691406 1772.800781 430.691406 1778.039062 448.941406 1782.460938 C 536.738281 1803.800781 630.351562 1806.601562 719.539062 1801.898438 C 777.960938 1798.820312 834.867188 1788.929688 889.421875 1772.171875 C 963.820312 1749.289062 1033.800781 1713.671875 1097.199219 1665.238281 C 1194.351562 1591.019531 1250.398438 1478.039062 1259.339844 1357.121094 C 1263.058594 1307.171875 1252.640625 1248.171875 1225.699219 1203.949219" fill="#e8dcb7"/></g><g><path d="M 1225.699219 1203.949219 C 1226.859375 1206.101562 1227.871094 1208.378906 1228.78125 1210.75 C 1236.789062 1231.960938 1191.921875 1262.070312 1178.5 1271.121094 C 1154.410156 1287.378906 1128.039062 1300.019531 1100.609375 1309.570312 C 1046.308594 1328.511719 988.746094 1335.640625 931.789062 1341 C 907.644531 1343.261719 883.46875 1345.128906 859.277344 1346.648438 C 942.617188 1362.070312 1027.828125 1354.53125 1114.921875 1367.589844 C 1183.179688 1375.171875 1205.929688 1463.660156 1165.480469 1521.800781 C 1092.171875 1622.921875 985.992188 1673.480469 877.285156 1721.511719 C 733.191406 1784.710938 568.871094 1774.601562 414.660156 1734.148438 C 355.898438 1719.078125 297.816406 1702.648438 240.667969 1684.148438 C 268.671875 1704.921875 298.308594 1723.121094 328.53125 1738.421875 C 350.046875 1749.289062 372.269531 1758.75 395.019531 1766.660156 C 412.691406 1772.800781 430.691406 1778.039062 448.941406 1782.460938 C 536.738281 1803.800781 630.351562 1806.601562 719.539062 1801.898438 C 777.960938 1798.820312 834.867188 1788.929688 889.421875 1772.171875 C 963.820312 1749.289062 1033.800781 1713.671875 1097.199219 1665.238281 C 1194.351562 1591.019531 1250.398438 1478.039062 1259.339844 1357.121094 C 1263.058594 1307.171875 1252.640625 1248.171875 1225.699219 1203.949219" fill="#e3d7af"/></g><g><path d="M 1225.699219 1203.949219 C 1226.859375 1206.101562 1227.871094 1208.378906 1228.78125 1210.75 C 1236.789062 1231.960938 1191.921875 1262.070312 1178.5 1271.121094 C 1160.550781 1283.230469 1141.328125 1293.328125 1121.351562 1301.648438 C 1155.25 1299.648438 1187.570312 1302.851562 1198.339844 1339.78125 C 1221.101562 1415.621094 1210.980469 1499.050781 1162.949219 1562.25 C 1102.28125 1640.621094 1021.378906 1688.648438 932.902344 1724.039062 C 848.113281 1758.800781 760.1875 1785.28125 670.664062 1803.640625 C 687.058594 1803.351562 703.375 1802.75 719.539062 1801.898438 C 777.960938 1798.820312 834.867188 1788.929688 889.421875 1772.171875 C 963.820312 1749.289062 1033.800781 1713.671875 1097.199219 1665.238281 C 1194.351562 1591.019531 1250.398438 1478.039062 1259.339844 1357.121094 C 1263.058594 1307.171875 1252.640625 1248.171875 1225.699219 1203.949219" fill="#d9cda7"/></g><g><path d="M 1178.5 1271.121094 C 1154.410156 1287.378906 1128.039062 1300.019531 1100.609375 1309.570312 C 1046.308594 1328.511719 988.746094 1335.640625 931.789062 1341 C 818.5625 1351.609375 704.726562 1354.019531 591.117188 1349.109375 C 440.699219 1342.640625 283.359375 1327.570312 139.414062 1282.75 C 112.71875 1274.460938 84.226562 1261.109375 72.421875 1233.988281 C 69.160156 1226.5 68.351562 1219.578125 69.4375 1213.148438 C 71.183594 1208.429688 73.078125 1203.730469 75.152344 1199.101562 C 75.152344 1199.070312 75.175781 1199.050781 75.175781 1199.019531 C 93.730469 1170.910156 148.867188 1155.308594 171.492188 1148.128906 C 219.601562 1133.320312 268.441406 1121.390625 317.941406 1112.210938 C 342.589844 1107.609375 367.339844 1103.871094 392.164062 1100.808594 C 494.421875 1088.269531 598.019531 1087.789062 700.882812 1091.839844 C 851.980469 1097.75 1007.050781 1105.160156 1150.789062 1156.398438 C 1175.140625 1165.101562 1203.101562 1173.789062 1219.398438 1194.300781 C 1219.449219 1194.351562 1219.480469 1194.398438 1219.53125 1194.449219 C 1221.679688 1197.53125 1223.75 1200.691406 1225.699219 1203.949219 C 1226.859375 1206.101562 1227.871094 1208.378906 1228.78125 1210.75 C 1236.789062 1231.960938 1191.921875 1262.070312 1178.5 1271.121094" fill="#f5eacb"/></g><g><path d="M 876.277344 1847.910156 C 844.246094 1868.671875 791.03125 1856 756.523438 1854.839844 C 701.109375 1852.941406 645.292969 1851.480469 589.828125 1851.371094 C 548.644531 1851.300781 503.34375 1856.511719 462.566406 1848.800781 C 435.339844 1843.640625 443.050781 1801.851562 448.941406 1782.460938 C 536.738281 1803.800781 630.351562 1806.601562 719.539062 1801.898438 C 777.960938 1798.820312 834.867188 1788.929688 889.421875 1772.171875 C 891.59375 1789.941406 894.324219 1836.210938 876.277344 1847.910156" fill="#decfa0"/></g><g><path d="M 718.023438 1830.21875 C 775.121094 1821.710938 834.546875 1813.769531 890.988281 1799.140625 C 891.035156 1788.441406 890.195312 1778.5 889.421875 1772.171875 C 834.867188 1788.929688 777.960938 1798.820312 719.539062 1801.898438 C 630.351562 1806.601562 536.738281 1803.800781 448.941406 1782.460938 C 447.445312 1787.378906 445.835938 1793.75 444.707031 1800.589844 C 532.4375 1829.140625 625.230469 1841.261719 718.023438 1830.21875" fill="#ccbf93"/></g><g><path d="M 147.957031 1290.269531 C 147.8125 1290.269531 147.664062 1290.261719 147.519531 1290.261719 C 138.296875 1290.019531 131.011719 1282.359375 131.246094 1273.128906 C 131.492188 1263.53125 136.023438 1254.890625 144.003906 1248.800781 C 154.238281 1241 169.5625 1238.121094 183.042969 1241.449219 C 189.214844 1242.980469 194.929688 1245.328125 199.972656 1247.390625 C 206.605469 1250.109375 212.339844 1252.460938 217.328125 1252.480469 C 217.351562 1252.480469 217.375 1252.480469 217.394531 1252.480469 C 225.707031 1252.480469 234.769531 1245.949219 244.367188 1239.050781 C 246.691406 1237.371094 249.09375 1235.640625 251.535156 1233.96875 C 292.878906 1205.671875 347.511719 1195.179688 418.558594 1201.910156 C 438.398438 1203.789062 458.269531 1206.730469 477.484375 1209.570312 C 511.960938 1214.660156 544.519531 1219.488281 577.65625 1218.878906 C 606.09375 1218.371094 633.976562 1213.878906 663.5 1209.128906 C 678.8125 1206.660156 694.644531 1204.121094 710.441406 1202.199219 C 761.816406 1195.980469 813.863281 1196.328125 864.203125 1196.660156 C 903.546875 1196.921875 944.230469 1197.199219 984.058594 1207.558594 C 997.640625 1211.089844 1010.871094 1215.75 1023.671875 1220.25 C 1047.839844 1228.75 1070.671875 1236.78125 1094.03125 1237.050781 C 1097.96875 1237.101562 1102.140625 1237 1106.539062 1236.890625 C 1130.691406 1236.328125 1160.730469 1235.621094 1177.390625 1260.421875 C 1182.539062 1268.070312 1180.511719 1278.449219 1172.851562 1283.601562 C 1165.191406 1288.75 1154.808594 1286.710938 1149.660156 1279.058594 C 1143.660156 1270.121094 1129.011719 1269.789062 1107.328125 1270.300781 C 1102.828125 1270.398438 1098.171875 1270.511719 1093.640625 1270.460938 C 1064.78125 1270.121094 1038.238281 1260.789062 1012.589844 1251.769531 C 999.878906 1247.300781 987.875 1243.070312 975.648438 1239.890625 C 939.847656 1230.578125 901.277344 1230.320312 863.980469 1230.070312 C 814.691406 1229.75 763.722656 1229.410156 714.457031 1235.371094 C 699.308594 1237.210938 683.804688 1239.699219 668.808594 1242.121094 C 639.4375 1246.839844 609.066406 1251.730469 578.257812 1252.289062 C 542.359375 1252.929688 506.898438 1247.691406 472.601562 1242.621094 C 453.808594 1239.839844 434.378906 1236.96875 415.40625 1235.171875 C 352.464844 1229.210938 305.035156 1237.839844 270.410156 1261.539062 C 268.292969 1262.988281 266.152344 1264.53125 263.886719 1266.160156 C 251.039062 1275.410156 236.480469 1285.890625 217.410156 1285.890625 C 217.332031 1285.890625 217.257812 1285.890625 217.179688 1285.890625 C 205.6875 1285.839844 195.921875 1281.839844 187.304688 1278.308594 C 182.9375 1276.519531 178.8125 1274.828125 175.011719 1273.890625 C 170.871094 1272.859375 166.320312 1274.011719 164.578125 1275.128906 C 163.785156 1283.660156 156.601562 1290.269531 147.957031 1290.269531" fill="#e1be17"/></g><g><path d="M 270.664062 1308 C 269.296875 1308 267.910156 1307.828125 266.523438 1307.46875 C 257.585938 1305.199219 252.183594 1296.101562 254.464844 1287.160156 C 262.597656 1255.238281 300.636719 1244.359375 332.710938 1252.28125 C 340.71875 1254.25 348.355469 1256.929688 355.738281 1259.519531 C 369.339844 1264.289062 382.1875 1268.800781 394.105469 1267.628906 C 404.851562 1266.570312 415.703125 1260.78125 427.191406 1254.648438 C 440.074219 1247.78125 454.679688 1239.988281 471.507812 1238.019531 C 495.519531 1235.199219 517.214844 1244.710938 536.351562 1253.109375 C 543.539062 1256.261719 550.332031 1259.238281 557.074219 1261.578125 C 597.867188 1275.699219 644.78125 1267.671875 686.175781 1260.578125 L 863.394531 1230.238281 C 881.636719 1227.121094 900.496094 1223.878906 920.277344 1225 C 941.429688 1226.199219 960.988281 1232.199219 979.898438 1238.011719 L 1097.148438 1274.019531 C 1105.96875 1276.730469 1110.929688 1286.078125 1108.21875 1294.898438 C 1105.511719 1303.71875 1096.171875 1308.671875 1087.351562 1305.960938 L 970.09375 1269.949219 C 953.085938 1264.730469 935.496094 1259.328125 918.394531 1258.359375 C 902.398438 1257.460938 885.4375 1260.359375 869.035156 1263.171875 L 691.8125 1293.511719 C 648.699219 1300.898438 595.042969 1310.078125 546.140625 1293.148438 C 538.132812 1290.371094 530.40625 1286.980469 522.933594 1283.710938 C 506.203125 1276.371094 490.402344 1269.429688 475.402344 1271.199219 C 464.835938 1272.441406 454.1875 1278.121094 442.917969 1284.128906 C 429.703125 1291.179688 414.726562 1299.171875 397.378906 1300.878906 C 378.097656 1302.78125 360.34375 1296.550781 344.679688 1291.050781 C 337.726562 1288.609375 331.164062 1286.308594 324.703125 1284.710938 C 309.101562 1280.859375 289.589844 1284.621094 286.839844 1295.410156 C 284.914062 1302.96875 278.117188 1308 270.664062 1308" fill="#e1be17"/></g><g><path d="M 395.019531 1268.890625 C 392.523438 1268.890625 389.964844 1268.710938 387.335938 1268.289062 C 380.722656 1267.230469 375.175781 1264.859375 370.28125 1262.761719 C 367.484375 1261.570312 364.84375 1260.441406 362.582031 1259.828125 C 356.347656 1258.148438 349.117188 1259.730469 344.152344 1263.859375 C 337.058594 1269.75 326.527344 1268.789062 320.628906 1261.691406 C 314.730469 1254.601562 315.699219 1244.058594 322.792969 1238.160156 C 336.046875 1227.148438 354.617188 1223.078125 371.257812 1227.558594 C 375.8125 1228.789062 379.859375 1230.519531 383.429688 1232.050781 C 386.847656 1233.511719 390.078125 1234.890625 392.617188 1235.300781 C 396.769531 1235.96875 402.414062 1234.589844 408.394531 1233.128906 C 410.0625 1232.730469 411.730469 1232.320312 413.390625 1231.949219 C 419.417969 1230.601562 437.761719 1226.46875 452.921875 1236.5 C 460.617188 1241.589844 462.726562 1251.960938 457.636719 1259.648438 C 452.546875 1267.339844 442.183594 1269.460938 434.484375 1264.371094 C 433.5 1263.710938 430.179688 1262.421875 420.71875 1264.550781 C 419.25 1264.878906 417.773438 1265.238281 416.292969 1265.601562 C 409.851562 1267.171875 402.761719 1268.890625 395.019531 1268.890625" fill="#e1be17"/></g><g><path d="M 251.945312 1296.089844 Z M 236.933594 1305.449219 C 234.464844 1305.449219 231.960938 1304.898438 229.59375 1303.738281 C 221.308594 1299.671875 217.886719 1289.660156 221.949219 1281.378906 C 225.792969 1273.539062 233.023438 1267.53125 241.785156 1264.878906 C 250.550781 1262.238281 259.898438 1263.261719 267.4375 1267.671875 C 275.402344 1272.320312 278.082031 1282.558594 273.425781 1290.519531 C 268.9375 1298.191406 259.285156 1300.960938 251.46875 1297 C 248.425781 1302.359375 242.785156 1305.449219 236.933594 1305.449219" fill="#e1be17"/></g><g><path d="M 407.226562 1338.839844 C 404.398438 1338.839844 401.535156 1338.121094 398.90625 1336.609375 C 390.910156 1332.011719 388.160156 1321.800781 392.765625 1313.800781 C 400.792969 1299.851562 416.8125 1291.371094 436.714844 1290.53125 C 443.4375 1290.238281 449.757812 1290.75 455.867188 1291.230469 C 461.457031 1291.671875 466.738281 1292.089844 471.609375 1291.820312 C 478.261719 1291.460938 485.289062 1289.769531 492.730469 1287.980469 C 495.90625 1287.210938 499.191406 1286.421875 502.546875 1285.710938 C 541.277344 1277.511719 582.515625 1281.871094 618.675781 1297.980469 C 627.101562 1301.738281 630.890625 1311.609375 627.132812 1320.039062 C 623.378906 1328.46875 613.5 1332.25 605.074219 1328.5 C 575.308594 1315.230469 541.351562 1311.640625 509.46875 1318.390625 C 506.566406 1319.011719 503.644531 1319.710938 500.554688 1320.460938 C 491.984375 1322.519531 483.121094 1324.660156 473.429688 1325.179688 C 466.324219 1325.570312 459.671875 1325.050781 453.234375 1324.539062 C 447.882812 1324.109375 442.824219 1323.710938 438.125 1323.910156 C 430.382812 1324.238281 423.789062 1326.871094 421.71875 1330.46875 C 418.628906 1335.839844 413.007812 1338.839844 407.226562 1338.839844" fill="#e1be17"/></g><g><path d="M 738.1875 1345.121094 C 738.113281 1345.121094 738.039062 1345.121094 737.964844 1345.121094 C 728.738281 1345 721.355469 1337.421875 721.476562 1328.199219 C 721.808594 1303 745.933594 1286.53125 768.09375 1285.699219 C 786.140625 1285.058594 801.957031 1292.25 815.921875 1298.621094 L 817.738281 1299.449219 C 828.890625 1304.53125 840.617188 1309.339844 850.625 1307.660156 C 858.433594 1306.351562 865.988281 1301.101562 874.734375 1295.011719 C 882.972656 1289.289062 892.308594 1282.789062 903.402344 1279.011719 C 924.621094 1271.78125 946.269531 1276.199219 965.363281 1280.101562 C 982.5625 1283.609375 998.808594 1286.929688 1011.449219 1281.328125 C 1019.878906 1277.589844 1029.75 1281.398438 1033.488281 1289.828125 C 1037.230469 1298.269531 1033.421875 1308.140625 1024.988281 1311.871094 C 1002.589844 1321.800781 979.261719 1317.039062 958.679688 1312.828125 C 942.296875 1309.488281 926.820312 1306.328125 914.179688 1310.640625 C 907.53125 1312.898438 900.867188 1317.539062 893.8125 1322.441406 C 883.285156 1329.769531 871.351562 1338.070312 856.144531 1340.609375 C 836.84375 1343.839844 819.058594 1336.761719 803.902344 1329.871094 L 802.054688 1329.019531 C 790.4375 1323.71875 779.46875 1318.710938 769.332031 1319.089844 C 762.371094 1319.351562 754.945312 1324.25 754.886719 1328.628906 C 754.765625 1337.78125 747.308594 1345.121094 738.1875 1345.121094" fill="#e1be17"/></g><g><path d="M 829.671875 1307.539062 C 826.664062 1307.539062 823.621094 1306.730469 820.878906 1305.03125 C 813.039062 1300.171875 810.625 1289.871094 815.492188 1282.03125 C 826.84375 1263.730469 848.859375 1252.898438 870.289062 1255.078125 C 877.179688 1255.78125 883.40625 1257.671875 888.902344 1259.351562 C 892.746094 1260.519531 896.375 1261.621094 899.648438 1262.140625 C 903.804688 1262.808594 907 1261.839844 907.839844 1261.25 C 912.070312 1253.179688 922.007812 1249.980469 930.164062 1254.101562 C 938.398438 1258.261719 941.703125 1268.308594 937.539062 1276.550781 C 929.3125 1292.828125 909.9375 1297.621094 894.386719 1295.140625 C 888.847656 1294.25 883.710938 1292.691406 879.175781 1291.308594 C 874.746094 1289.960938 870.566406 1288.691406 866.910156 1288.320312 C 858.050781 1287.421875 848.578125 1292.070312 843.882812 1299.640625 C 840.71875 1304.738281 835.257812 1307.539062 829.671875 1307.539062" fill="#e1be17"/></g><g><path d="M 661.222656 1346.820312 C 646.390625 1346.820312 631.605469 1344.269531 617.515625 1339.199219 C 608.832031 1336.078125 604.320312 1326.519531 607.441406 1317.828125 C 610.558594 1309.148438 620.128906 1304.640625 628.808594 1307.761719 C 645.242188 1313.660156 663.703125 1314.949219 680.796875 1311.390625 C 689.828125 1309.511719 698.679688 1315.300781 700.558594 1324.328125 C 702.441406 1333.371094 696.648438 1342.210938 687.613281 1344.101562 C 678.890625 1345.910156 670.046875 1346.820312 661.222656 1346.820312" fill="#e1be17"/></g><g><path d="M 302.03125 631.472656 C 302.03125 631.472656 1848.511719 130.105469 1866.59375 140.429688 C 1884.664062 150.769531 1921.347656 210.140625 1903.652344 221.765625 C 1885.960938 233.375 321.394531 661.953125 313.648438 660.667969 C 305.902344 659.371094 302.03125 631.472656 302.03125 631.472656" fill="#edd29f"/></g><g><path d="M 1866.59375 140.429688 C 1864.917969 139.476562 1849.984375 142.953125 1824.324219 150.027344 C 1831.667969 153.03125 1837.902344 157.5 1842.972656 164.265625 C 1855.621094 181.957031 1850.5625 207.242188 1830.335938 209.765625 C 1769.664062 224.933594 1716.574219 240.105469 1660.960938 257.796875 C 1557.316406 290.660156 1456.191406 315.945312 1355.078125 356.386719 C 1317.160156 371.558594 1274.183594 379.148438 1231.207031 389.25 C 1135.136719 412.011719 1046.660156 427.171875 955.652344 457.511719 C 801.445312 513.125 652.292969 561.160156 485.445312 588.964844 C 442.46875 594.023438 409.605469 616.773438 371.683594 637 C 351.195312 647.242188 329.046875 649.1875 306.582031 650.898438 C 308.394531 655.976562 310.75 660.183594 313.648438 660.667969 C 321.394531 661.953125 1885.960938 233.386719 1903.652344 221.765625 C 1921.347656 210.140625 1884.664062 150.769531 1866.59375 140.429688" fill="#e3c58a"/></g><g><path d="M 302.035156 710.003906 C 302.035156 710.003906 1901.097656 416.699219 1917.652344 429.320312 C 1934.210938 441.9375 1962.75 505.636719 1943.675781 514.824219 C 1924.613281 524.011719 317.210938 742.769531 309.703125 740.46875 C 302.195312 738.167969 302.035156 710.003906 302.035156 710.003906" fill="#edd29f"/></g><g><path d="M 437.328125 688.039062 C 432.246094 688.039062 427.230469 685.730469 423.949219 681.351562 C 416.730469 671.730469 413.929688 658.988281 416.269531 646.421875 C 418.609375 633.839844 425.800781 622.96875 436 616.578125 C 439.105469 614.640625 442.132812 613.261719 444.808594 612.050781 C 446.941406 611.078125 449.601562 609.878906 450.382812 609.109375 C 452.082031 607.421875 451.835938 599.949219 451.652344 594.5 C 451.5 589.828125 451.34375 585.011719 451.816406 579.949219 C 453.375 563.441406 462.339844 547.800781 475.808594 538.121094 C 489.273438 528.441406 506.953125 524.910156 523.101562 528.699219 C 532.082031 530.800781 537.660156 539.789062 535.554688 548.769531 C 533.449219 557.761719 524.460938 563.328125 515.480469 561.230469 C 508.695312 559.640625 500.96875 561.179688 495.3125 565.25 C 489.65625 569.308594 485.734375 576.148438 485.082031 583.078125 C 484.804688 586.03125 484.921875 589.609375 485.046875 593.398438 C 485.429688 605 485.953125 620.878906 473.914062 632.820312 C 468.867188 637.828125 463.171875 640.410156 458.597656 642.488281 C 456.714844 643.339844 454.9375 644.140625 453.730469 644.898438 C 451.46875 646.320312 449.742188 649.171875 449.117188 652.53125 C 448.492188 655.890625 449.074219 659.171875 450.679688 661.308594 C 456.214844 668.691406 454.71875 679.160156 447.335938 684.691406 C 444.332031 686.949219 440.8125 688.039062 437.328125 688.039062" fill="#e1c33c"/></g><g><path d="M 1917.652344 429.320312 C 1916.496094 428.441406 1907.621094 429.054688 1892.113281 430.957031 C 1895.785156 434.738281 1898.84375 439.300781 1901.132812 444.863281 C 1913.777344 472.667969 1875.859375 503 1845.511719 508.058594 C 1736.816406 523.230469 1638.234375 535.875 1529.511719 561.148438 C 1486.546875 571.265625 1441.03125 566.207031 1398.066406 571.265625 C 1344.976562 576.320312 1294.414062 591.492188 1241.324219 599.066406 C 1056.785156 624.355469 882.347656 624.355469 702.855469 674.917969 C 609.320312 700.191406 520.839844 697.664062 424.777344 720.421875 C 384.566406 728.886719 342.582031 717.867188 303.277344 725.921875 C 304.3125 732.738281 306.214844 739.398438 309.703125 740.46875 C 317.210938 742.769531 1924.613281 524.011719 1943.675781 514.824219 C 1962.75 505.636719 1934.210938 441.9375 1917.652344 429.320312" fill="#e3c58a"/></g><g><path d="M 415.515625 702.480469 C 415.316406 702.480469 415.113281 702.480469 414.914062 702.46875 C 405.691406 702.140625 398.484375 694.398438 398.8125 685.179688 C 399.226562 673.480469 396.398438 661.269531 393.40625 648.351562 C 392.90625 646.199219 392.410156 644.050781 391.925781 641.898438 C 388.644531 627.308594 385.421875 610.011719 386.390625 592.308594 C 387.507812 571.878906 394.089844 553.949219 405.417969 540.460938 C 419.519531 523.679688 440.695312 515.011719 460.691406 517.839844 C 484.402344 521.191406 503.140625 540.859375 504.273438 563.589844 C 504.730469 572.800781 497.632812 580.648438 488.417969 581.109375 C 479.183594 581.570312 471.363281 574.460938 470.902344 565.25 C 470.574219 558.691406 463.617188 551.988281 456.015625 550.921875 C 447.601562 549.730469 437.546875 554.160156 431 561.960938 C 424.457031 569.738281 420.460938 581.171875 419.75 594.140625 C 419.007812 607.71875 421.605469 621.601562 424.523438 634.570312 C 424.992188 636.648438 425.472656 638.730469 425.957031 640.808594 C 429.308594 655.289062 432.773438 670.25 432.199219 686.371094 C 431.878906 695.390625 424.46875 702.480469 415.515625 702.480469" fill="#f5d649"/></g><g><path d="M 349.28125 1319.300781 C 343.488281 1319.300781 337.753906 1317.269531 332.910156 1313.339844 C 323.488281 1305.691406 318.539062 1291.800781 320.871094 1279.558594 C 321.921875 1274.039062 323.835938 1269.199219 325.527344 1264.941406 C 327.136719 1260.871094 328.660156 1257.03125 328.539062 1254.660156 C 328.320312 1250.460938 322.738281 1245.910156 314.246094 1239.441406 C 306.09375 1233.238281 296.855469 1226.199219 290.820312 1215.78125 C 280.78125 1198.449219 282.210938 1175.339844 294.648438 1153.96875 C 299.855469 1145.019531 306.113281 1137.398438 312.160156 1130.03125 C 316.347656 1124.929688 320.300781 1120.109375 323.683594 1115.128906 C 352.730469 1072.398438 336.988281 1031.589844 318.757812 984.328125 C 305.253906 949.320312 291.292969 913.121094 295.667969 873.78125 C 299.28125 841.339844 315.839844 814.078125 331.851562 787.730469 C 346.785156 763.148438 360.890625 739.929688 363.421875 714.550781 C 363.734375 711.441406 363.882812 708.171875 364.035156 704.710938 C 364.40625 696.511719 364.824219 687.230469 367.6875 677.878906 C 373.589844 658.601562 389.726562 645.230469 407.015625 645.230469 C 407.128906 645.230469 407.242188 645.230469 407.355469 645.230469 C 416.582031 645.320312 423.984375 652.878906 423.890625 662.101562 C 423.796875 671.269531 416.335938 678.640625 407.1875 678.640625 C 407.128906 678.640625 407.070312 678.640625 407 678.640625 C 405.164062 678.640625 401.300781 682.21875 399.636719 687.660156 C 398.011719 692.960938 397.722656 699.398438 397.414062 706.21875 C 397.246094 709.96875 397.070312 713.859375 396.667969 717.871094 C 393.382812 750.800781 376.617188 778.390625 360.40625 805.078125 C 345.628906 829.398438 331.667969 852.371094 328.875 877.480469 C 325.398438 908.710938 337.316406 939.601562 349.929688 972.308594 C 359.476562 997.058594 369.347656 1022.640625 372.28125 1049.03125 C 375.757812 1080.289062 368.898438 1108.050781 351.316406 1133.921875 C 347.085938 1140.140625 342.460938 1145.78125 337.988281 1151.21875 C 332.535156 1157.871094 327.386719 1164.148438 323.523438 1170.78125 C 318.863281 1178.789062 315.074219 1190.988281 319.730469 1199.03125 C 322.417969 1203.671875 328.277344 1208.140625 334.484375 1212.859375 C 346.246094 1221.808594 360.878906 1232.960938 361.90625 1252.941406 C 362.398438 1262.570312 359.179688 1270.710938 356.589844 1277.238281 C 355.429688 1280.171875 354.332031 1282.949219 353.808594 1285.261719 C 359.882812 1285.710938 365.488281 1289.480469 367.992188 1295.488281 C 371.542969 1304.011719 367.519531 1313.789062 359.003906 1317.339844 C 355.84375 1318.660156 352.550781 1319.300781 349.28125 1319.300781" fill="#f5d649"/></g><g><path d="M 378.15625 1314.878906 C 373.625 1314.878906 369.109375 1313.050781 365.8125 1309.441406 C 359.59375 1302.621094 360.078125 1292.050781 366.894531 1285.839844 C 375.777344 1277.730469 374.050781 1260.03125 369.476562 1246.160156 C 368.03125 1241.78125 366.359375 1237.371094 364.585938 1232.699219 C 358.777344 1217.398438 352.191406 1200.050781 353.570312 1181.019531 C 354.640625 1166.261719 360.375 1153.089844 365.433594 1141.460938 C 369.933594 1131.128906 374.183594 1121.371094 374.632812 1112.089844 C 375.230469 1099.71875 369.183594 1086.710938 362.78125 1072.949219 C 355.851562 1058.050781 348 1041.160156 347.664062 1022.210938 C 347.390625 1006.949219 352.070312 992.898438 356.199219 980.5 C 359.480469 970.640625 362.578125 961.339844 363.027344 952.5 C 363.5625 941.988281 360.410156 930.78125 357.078125 918.921875 C 354.203125 908.699219 351.230469 898.121094 350.160156 886.699219 C 348.125 864.941406 353.460938 844.039062 358.167969 825.601562 L 387.609375 710.261719 C 390.4375 699.191406 393.953125 685.410156 403.554688 674.089844 C 414.652344 661 435.210938 652.769531 453.039062 662.351562 C 461.164062 666.710938 464.214844 676.839844 459.847656 684.96875 C 455.476562 693.101562 445.347656 696.140625 437.222656 691.78125 C 436.230469 691.25 432.003906 692.199219 429.035156 695.699219 C 424.417969 701.140625 422.164062 709.980469 419.984375 718.519531 L 390.542969 833.859375 C 386.308594 850.449219 381.929688 867.601562 383.425781 883.589844 C 384.210938 891.988281 386.65625 900.679688 389.242188 909.878906 C 393.15625 923.808594 397.207031 938.210938 396.394531 954.199219 C 395.714844 967.570312 391.742188 979.511719 387.898438 991.050781 C 384.296875 1001.859375 380.898438 1012.078125 381.070312 1021.621094 C 381.28125 1033.488281 387.011719 1045.808594 393.074219 1058.859375 C 400.539062 1074.910156 409 1093.101562 408.003906 1113.710938 C 407.261719 1129.089844 401.3125 1142.75 396.066406 1154.800781 C 391.6875 1164.859375 387.550781 1174.371094 386.894531 1183.429688 C 386.050781 1195.101562 390.796875 1207.609375 395.824219 1220.851562 C 397.644531 1225.648438 399.53125 1230.621094 401.207031 1235.691406 C 411.53125 1266.988281 407.230469 1294.261719 389.414062 1310.519531 C 386.210938 1313.441406 382.175781 1314.878906 378.15625 1314.878906" fill="#e1c33c"/></g><g><path d="M 502.640625 568.601562 Z M 486.832031 625.449219 L 486.832031 625.460938 Z M 489.929688 678.140625 C 487.449219 678.140625 484.9375 677.589844 482.5625 676.421875 C 476.097656 673.230469 471.5625 667.261719 470.125 660.019531 C 468.402344 651.371094 471.152344 641.648438 477.296875 634.648438 C 479.421875 632.230469 481.589844 630.320312 483.5 628.640625 C 484.4375 627.808594 485.765625 626.648438 486.460938 625.898438 C 486.335938 624.480469 485.601562 621.730469 485.09375 619.820312 C 483.515625 613.890625 481.351562 605.761719 483.371094 596.859375 C 485.730469 586.441406 492.636719 579.558594 497.675781 574.539062 C 498.183594 574.039062 498.6875 573.539062 499.183594 573.03125 C 500.804688 571.390625 501.683594 570.21875 502.148438 569.5 C 501.910156 569.019531 501.628906 568.488281 501.394531 568.039062 C 499.132812 563.738281 495.71875 557.238281 496.71875 548.679688 C 497.542969 541.589844 501.507812 535.121094 507.59375 530.941406 C 513.675781 526.75 521.132812 525.351562 528.050781 527.101562 C 534.96875 528.859375 540.859375 533.640625 544.210938 540.21875 C 547.5625 546.808594 547.964844 554.378906 545.3125 561.011719 C 543.535156 565.449219 540.0625 568.710938 535.9375 570.339844 C 535.703125 579.21875 531.355469 587.988281 522.972656 596.488281 C 522.410156 597.058594 521.835938 597.640625 521.257812 598.210938 C 519.460938 600 516.472656 602.980469 515.960938 604.25 C 515.847656 605.46875 516.769531 608.921875 517.378906 611.21875 C 519.285156 618.371094 521.890625 628.171875 517.464844 638.730469 C 514.453125 645.910156 509.316406 650.429688 505.566406 653.730469 C 505.378906 653.890625 505.195312 654.058594 505.011719 654.21875 C 507.140625 658.679688 507.28125 664.03125 504.929688 668.808594 C 502.023438 674.710938 496.09375 678.140625 489.929688 678.140625" fill="#f5d649"/></g><g><path d="M 537.496094 678.53125 C 530.59375 678.53125 524.132812 674.21875 521.726562 667.328125 C 519.324219 660.460938 521.683594 653.070312 527.0625 648.769531 C 527.015625 648.621094 526.964844 648.46875 526.902344 648.328125 C 526.300781 646.921875 525.433594 645.269531 524.515625 643.53125 C 521.414062 637.640625 517.171875 629.570312 517.601562 619.539062 C 518.167969 606.371094 526.191406 597.429688 532.046875 590.898438 C 534.753906 587.890625 537.816406 584.46875 538.367188 582.460938 C 539.015625 580.078125 537.320312 574.640625 535.960938 570.269531 L 535.640625 569.238281 C 532.425781 558.871094 529.914062 546.640625 535.675781 534.589844 C 540.054688 525.429688 549.578125 518.878906 559.933594 517.898438 C 569.117188 517.03125 577.71875 520.738281 582.945312 527.828125 C 588.421875 535.261719 586.839844 545.71875 579.414062 551.191406 C 575.449219 554.121094 570.617188 555.03125 566.144531 554.109375 C 566.4375 555.480469 566.886719 557.191406 567.554688 559.351562 L 567.859375 560.339844 C 570.371094 568.410156 573.8125 579.460938 570.601562 591.25 C 567.96875 600.890625 561.84375 607.71875 556.917969 613.210938 C 554.785156 615.589844 551.21875 619.570312 550.980469 620.988281 C 551.019531 622.148438 552.9375 625.789062 554.082031 627.96875 C 555.210938 630.109375 556.492188 632.539062 557.621094 635.191406 C 561.554688 644.378906 561.730469 655.21875 558.085938 663.488281 C 555.113281 670.230469 549.757812 675.238281 543.003906 677.589844 C 541.183594 678.230469 539.324219 678.53125 537.496094 678.53125" fill="#e1c33c"/></g><g><path d="M 580.617188 673.691406 C 573.433594 673.691406 566.796875 669.011719 564.625 661.78125 C 562.714844 655.410156 564.78125 648.789062 569.394531 644.601562 C 568.789062 643.511719 568.023438 642.269531 567.222656 640.980469 C 563.671875 635.261719 558.808594 627.410156 558.988281 617.101562 C 559.269531 601.199219 570.761719 591.820312 578.363281 585.601562 C 581.707031 582.871094 585.496094 579.78125 586.519531 577.648438 C 586.855469 576.949219 587.78125 574.101562 585.574219 566.730469 C 585.019531 564.859375 584.351562 562.921875 583.648438 560.859375 C 581.652344 555.019531 579.394531 548.421875 578.6875 540.910156 C 577.21875 525.308594 583.609375 511.308594 595.359375 504.390625 C 604.085938 499.25 615.242188 499.210938 624.480469 504.28125 C 632.863281 508.890625 638.058594 517.058594 638.371094 526.140625 C 638.6875 535.359375 631.46875 543.089844 622.25 543.410156 C 618.609375 543.539062 615.214844 542.488281 612.40625 540.609375 C 613.027344 543.511719 614.121094 546.710938 615.261719 550.050781 C 616.039062 552.320312 616.84375 554.671875 617.585938 557.160156 C 621.679688 570.851562 621.367188 582.289062 616.621094 592.140625 C 612.378906 600.960938 605.242188 606.789062 599.503906 611.480469 C 597.121094 613.421875 593.625 616.28125 592.519531 617.871094 C 593.015625 619.179688 594.554688 621.660156 595.617188 623.371094 C 596.851562 625.359375 598.253906 627.621094 599.523438 630.109375 C 604.171875 639.199219 604.78125 650.179688 601.113281 658.78125 C 598.121094 665.789062 592.550781 670.839844 585.429688 672.980469 C 583.828125 673.460938 582.210938 673.691406 580.617188 673.691406" fill="#f5d649"/></g><g><path d="M 621.839844 671.269531 C 615.238281 671.269531 608.988281 667.328125 606.351562 660.839844 C 603.589844 654.039062 605.640625 646.46875 610.902344 641.921875 C 610.875 641.839844 610.847656 641.761719 610.8125 641.691406 C 610.238281 640.300781 609.382812 638.660156 608.480469 636.921875 C 605.511719 631.21875 601.820312 624.121094 601.769531 614.960938 C 601.6875 600.238281 610.839844 590.351562 617.523438 583.128906 C 620.527344 579.890625 623.632812 576.53125 624.757812 573.960938 C 626.664062 569.570312 625.074219 561.738281 623.671875 554.828125 C 621.753906 545.410156 618.546875 529.621094 625.628906 515.121094 C 630.519531 505.109375 640.503906 497.800781 651.6875 496.050781 C 661.351562 494.53125 670.585938 497.488281 677.015625 504.179688 C 683.414062 510.828125 683.207031 521.398438 676.558594 527.800781 C 670.816406 533.320312 662.144531 533.921875 655.765625 529.699219 C 655.703125 529.761719 655.652344 529.808594 655.613281 529.859375 C 653.726562 533.851562 654.972656 541.101562 656.410156 548.179688 C 658.5625 558.761719 661.507812 573.25 655.386719 587.300781 C 652.003906 595.070312 646.710938 600.789062 642.039062 605.828125 C 639.640625 608.429688 635.171875 613.25 635.179688 614.78125 C 635.203125 615.890625 637.027344 619.398438 638.121094 621.5 C 639.257812 623.679688 640.546875 626.160156 641.675781 628.890625 C 645.363281 637.78125 645.5625 647.890625 642.203125 655.921875 C 639.472656 662.449219 634.46875 667.460938 628.113281 670.039062 C 626.054688 670.878906 623.929688 671.269531 621.839844 671.269531" fill="#e1c33c"/></g><g><path d="M 665.511719 649.019531 C 658.28125 649.019531 651.617188 644.289062 649.484375 637 C 647.570312 630.460938 649.851562 623.679688 654.746094 619.539062 C 654.359375 618.53125 653.863281 617.378906 653.347656 616.191406 C 650.980469 610.710938 647.742188 603.210938 648.6875 594.101562 C 650.066406 580.808594 658.964844 572.851562 665.460938 567.03125 C 668.007812 564.761719 670.640625 562.398438 671.730469 560.640625 C 673.304688 558.101562 673.429688 553.148438 672.074219 547.039062 C 671.460938 544.269531 670.621094 541.359375 669.734375 538.28125 C 668.101562 532.609375 666.246094 526.191406 665.484375 519.230469 C 663.734375 503.289062 668.914062 488.640625 679.339844 480.039062 C 687.128906 473.621094 698.234375 471.210938 708.324219 473.761719 C 717.523438 476.078125 724.75 482.171875 728.144531 490.488281 C 731.632812 499.03125 727.535156 508.78125 718.992188 512.269531 C 711.96875 515.140625 704.117188 512.878906 699.613281 507.21875 C 698.800781 508.988281 698.300781 511.988281 698.695312 515.578125 C 699.148438 519.691406 700.453125 524.230469 701.839844 529.03125 C 702.828125 532.46875 703.851562 536.019531 704.691406 539.808594 C 708.058594 554.988281 706.527344 567.921875 700.132812 578.238281 C 696.507812 584.089844 691.644531 588.441406 687.738281 591.929688 C 685.765625 593.699219 682.859375 596.300781 681.988281 597.660156 C 682.257812 598.859375 683.300781 601.269531 684.015625 602.929688 C 684.882812 604.941406 685.863281 607.210938 686.710938 609.699219 C 689.707031 618.550781 689.160156 628.320312 685.246094 635.851562 C 682.035156 642.011719 676.695312 646.449219 670.207031 648.351562 C 668.644531 648.808594 667.0625 649.019531 665.511719 649.019531" fill="#f5d649"/></g><g><path d="M 709.414062 653.691406 C 709.105469 653.691406 708.796875 653.679688 708.488281 653.671875 C 699.277344 653.160156 692.214844 645.289062 692.71875 636.078125 L 695.144531 591.609375 C 695.84375 578.75 696.804688 561.128906 707.808594 546.820312 C 710.808594 542.921875 714.132812 539.839844 717.066406 537.109375 C 719.742188 534.628906 722.511719 532.070312 723.355469 530.238281 C 724.957031 526.769531 722.8125 518.671875 721.535156 513.820312 C 719.101562 504.621094 715.023438 489.199219 721.957031 474.691406 C 726.84375 464.460938 737.503906 457.289062 749.117188 456.410156 C 759.148438 455.648438 768.347656 459.921875 773.726562 467.828125 C 778.910156 475.460938 776.929688 485.851562 769.296875 491.039062 C 763.820312 494.761719 756.917969 494.789062 751.539062 491.679688 C 751.304688 495.710938 752.894531 501.71875 753.835938 505.289062 C 756.421875 515.070312 760.328125 529.851562 753.691406 544.238281 C 750.078125 552.070312 744.371094 557.359375 739.789062 561.609375 C 737.628906 563.621094 735.585938 565.511719 734.296875 567.191406 C 729.957031 572.828125 729.105469 582.410156 728.503906 593.429688 L 726.078125 637.898438 C 725.59375 646.800781 718.222656 653.691406 709.414062 653.691406" fill="#e1c33c"/></g><g><path d="M 780.714844 636.988281 C 775.132812 636.988281 769.679688 634.191406 766.515625 629.109375 C 762.355469 622.421875 763.488281 613.941406 768.777344 608.570312 C 767.554688 606.488281 764.960938 603.988281 762.230469 601.359375 C 761.433594 600.589844 760.644531 599.828125 759.863281 599.058594 C 754.039062 593.300781 746.171875 584.199219 745.121094 571.699219 C 743.734375 555.21875 754.15625 544.191406 761.765625 536.140625 C 765.417969 532.269531 769.199219 528.269531 770.15625 525.308594 C 770.761719 523.449219 770.832031 519.621094 767.753906 511.96875 C 767.058594 510.238281 766.289062 508.46875 765.472656 506.601562 C 762.664062 500.140625 759.476562 492.828125 758.214844 484.339844 C 755.792969 468.089844 762.105469 452.71875 774.292969 445.191406 C 783.132812 439.71875 795.015625 439.519531 804.570312 444.671875 C 813.347656 449.390625 818.753906 457.851562 819.027344 467.289062 C 819.292969 476.511719 812.03125 484.199219 802.808594 484.46875 C 798.488281 484.589844 794.484375 483.058594 791.4375 480.441406 C 792.210938 484.308594 794.109375 488.671875 796.105469 493.269531 C 796.980469 495.269531 797.878906 497.339844 798.75 499.5 C 804.300781 513.289062 805.34375 525.101562 801.941406 535.601562 C 798.660156 545.730469 791.667969 553.128906 786.050781 559.078125 C 783.53125 561.75 778.28125 567.308594 778.414062 568.898438 C 778.441406 569.070312 778.8125 570.808594 783.351562 575.289062 C 784.03125 575.96875 784.726562 576.640625 785.421875 577.308594 C 790.105469 581.820312 795.933594 587.441406 799.574219 595.480469 C 806.164062 610.039062 801.84375 626.789062 789.523438 634.460938 C 786.777344 636.171875 783.726562 636.988281 780.714844 636.988281" fill="#f5d649"/></g><g><path d="M 819.925781 626.46875 C 812.6875 626.46875 806.019531 621.730469 803.894531 614.441406 L 792.207031 574.351562 C 788.96875 563.25 783.554688 544.671875 791.546875 527.558594 C 795.171875 519.800781 800.597656 514.238281 805.382812 509.339844 C 808.824219 505.808594 812.378906 502.171875 812.882812 499.78125 C 813.40625 497.289062 811.414062 492.019531 810.761719 490.289062 C 810.4375 489.441406 810.105469 488.578125 809.769531 487.71875 C 807.457031 481.769531 804.832031 475.019531 804.339844 466.96875 C 803.476562 452.929688 810.1875 440.230469 821.429688 434.601562 C 829.667969 430.46875 839.835938 431.019531 847.960938 436.039062 C 855.472656 440.679688 859.957031 448.488281 859.953125 456.921875 C 859.953125 466.148438 852.472656 473.621094 843.25 473.621094 C 843.246094 473.621094 843.246094 473.621094 843.246094 473.621094 C 842.144531 473.621094 841.066406 473.511719 840.023438 473.308594 C 840.308594 474.070312 840.609375 474.828125 840.910156 475.609375 C 841.285156 476.570312 841.65625 477.53125 842.019531 478.488281 C 844.851562 485.988281 847.820312 495.980469 845.582031 506.640625 C 843.082031 518.550781 835.4375 526.378906 829.292969 532.679688 C 826.078125 535.96875 823.042969 539.078125 821.820312 541.699219 C 819.359375 546.96875 821.6875 556.101562 824.28125 565 L 835.96875 605.078125 C 838.550781 613.941406 833.464844 623.21875 824.609375 625.800781 C 823.046875 626.25 821.472656 626.46875 819.925781 626.46875" fill="#e1c33c"/></g><g><path d="M 874.605469 591.621094 Z M 884.546875 613.851562 C 876.535156 613.851562 869.464844 608.070312 868.09375 599.910156 C 867.394531 595.730469 868.304688 591.660156 870.378906 588.328125 C 870.09375 588.128906 869.824219 587.949219 869.578125 587.789062 C 864.941406 584.660156 856.3125 578.839844 852.660156 568.398438 C 849.199219 558.5 851.238281 547.089844 858.402344 536.289062 C 859.714844 534.300781 861.027344 532.539062 862.296875 530.839844 C 864.21875 528.261719 866.03125 525.820312 866.753906 523.980469 C 868.007812 520.761719 867.222656 515.511719 864.597656 509.578125 C 863.066406 506.121094 861.070312 502.570312 858.957031 498.820312 C 856.445312 494.351562 853.851562 489.730469 851.609375 484.558594 C 845.304688 470 844.585938 456.050781 849.527344 444.238281 C 853.257812 435.328125 860.90625 427.878906 869.992188 424.320312 C 878.230469 421.089844 886.964844 421.230469 894.589844 424.699219 C 902.988281 428.519531 906.695312 438.429688 902.871094 446.820312 C 899.21875 454.839844 890.015625 458.589844 881.878906 455.570312 C 881.320312 455.890625 880.601562 456.53125 880.351562 457.128906 C 879.054688 460.230469 879.773438 465.519531 882.269531 471.28125 C 883.820312 474.871094 885.890625 478.539062 888.082031 482.441406 C 890.484375 486.71875 892.972656 491.140625 895.148438 496.058594 C 901.535156 510.480469 902.476562 524.339844 897.878906 536.121094 C 895.519531 542.160156 891.957031 546.949219 889.097656 550.789062 C 888.046875 552.199219 887.058594 553.53125 886.25 554.75 C 885.476562 555.910156 885.007812 556.851562 884.734375 557.519531 C 885.851562 558.460938 887.578125 559.628906 888.261719 560.089844 C 893.429688 563.570312 901.234375 568.839844 905.175781 578.238281 C 908.324219 585.75 907.851562 594.5 903.90625 601.660156 C 900.363281 608.089844 894.324219 612.449219 887.332031 613.621094 C 886.398438 613.78125 885.46875 613.851562 884.546875 613.851562" fill="#f5d649"/></g><g><path d="M 411.988281 1329.359375 C 407.160156 1329.359375 402.371094 1327.28125 399.066406 1323.25 C 393.214844 1316.121094 394.25 1305.601562 401.378906 1299.738281 C 410.484375 1292.269531 408.996094 1274.308594 403.488281 1259.820312 C 401.664062 1255.03125 399.519531 1250.199219 397.25 1245.101562 C 390.550781 1230.03125 382.957031 1212.941406 383.304688 1193.71875 C 383.628906 1175.660156 390.929688 1159.660156 397.375 1145.539062 C 402.898438 1133.429688 408.121094 1121.988281 408.441406 1110.96875 C 408.773438 1099.679688 403.992188 1087.800781 398.929688 1075.21875 C 394.132812 1063.289062 389.167969 1050.949219 387.441406 1037.070312 C 385.007812 1017.519531 389.484375 999.46875 393.8125 982.011719 C 397.117188 968.691406 400.238281 956.101562 399.914062 944.058594 C 399.5625 931.011719 395.179688 917.398438 390.539062 902.988281 C 383.445312 880.96875 375.410156 856.019531 382.761719 830.230469 C 386.675781 816.5 394.078125 805.53125 401.238281 794.910156 C 406.355469 787.328125 411.183594 780.171875 414.066406 772.828125 C 418.101562 762.558594 418.882812 750.519531 419.710938 737.78125 C 420.292969 728.789062 420.898438 719.5 422.667969 710.070312 C 425.34375 695.828125 431.992188 681.789062 440.910156 671.570312 C 452.382812 658.421875 467.1875 651.761719 482.597656 652.800781 C 491.804688 653.429688 498.757812 661.398438 498.132812 670.601562 C 497.507812 679.808594 489.554688 686.769531 480.332031 686.140625 C 469.003906 685.378906 458.351562 701.078125 455.503906 716.238281 C 454.105469 723.679688 453.59375 731.578125 453.050781 739.941406 C 452.09375 754.679688 451.105469 769.921875 445.164062 785.050781 C 440.9375 795.808594 434.835938 804.851562 428.9375 813.601562 C 422.976562 822.429688 417.347656 830.78125 414.890625 839.390625 C 410.320312 855.429688 416.160156 873.558594 422.339844 892.75 C 427.5 908.761719 432.832031 925.320312 433.3125 943.160156 C 433.757812 959.730469 429.9375 975.148438 426.242188 990.050781 C 422.480469 1005.21875 418.929688 1019.550781 420.597656 1032.941406 C 421.785156 1042.511719 425.742188 1052.339844 429.929688 1062.75 C 435.761719 1077.25 442.375 1093.691406 441.839844 1111.949219 C 441.320312 1129.710938 434.121094 1145.488281 427.769531 1159.410156 C 422.183594 1171.648438 416.910156 1183.210938 416.710938 1194.320312 C 416.496094 1206.140625 421.976562 1218.46875 427.78125 1231.519531 C 430.132812 1236.820312 432.566406 1242.289062 434.714844 1247.941406 C 444.195312 1272.871094 445.988281 1306.351562 422.578125 1325.570312 C 419.472656 1328.121094 415.71875 1329.359375 411.988281 1329.359375" fill="#f5d649"/></g><g><path d="M 460.117188 1338.820312 C 458.433594 1338.820312 456.722656 1338.570312 455.03125 1338.03125 C 447.382812 1335.589844 441.0625 1330.128906 437.238281 1322.660156 C 432.398438 1313.210938 431.660156 1300.96875 435.265625 1289.941406 C 436.941406 1284.789062 439.214844 1280.148438 441.21875 1276.050781 C 443.59375 1271.199219 445.644531 1267.011719 446.164062 1263.371094 C 447.324219 1255.238281 441.480469 1246.121094 434.71875 1235.558594 C 428.964844 1226.578125 422.445312 1216.398438 419.1875 1204.621094 C 411.660156 1177.398438 423.289062 1151.039062 435.65625 1128.839844 L 437.558594 1125.441406 C 447.191406 1108.21875 456.296875 1091.96875 455.375 1075.921875 C 454.628906 1062.859375 447.078125 1049.789062 439.082031 1035.949219 C 429.183594 1018.808594 417.960938 999.378906 418.5 976.359375 C 418.90625 959.148438 425.914062 944.089844 432.09375 930.800781 C 436.78125 920.730469 441.207031 911.21875 442.410156 901.96875 C 444.015625 889.671875 440.195312 876.101562 436.152344 861.730469 C 430.953125 843.261719 425.0625 822.328125 430.609375 800.671875 C 434.003906 787.421875 441.183594 776.269531 447.515625 766.441406 C 453.441406 757.230469 459.039062 748.53125 460.535156 739.859375 C 461.765625 732.730469 460.429688 724.359375 459.015625 715.511719 C 458.546875 712.570312 458.0625 709.539062 457.65625 706.449219 C 454.84375 685.171875 458.117188 668.941406 467.664062 656.828125 C 475.488281 646.910156 488.40625 641.109375 501.34375 641.71875 C 512.519531 642.238281 522.195312 647.589844 527.894531 656.398438 C 532.910156 664.140625 530.695312 674.480469 522.949219 679.5 C 515.398438 684.390625 505.378906 682.398438 500.234375 675.121094 C 498.757812 674.859375 495.386719 675.640625 493.90625 677.511719 C 490.285156 682.109375 489.230469 690.371094 490.777344 702.070312 C 491.128906 704.71875 491.558594 707.398438 492.011719 710.238281 C 493.707031 720.878906 495.632812 732.941406 493.460938 745.539062 C 490.8125 760.910156 482.734375 773.449219 475.609375 784.519531 C 470.167969 792.96875 465.027344 800.960938 462.976562 808.960938 C 459.65625 821.921875 463.859375 836.859375 468.3125 852.671875 C 473.089844 869.648438 478.03125 887.199219 475.542969 906.289062 C 473.671875 920.640625 467.933594 932.96875 462.386719 944.898438 C 457.121094 956.21875 452.144531 966.910156 451.902344 977.148438 C 451.582031 990.789062 459.5625 1004.609375 468.015625 1019.238281 C 477.160156 1035.070312 487.53125 1053.019531 488.730469 1074 C 490.210938 1099.78125 477.726562 1122.078125 466.710938 1141.761719 L 464.84375 1145.101562 C 455.773438 1161.378906 447.082031 1180.128906 451.390625 1195.71875 C 453.304688 1202.628906 457.941406 1209.871094 462.851562 1217.539062 C 471.898438 1231.660156 482.15625 1247.679688 479.238281 1268.089844 C 477.972656 1276.960938 474.390625 1284.28125 471.230469 1290.738281 C 469.558594 1294.160156 467.980469 1297.378906 467.023438 1300.300781 C 466.210938 1302.800781 466.363281 1305.421875 466.730469 1306.769531 C 474.535156 1310.128906 478.664062 1318.929688 476.027344 1327.191406 C 473.761719 1334.289062 467.191406 1338.820312 460.117188 1338.820312" fill="#e1c33c"/></g><g><path d="M 521.996094 1334.101562 C 519.792969 1334.101562 517.550781 1333.660156 515.394531 1332.738281 C 492.945312 1323.070312 486.195312 1296.671875 489.464844 1274.789062 C 490.46875 1268.070312 492.109375 1261.78125 493.695312 1255.699219 C 495.886719 1247.289062 497.960938 1239.351562 497.734375 1232.148438 C 497.46875 1223.601562 493.917969 1214.441406 490.160156 1204.75 C 485.949219 1193.898438 481.171875 1181.589844 480.394531 1167.988281 C 479.144531 1146.140625 488.320312 1126.800781 496.417969 1109.730469 C 503.230469 1095.378906 509.667969 1081.808594 509.402344 1068.75 C 509.140625 1055.878906 502.359375 1042.828125 495.179688 1029.019531 C 487.226562 1013.71875 478.210938 996.378906 477.207031 976.519531 C 476.386719 960.269531 480.902344 945.839844 485.269531 931.890625 C 487.964844 923.28125 490.511719 915.140625 491.53125 907.269531 C 493.734375 890.25 489.117188 872.398438 484.226562 853.5 C 479.550781 835.421875 474.714844 816.730469 475.261719 796.789062 C 475.894531 773.878906 483.722656 752.441406 490.625 733.53125 L 514.496094 668.148438 C 516.835938 661.738281 520.367188 652.070312 528.921875 645.199219 C 535.28125 640.101562 543.871094 637.71875 551.90625 638.859375 C 559.148438 639.878906 565.367188 643.601562 569.414062 649.339844 C 574.730469 656.878906 572.929688 667.308594 565.386719 672.621094 C 560.152344 676.308594 553.523438 676.570312 548.1875 673.859375 C 547.289062 675.75 546.410156 678.160156 545.882812 679.601562 L 522.011719 744.988281 C 515.683594 762.308594 509.144531 780.230469 508.660156 797.710938 C 508.242188 812.929688 512.289062 828.570312 516.574219 845.128906 C 522.042969 866.269531 527.699219 888.128906 524.664062 911.558594 C 523.269531 922.328125 520.160156 932.269531 517.152344 941.871094 C 513.503906 953.539062 510.058594 964.550781 510.574219 974.828125 C 511.210938 987.421875 517.824219 1000.148438 524.824219 1013.609375 C 533.054688 1029.449219 542.382812 1047.398438 542.804688 1068.058594 C 543.234375 1089.019531 534.398438 1107.628906 526.605469 1124.058594 C 519.601562 1138.808594 512.988281 1152.75 513.75 1166.078125 C 514.226562 1174.421875 517.667969 1183.28125 521.308594 1192.671875 C 525.703125 1204 530.6875 1216.839844 531.132812 1231.109375 C 531.503906 1243.121094 528.59375 1254.289062 526.023438 1264.128906 C 524.597656 1269.609375 523.246094 1274.78125 522.507812 1279.730469 C 520.984375 1289.929688 523.722656 1299.941406 528.613281 1302.050781 C 537.089844 1305.699219 540.996094 1315.53125 537.347656 1324 C 534.625 1330.320312 528.46875 1334.101562 521.996094 1334.101562" fill="#e1c33c"/></g><g><path d="M 578.519531 1335.089844 C 578.386719 1335.089844 578.253906 1335.089844 578.117188 1335.089844 C 570.296875 1334.898438 562.945312 1331.449219 557.421875 1325.371094 C 551.148438 1318.480469 547.804688 1308.761719 548.472656 1299.398438 C 549.425781 1286.121094 556.914062 1275.578125 561.875 1268.609375 C 565.253906 1263.851562 569.085938 1258.46875 569.453125 1254.539062 C 569.886719 1249.910156 566.070312 1243.871094 561.65625 1236.871094 C 557.507812 1230.289062 552.804688 1222.839844 550.195312 1214.011719 C 544.183594 1193.691406 551.1875 1175.050781 557.371094 1158.609375 C 560.636719 1149.921875 563.726562 1141.710938 564.6875 1134.070312 C 566.558594 1119.230469 560.714844 1103.320312 554.523438 1086.46875 C 547.359375 1066.960938 539.238281 1044.851562 542.929688 1021.261719 C 545.511719 1004.761719 553.222656 990.769531 560.683594 977.238281 C 568.835938 962.460938 575.878906 949.699219 574.304688 937.171875 C 573.171875 928.140625 567.25 919.019531 560.984375 909.371094 C 554.4375 899.28125 547.019531 887.851562 543.660156 874.230469 C 536.875 846.710938 548.460938 821.589844 558.683594 799.421875 C 566.261719 783 573.414062 767.488281 573.183594 752.558594 C 573.035156 743.019531 569.867188 732.691406 566.511719 721.738281 C 560.871094 703.351562 554.476562 682.5 562.101562 660.898438 C 564.078125 655.300781 569.265625 646.519531 574.710938 639.539062 C 584.511719 626.988281 594.195312 621.160156 604.324219 621.691406 C 609.746094 621.980469 622.871094 624.820312 627.640625 644.890625 C 629.773438 653.871094 624.222656 662.878906 615.246094 665.011719 C 609.710938 666.320312 604.164062 664.71875 600.226562 661.191406 C 597.308594 665.121094 594.511719 669.671875 593.589844 672.070312 C 589.648438 683.238281 593.730469 696.539062 598.453125 711.949219 C 602.34375 724.640625 606.367188 737.761719 606.589844 752.039062 C 606.941406 774.570312 597.832031 794.320312 589.023438 813.421875 C 579.953125 833.089844 572.117188 850.070312 576.101562 866.230469 C 578.113281 874.378906 583.40625 882.539062 589.011719 891.179688 C 596.679688 902.988281 605.367188 916.378906 607.453125 933.011719 C 610.382812 956.320312 599.523438 976.011719 589.941406 993.378906 C 583.597656 1004.878906 577.609375 1015.738281 575.9375 1026.429688 C 573.585938 1041.460938 579.5625 1057.730469 585.886719 1074.949219 C 593.183594 1094.808594 600.726562 1115.351562 597.835938 1138.25 C 596.382812 1149.789062 592.449219 1160.25 588.644531 1170.371094 C 583.683594 1183.558594 579.398438 1194.960938 582.234375 1204.539062 C 583.53125 1208.921875 586.632812 1213.839844 589.917969 1219.050781 C 596.285156 1229.140625 604.207031 1241.699219 602.722656 1257.640625 C 601.519531 1270.511719 594.34375 1280.601562 589.101562 1287.96875 C 586.140625 1292.140625 582.082031 1297.839844 581.800781 1301.78125 C 581.796875 1301.839844 581.804688 1301.921875 581.820312 1302.011719 C 589.617188 1303.570312 595.40625 1310.550781 595.210938 1318.78125 C 594.996094 1327.871094 587.5625 1335.089844 578.519531 1335.089844" fill="#e1c33c"/></g><g><path d="M 921.789062 1346.5 C 915.082031 1346.5 908.753906 1342.429688 906.199219 1335.800781 C 902.917969 1327.300781 907.058594 1317.761719 915.449219 1314.328125 C 916.433594 1312.628906 916.796875 1306.839844 914.460938 1301.699219 C 912.894531 1298.25 910.710938 1294.640625 908.402344 1290.820312 C 903.355469 1282.46875 897.636719 1273.011719 895.863281 1261.148438 C 893.351562 1244.320312 899.640625 1229.859375 905.1875 1217.109375 C 908.597656 1209.269531 911.820312 1201.871094 912.4375 1195.179688 C 913.601562 1182.53125 906.140625 1169.800781 897.503906 1155.050781 C 888.203125 1139.160156 877.664062 1121.160156 877.59375 1099.878906 C 877.515625 1076.171875 890.257812 1057.121094 901.496094 1040.320312 C 909.757812 1027.96875 917.558594 1016.308594 919.765625 1004.289062 C 922.382812 990.03125 917.28125 974.398438 911.886719 957.839844 C 906.277344 940.640625 900.476562 922.859375 901.667969 903.28125 C 902.699219 886.371094 908.757812 871.441406 914.617188 856.988281 C 920.515625 842.460938 926.085938 828.730469 924.894531 815.808594 C 923.953125 805.589844 918.714844 794.960938 913.167969 783.691406 C 905.105469 767.308594 895.964844 748.75 898.769531 727.261719 C 900.597656 713.21875 907.25 701.390625 913.117188 690.949219 C 918.558594 681.28125 923.257812 672.921875 923.480469 664.851562 C 923.6875 657.539062 920.109375 649.210938 916.316406 640.390625 C 915.359375 638.160156 914.367188 635.851562 913.410156 633.5 C 904.851562 612.460938 904.464844 594.621094 912.261719 580.46875 C 918.800781 568.609375 932.742188 560.929688 946.921875 561.339844 C 959.160156 561.710938 969.40625 568.121094 974.335938 578.480469 C 978.296875 586.820312 974.753906 596.78125 966.417969 600.738281 C 958.761719 604.378906 949.726562 601.691406 945.238281 594.761719 C 943.839844 594.941406 941.976562 595.800781 941.523438 596.589844 C 938.867188 601.410156 939.851562 609.820312 944.359375 620.910156 C 945.191406 622.960938 946.078125 625.019531 947.015625 627.199219 C 951.832031 638.410156 957.292969 651.121094 956.882812 665.789062 C 956.421875 682.109375 948.890625 695.511719 942.242188 707.328125 C 937.433594 715.878906 932.894531 723.960938 931.898438 731.578125 C 930.402344 743.050781 936.308594 755.039062 943.144531 768.929688 C 949.480469 781.800781 956.65625 796.378906 958.164062 812.75 C 960.101562 833.761719 952.386719 852.78125 945.578125 869.558594 C 940.507812 882.058594 935.714844 893.871094 935.019531 905.308594 C 934.210938 918.539062 938.796875 932.601562 943.648438 947.480469 C 949.800781 966.351562 956.773438 987.730469 952.628906 1010.320312 C 949.171875 1029.140625 938.597656 1044.949219 929.269531 1058.898438 C 919.445312 1073.578125 910.960938 1086.261719 911.003906 1099.769531 C 911.042969 1112.050781 918.472656 1124.730469 926.335938 1138.160156 C 936.421875 1155.390625 947.855469 1174.910156 945.707031 1198.238281 C 944.597656 1210.28125 939.9375 1220.988281 935.824219 1230.441406 C 931.523438 1240.328125 927.808594 1248.859375 928.90625 1256.210938 C 929.691406 1261.460938 933.074219 1267.050781 936.992188 1273.53125 C 939.699219 1278.011719 942.503906 1282.640625 944.882812 1287.878906 C 950.554688 1300.371094 951.175781 1315.238281 946.496094 1326.679688 C 942.902344 1335.46875 936.261719 1342.109375 927.796875 1345.371094 C 925.820312 1346.140625 923.785156 1346.5 921.789062 1346.5" fill="#e1c33c"/></g><g><path d="M 813.476562 1350.910156 C 806.910156 1350.910156 800.683594 1347.011719 798.023438 1340.570312 C 795.011719 1333.261719 797.5625 1325.039062 803.722656 1320.628906 C 803.480469 1319.199219 802.855469 1317.269531 801.742188 1315.710938 C 800.53125 1314.019531 799.046875 1312.191406 797.472656 1310.261719 C 791.335938 1302.730469 782.925781 1292.410156 782.878906 1278.230469 C 782.828125 1262.328125 793.054688 1251.621094 800.519531 1243.789062 C 804.101562 1240.050781 807.480469 1236.511719 809.019531 1233.390625 C 811.921875 1227.539062 810.351562 1218.070312 804.355469 1205.238281 C 803.496094 1203.410156 802.609375 1201.570312 801.714844 1199.71875 C 795.554688 1186.980469 788.574219 1172.53125 789.316406 1155.628906 C 790.1875 1135.941406 801.085938 1120.71875 810.703125 1107.300781 C 817.914062 1097.230469 824.730469 1087.710938 825.964844 1078.269531 C 827.667969 1065.199219 819.304688 1052.019531 809.621094 1036.761719 C 799.492188 1020.800781 788.011719 1002.699219 787.324219 981.011719 C 786.8125 965 792.386719 950.679688 797.304688 938.039062 C 801.105469 928.269531 804.695312 919.039062 805.082031 910.398438 C 805.683594 896.898438 798.636719 882.929688 791.171875 868.140625 C 782.863281 851.671875 773.445312 833.011719 773.546875 811.769531 C 773.667969 786.480469 787.015625 765.570312 798.789062 747.109375 C 808.34375 732.148438 817.363281 718.011719 818.929688 703.339844 C 820.019531 693.101562 817.511719 681.929688 814.859375 670.101562 C 814.015625 666.339844 813.144531 662.460938 812.371094 658.53125 C 807.269531 632.519531 809.914062 612.410156 820.460938 597.039062 C 828.855469 584.808594 843.539062 576.980469 858.785156 576.609375 C 871.671875 576.289062 883.230469 581.589844 890.484375 591.140625 C 896.066406 598.480469 894.640625 608.960938 887.292969 614.539062 C 879.949219 620.128906 869.46875 618.699219 863.886719 611.351562 C 862.945312 610.121094 860.800781 609.980469 859.597656 610.011719 C 855.167969 610.121094 850.296875 612.609375 848.011719 615.941406 C 842.808594 623.53125 841.875 635.351562 845.160156 652.089844 C 845.84375 655.578125 846.628906 659.078125 847.460938 662.789062 C 850.589844 676.738281 853.824219 691.160156 852.152344 706.878906 C 849.753906 729.359375 838.164062 747.519531 826.957031 765.089844 C 816.710938 781.140625 807.03125 796.308594 806.957031 811.921875 C 806.894531 825.140625 813.746094 838.710938 820.996094 853.089844 C 829.648438 870.230469 839.453125 889.648438 838.460938 911.890625 C 837.828125 926.019531 832.839844 938.851562 828.441406 950.160156 C 824.320312 960.75 820.425781 970.761719 820.71875 979.949219 C 821.117188 992.511719 829.234375 1005.308594 837.835938 1018.859375 C 849.332031 1036.980469 862.367188 1057.53125 859.09375 1082.601562 C 856.773438 1100.351562 846.726562 1114.378906 837.863281 1126.75 C 829.957031 1137.789062 823.128906 1147.328125 822.695312 1157.101562 C 822.324219 1165.578125 826.925781 1175.101562 831.796875 1185.179688 C 832.753906 1187.160156 833.703125 1189.128906 834.621094 1191.089844 C 845.285156 1213.898438 846.707031 1232.589844 838.960938 1248.21875 C 835.160156 1255.898438 829.597656 1261.71875 824.6875 1266.871094 C 820.945312 1270.789062 816.28125 1275.671875 816.289062 1278.121094 C 816.296875 1280.46875 820.222656 1285.289062 823.375 1289.160156 C 825.203125 1291.398438 827.09375 1293.71875 828.914062 1296.269531 C 836.332031 1306.628906 839.09375 1320.410156 835.953125 1331.371094 C 833.515625 1339.871094 827.789062 1346.359375 819.839844 1349.640625 C 817.753906 1350.5 815.597656 1350.910156 813.476562 1350.910156" fill="#e1c33c"/></g><g><path d="M 709.308594 1350.898438 C 705.078125 1350.898438 700.851562 1349.308594 697.597656 1346.109375 C 689.53125 1338.179688 681.539062 1329.421875 680.148438 1317.289062 C 678.941406 1306.808594 682.953125 1297.308594 687.601562 1286.308594 C 691.453125 1277.191406 696.8125 1269.460938 701.996094 1261.988281 C 708.6875 1252.339844 714.46875 1244 714.882812 1235.679688 C 715.304688 1227.191406 710.179688 1218.199219 704.25 1207.78125 C 699.765625 1199.910156 695.128906 1191.78125 692.066406 1182.429688 C 681.84375 1151.25 693.496094 1120.648438 703.777344 1093.660156 C 712.425781 1070.949219 720.59375 1049.488281 716.351562 1029.871094 C 714.453125 1021.070312 709.898438 1012.230469 705.078125 1002.859375 C 698.730469 990.53125 691.535156 976.558594 689.742188 960.441406 C 687.207031 937.628906 695.992188 917.039062 703.742188 898.871094 C 709.71875 884.851562 715.363281 871.609375 715.722656 858.769531 C 716.132812 844.058594 709.734375 828.578125 702.957031 812.191406 C 693.519531 789.359375 682.820312 763.480469 691.128906 735.980469 C 694.808594 723.800781 701.804688 713.390625 707.980469 704.199219 C 715.136719 693.558594 721.316406 684.359375 721.09375 675.359375 C 720.984375 671.019531 719.273438 665.828125 717.457031 660.339844 C 716.441406 657.269531 715.394531 654.089844 714.484375 650.699219 C 709.78125 633.148438 712.410156 617.671875 721.886719 607.128906 C 729.652344 598.480469 742.738281 594.878906 754.449219 598.171875 C 764.941406 601.109375 772.335938 608.910156 774.234375 619.03125 C 775.933594 628.101562 769.960938 636.828125 760.894531 638.53125 C 755.085938 639.621094 749.414062 637.558594 745.640625 633.550781 C 745.542969 635.660156 745.808594 638.511719 746.757812 642.050781 C 747.417969 644.519531 748.273438 647.109375 749.183594 649.859375 C 751.5625 657.070312 754.265625 665.238281 754.496094 674.53125 C 754.980469 694.171875 744.742188 709.398438 735.710938 722.839844 C 730.375 730.769531 725.339844 738.269531 723.113281 745.640625 C 718.253906 761.730469 725.472656 779.199219 733.835938 799.429688 C 741.648438 818.328125 749.730469 837.871094 749.121094 859.699219 C 748.585938 878.878906 741.410156 895.710938 734.472656 911.96875 C 727.742188 927.761719 721.386719 942.671875 722.949219 956.738281 C 724.058594 966.738281 729.269531 976.859375 734.785156 987.570312 C 740.386719 998.449219 746.175781 1009.699219 749.011719 1022.808594 C 755.34375 1052.121094 745.003906 1079.28125 735 1105.550781 C 725.886719 1129.480469 717.277344 1152.089844 723.8125 1172.019531 C 725.828125 1178.160156 729.445312 1184.519531 733.28125 1191.238281 C 740.722656 1204.308594 749.15625 1219.121094 748.253906 1237.339844 C 747.363281 1255.199219 737.847656 1268.921875 729.453125 1281.03125 C 725.046875 1287.378906 720.882812 1293.378906 718.378906 1299.308594 C 716.628906 1303.449219 713.40625 1311.089844 713.34375 1313.390625 C 713.628906 1314.070312 714.949219 1316.320312 721.019531 1322.289062 C 727.601562 1328.75 727.691406 1339.328125 721.222656 1345.910156 C 717.949219 1349.238281 713.632812 1350.898438 709.308594 1350.898438" fill="#e1c33c"/></g><g><path d="M 646.726562 1340.121094 C 638.496094 1340.121094 631.332031 1334.039062 630.195312 1325.660156 L 621.257812 1259.75 C 618.601562 1240.160156 615.59375 1217.949219 619.347656 1195.828125 C 620.980469 1186.179688 623.773438 1177.171875 626.472656 1168.460938 C 629.804688 1157.710938 632.953125 1147.539062 633.40625 1137.71875 C 634.214844 1120.191406 626.640625 1102.308594 618.621094 1083.371094 C 608.738281 1060.039062 598.519531 1035.921875 601.972656 1008.621094 C 603.992188 992.671875 610.375 978.941406 616.550781 965.660156 C 621.664062 954.671875 626.492188 944.289062 628.109375 933.929688 C 630.671875 917.53125 625.457031 899.960938 619.9375 881.359375 C 613.691406 860.300781 607.226562 838.519531 610.632812 814.980469 C 613.203125 797.21875 620.941406 781.960938 628.425781 767.210938 C 635.707031 752.871094 642.582031 739.308594 643.214844 725.699219 C 643.574219 717.929688 641.914062 709.511719 640.152344 700.601562 C 639.574219 697.671875 638.976562 694.628906 638.4375 691.550781 C 636.09375 678.171875 634.363281 660.691406 641.84375 644.199219 C 651.089844 623.808594 672.75 612.53125 692.226562 617.96875 C 701.113281 620.449219 706.304688 629.660156 703.824219 638.550781 C 701.339844 647.441406 692.125 652.628906 683.238281 650.148438 C 680.277344 649.320312 674.636719 652.78125 672.273438 657.988281 C 669.382812 664.371094 669.097656 672.941406 671.347656 685.789062 C 671.824219 688.511719 672.363281 691.238281 672.933594 694.128906 C 675 704.609375 677.136719 715.441406 676.589844 727.25 C 675.625 748.03125 666.777344 765.46875 658.222656 782.328125 C 651.671875 795.238281 645.484375 807.441406 643.699219 819.761719 C 641.34375 836.050781 646.507812 853.441406 651.96875 871.859375 C 658.296875 893.191406 664.84375 915.238281 661.121094 939.078125 C 658.777344 954.109375 652.710938 967.148438 646.847656 979.761719 C 641.515625 991.210938 636.484375 1002.03125 635.121094 1012.808594 C 632.796875 1031.179688 640.855469 1050.199219 649.386719 1070.339844 C 658.507812 1091.878906 667.941406 1114.148438 666.78125 1139.261719 C 666.132812 1153.351562 662.195312 1166.058594 658.386719 1178.351562 C 655.902344 1186.371094 653.554688 1193.949219 652.285156 1201.410156 C 649.386719 1218.519531 651.917969 1237.199219 654.367188 1255.261719 L 663.304688 1321.171875 C 664.542969 1330.308594 658.136719 1338.730469 648.992188 1339.96875 C 648.230469 1340.070312 647.476562 1340.121094 646.726562 1340.121094" fill="#e1c33c"/></g><g><path d="M 539.976562 1322.648438 C 535.777344 1322.648438 531.574219 1321.078125 528.328125 1317.921875 C 521.714844 1311.488281 521.570312 1300.910156 528.003906 1294.300781 C 530.847656 1291.371094 532.226562 1285.550781 531.691406 1278.730469 C 531.265625 1273.261719 529.828125 1267.429688 528.308594 1261.261719 C 527.480469 1257.878906 526.621094 1254.390625 525.878906 1250.78125 C 522.589844 1234.738281 522.140625 1218.851562 521.707031 1203.488281 L 516.289062 1011.878906 C 515.570312 986.441406 514.828125 960.128906 515.949219 933.960938 C 516.1875 928.410156 516.511719 922.808594 516.824219 917.398438 C 517.945312 898.03125 519.003906 879.738281 516.53125 861.929688 C 515.832031 856.878906 514.835938 851.730469 513.785156 846.269531 C 510.628906 829.941406 507.050781 811.421875 511.765625 792.621094 C 514.65625 781.089844 520.359375 770.910156 525.394531 761.929688 C 531.230469 751.519531 536.265625 742.53125 536.351562 733.71875 C 536.40625 728.078125 534.320312 721.578125 532.109375 714.691406 C 530.082031 708.359375 527.78125 701.179688 526.769531 693.460938 C 524.855469 678.910156 529.910156 663.191406 539.640625 653.410156 C 547.207031 645.808594 556.964844 642.328125 567.113281 643.609375 C 576.269531 644.769531 582.75 653.128906 581.59375 662.28125 C 580.460938 671.261719 572.40625 677.671875 563.460938 676.820312 C 561.699219 678.28125 559.210938 683.878906 559.894531 689.109375 C 560.515625 693.851562 562.171875 699.011719 563.929688 704.488281 C 566.710938 713.171875 569.867188 723.019531 569.761719 734.050781 C 569.59375 751.398438 561.597656 765.671875 554.539062 778.261719 C 550.140625 786.121094 545.980469 793.539062 544.171875 800.75 C 541.261719 812.359375 543.851562 825.761719 546.589844 839.941406 C 547.679688 845.578125 548.804688 851.410156 549.628906 857.339844 C 552.546875 878.398438 551.34375 899.210938 550.179688 919.328125 C 549.875 924.621094 549.558594 930.089844 549.332031 935.398438 C 548.257812 960.378906 548.984375 986.078125 549.6875 1010.929688 L 555.105469 1202.550781 C 555.519531 1217.121094 555.90625 1230.878906 558.609375 1244.070312 C 559.21875 1247.039062 559.964844 1250.070312 560.753906 1253.269531 C 562.527344 1260.480469 564.359375 1267.929688 565.003906 1276.121094 C 566.3125 1292.871094 561.679688 1307.589844 551.949219 1317.589844 C 548.675781 1320.960938 544.328125 1322.648438 539.976562 1322.648438" fill="#f5d649"/></g><g><path d="M 871.382812 1337.359375 C 862.429688 1337.359375 855.019531 1330.269531 854.695312 1321.25 L 851.652344 1236.25 C 850.789062 1212.179688 849.898438 1187.289062 844.765625 1164.078125 C 843.722656 1159.371094 842.503906 1154.660156 841.210938 1149.679688 C 837.09375 1133.800781 832.835938 1117.378906 834.066406 1099.5 C 835.253906 1082.320312 841.3125 1066.890625 847.171875 1051.96875 C 853.59375 1035.609375 859.65625 1020.160156 857.359375 1005.851562 C 855.667969 995.300781 849.324219 984.679688 842.605469 973.441406 C 832.898438 957.199219 821.898438 938.789062 823.386719 916.410156 C 824.601562 898.078125 833.96875 883.210938 842.234375 870.089844 C 848.6875 859.839844 854.777344 850.171875 856 840.628906 C 857.484375 829.039062 852.167969 815.820312 846.535156 801.828125 C 838.5 781.859375 829.390625 759.21875 838.71875 735.351562 C 843.269531 723.710938 851.285156 714.96875 858.355469 707.25 C 864.847656 700.171875 870.453125 694.058594 871.917969 687.671875 C 873.785156 679.539062 869.144531 668.601562 865.050781 658.949219 C 860.191406 647.5 852.0625 628.339844 857.453125 608.910156 C 860.988281 596.171875 871.578125 585.238281 884.433594 581.050781 C 895.378906 577.480469 906.515625 579.289062 914.988281 586.011719 C 922.21875 591.738281 923.433594 602.25 917.699219 609.480469 C 912.160156 616.46875 902.15625 617.839844 894.964844 612.738281 C 893.332031 613.160156 890.335938 615.359375 889.648438 617.839844 C 887.554688 625.398438 891.542969 635.851562 895.808594 645.898438 C 901.277344 658.800781 908.773438 676.460938 904.480469 695.140625 C 901.042969 710.128906 891.449219 720.601562 882.984375 729.828125 C 877.394531 735.929688 872.113281 741.691406 869.839844 747.511719 C 865.332031 759.039062 870.984375 773.089844 877.53125 789.359375 C 884.1875 805.898438 891.734375 824.648438 889.140625 844.871094 C 886.980469 861.730469 878.226562 875.628906 870.507812 887.890625 C 863.757812 898.609375 857.378906 908.730469 856.722656 918.621094 C 855.929688 930.601562 863.046875 942.511719 871.285156 956.300781 C 878.953125 969.128906 887.640625 983.671875 890.351562 1000.558594 C 894.09375 1023.878906 885.6875 1045.289062 878.269531 1064.179688 C 873.109375 1077.328125 868.230469 1089.75 867.398438 1101.800781 C 866.539062 1114.261719 869.945312 1127.390625 873.550781 1141.289062 C 874.859375 1146.339844 876.214844 1151.570312 877.386719 1156.859375 C 883.179688 1183.050781 884.128906 1209.488281 885.042969 1235.050781 L 888.085938 1320.058594 C 888.417969 1329.28125 881.210938 1337.019531 871.988281 1337.351562 C 871.785156 1337.359375 871.582031 1337.359375 871.382812 1337.359375" fill="#f5d649"/></g><g><path d="M 955.828125 1340.269531 C 947.25 1340.269531 939.953125 1333.699219 939.203125 1325 L 930.1875 1220.128906 C 928.332031 1198.550781 926.230469 1174.101562 933.832031 1150.371094 C 936.804688 1141.089844 940.988281 1132.769531 945.035156 1124.730469 C 949.882812 1115.089844 954.460938 1105.980469 955.9375 1096.949219 C 958.203125 1083.128906 953.519531 1068.109375 948.558594 1052.210938 C 944.132812 1038.019531 939.558594 1023.351562 938.972656 1007.378906 C 937.964844 979.800781 949.351562 954.488281 959.394531 932.148438 C 960.609375 929.449219 961.820312 926.761719 963.007812 924.070312 C 972.191406 903.269531 980.648438 879.261719 973.746094 858.898438 C 970.984375 850.761719 965.574219 842.761719 959.851562 834.289062 C 951.203125 821.511719 941.40625 807.011719 939.214844 788.839844 C 936.847656 769.199219 944.101562 751.640625 950.5 736.160156 C 955.25 724.660156 959.738281 713.808594 959.886719 703.621094 C 960.058594 692.050781 954.421875 679.230469 949.445312 667.921875 C 943.089844 653.46875 935.882812 637.078125 936.011719 618.441406 C 936.175781 594.460938 950.316406 573.5 970.398438 567.460938 C 979.234375 564.800781 988.550781 569.808594 991.207031 578.640625 C 993.863281 587.480469 988.855469 596.800781 980.019531 599.449219 C 974.140625 601.21875 969.484375 609.660156 969.421875 618.671875 C 969.339844 630.171875 974.773438 642.519531 980.027344 654.46875 C 986.0625 668.191406 993.570312 685.261719 993.296875 704.121094 C 993.050781 720.671875 986.851562 735.679688 981.378906 748.921875 C 976.074219 761.75 971.0625 773.878906 972.386719 784.839844 C 973.609375 794.988281 980.371094 804.988281 987.527344 815.578125 C 994.238281 825.5 1001.179688 835.769531 1005.390625 848.171875 C 1016.039062 879.570312 1004.671875 912.441406 993.574219 937.570312 C 992.355469 940.320312 991.113281 943.089844 989.867188 945.859375 C 980.492188 966.699219 971.636719 986.378906 972.359375 1006.160156 C 972.78125 1017.660156 976.507812 1029.609375 980.453125 1042.261719 C 986.351562 1061.179688 992.449219 1080.730469 988.910156 1102.351562 C 986.605469 1116.421875 980.648438 1128.269531 974.882812 1139.738281 C 971.253906 1146.949219 967.824219 1153.769531 965.648438 1160.570312 C 960.09375 1177.910156 961.8125 1197.921875 963.476562 1217.261719 L 972.492188 1322.140625 C 973.28125 1331.328125 966.472656 1339.421875 957.28125 1340.210938 C 956.792969 1340.25 956.308594 1340.269531 955.828125 1340.269531" fill="#f5d649"/></g><g><path d="M 745.171875 1339.691406 C 744.519531 1339.691406 743.863281 1339.648438 743.199219 1339.570312 C 734.039062 1338.488281 727.484375 1330.191406 728.558594 1321.03125 L 739.257812 1230.039062 C 741.132812 1214.109375 743.070312 1197.628906 741.78125 1182.171875 C 741.117188 1174.210938 739.601562 1166.101562 737.992188 1157.519531 C 734.871094 1140.839844 731.644531 1123.589844 734.3125 1105.238281 C 736.714844 1088.730469 743.507812 1074 750.078125 1059.75 C 758.273438 1041.96875 765.351562 1026.621094 762.417969 1011.789062 C 760.585938 1002.53125 754.546875 993.308594 748.15625 983.539062 C 739.628906 970.5 729.960938 955.71875 728.371094 937.320312 C 726.898438 920.25 732.839844 905.058594 738.078125 891.660156 C 741.613281 882.621094 744.953125 874.078125 745.71875 866.03125 C 747.03125 852.210938 741.074219 837.519531 734.761719 821.96875 C 733.640625 819.199219 732.523438 816.449219 731.449219 813.699219 C 723.789062 794.160156 715.179688 765.179688 728.820312 739.300781 C 734.835938 727.898438 744.082031 719.558594 752.242188 712.199219 C 760.507812 704.738281 767.648438 698.300781 769.421875 690.980469 C 770.957031 684.640625 768.691406 676.171875 766.503906 667.988281 C 763.695312 657.488281 759.851562 643.109375 763.605469 628.320312 C 768.03125 610.871094 785.480469 594.558594 805.9375 598.628906 C 814.984375 600.429688 820.863281 609.21875 819.066406 618.269531 C 817.289062 627.199219 808.695312 633.039062 799.773438 631.460938 C 798.726562 631.890625 796.636719 633.980469 795.988281 636.539062 C 794.496094 642.421875 796.285156 650.019531 798.78125 659.359375 C 801.746094 670.441406 805.433594 684.230469 801.894531 698.839844 C 797.6875 716.199219 785.433594 727.261719 774.617188 737.011719 C 767.933594 743.039062 761.621094 748.730469 758.378906 754.878906 C 752.9375 765.199219 754.304688 780.460938 762.554688 801.511719 C 763.585938 804.128906 764.652344 806.761719 765.722656 809.410156 C 772.914062 827.128906 781.066406 847.230469 778.980469 869.191406 C 777.773438 881.890625 773.214844 893.550781 769.195312 903.828125 C 764.90625 914.789062 760.859375 925.148438 761.660156 934.449219 C 762.523438 944.46875 769.125 954.558594 776.117188 965.25 C 783.609375 976.699219 792.097656 989.671875 795.191406 1005.308594 C 800.230469 1030.761719 789.707031 1053.601562 780.417969 1073.738281 C 774.589844 1086.378906 769.082031 1098.328125 767.375 1110.050781 C 765.503906 1122.910156 768.09375 1136.730469 770.832031 1151.371094 C 772.523438 1160.398438 774.273438 1169.738281 775.078125 1179.398438 C 776.644531 1198.199219 774.507812 1216.371094 772.441406 1233.941406 L 761.742188 1324.929688 C 760.742188 1333.429688 753.527344 1339.691406 745.171875 1339.691406" fill="#f5d649"/></g><g><path d="M 676.742188 1348.300781 C 673.289062 1348.300781 669.808594 1347.230469 666.820312 1345.019531 C 652.511719 1334.429688 643.402344 1316.429688 641.835938 1295.640625 C 640.574219 1278.910156 644.027344 1262.789062 647.070312 1248.558594 L 660.703125 1184.878906 C 663.171875 1173.339844 665.726562 1161.398438 663.5625 1151.308594 C 662.011719 1144.089844 657.808594 1136.519531 653.355469 1128.511719 C 645.941406 1115.171875 637.535156 1100.050781 638.898438 1081.558594 C 639.878906 1068.28125 645.757812 1057.269531 650.949219 1047.558594 C 655.019531 1039.941406 658.863281 1032.75 659.132812 1026.441406 C 659.433594 1019.351562 655.503906 1011.511719 650.953125 1002.429688 C 645.910156 992.359375 640.191406 980.949219 639.210938 967.550781 C 637.738281 947.539062 647.0625 930.941406 655.289062 916.289062 C 661.359375 905.488281 667.089844 895.28125 667.480469 885.679688 C 667.933594 874.539062 661.347656 862.488281 654.371094 849.738281 C 644.914062 832.449219 634.195312 812.851562 638.457031 789.828125 C 641.699219 772.289062 652.746094 759.191406 662.492188 747.621094 C 671.105469 737.398438 678.542969 728.570312 679.03125 719.378906 C 679.394531 712.449219 675.707031 704.289062 671.800781 695.648438 C 671.398438 694.761719 670.996094 693.871094 670.601562 692.988281 C 664.605469 679.601562 659.09375 663.691406 663.667969 647.109375 C 666.875 635.480469 675.953125 625.480469 687.359375 621 C 697.144531 617.148438 707.585938 617.929688 716.011719 623.128906 C 723.863281 627.96875 726.300781 638.269531 721.453125 646.121094 C 716.808594 653.640625 707.160156 656.191406 699.453125 652.128906 C 698.207031 652.648438 696.320312 654.378906 695.875 656 C 694.117188 662.371094 697.527344 671.371094 701.09375 679.328125 L 702.246094 681.890625 C 707.375 693.230469 713.191406 706.089844 712.394531 721.148438 C 711.316406 741.53125 698.949219 756.210938 688.039062 769.148438 C 680.277344 778.359375 672.945312 787.058594 671.308594 795.910156 C 669.210938 807.238281 675.917969 819.511719 683.683594 833.710938 C 692.128906 849.140625 701.695312 866.640625 700.863281 887.039062 C 700.144531 904.660156 691.792969 919.53125 684.421875 932.648438 C 677.648438 944.710938 671.796875 955.128906 672.53125 965.101562 C 673.03125 971.898438 676.816406 979.460938 680.828125 987.460938 C 686.617188 999.019531 693.183594 1012.128906 692.515625 1027.859375 C 691.921875 1041.78125 685.808594 1053.21875 680.414062 1063.308594 C 676.4375 1070.75 672.679688 1077.789062 672.21875 1084.019531 C 671.589844 1092.539062 676.675781 1101.691406 682.558594 1112.28125 C 687.75 1121.621094 693.636719 1132.210938 696.226562 1144.289062 C 699.898438 1161.390625 696.28125 1178.289062 693.371094 1191.878906 L 679.742188 1255.550781 C 677.042969 1268.160156 674.253906 1281.199219 675.152344 1293.121094 C 675.976562 1304.070312 680.292969 1313.429688 686.695312 1318.160156 C 694.109375 1323.648438 695.671875 1334.121094 690.183594 1341.53125 C 686.90625 1345.960938 681.859375 1348.300781 676.742188 1348.300781" fill="#f5d649"/></g><g><path d="M 610.160156 1327.089844 C 605.597656 1327.089844 601.058594 1325.238281 597.757812 1321.589844 C 591.574219 1314.738281 592.109375 1304.179688 598.953125 1297.988281 C 604.070312 1293.371094 602.933594 1281.691406 599.71875 1272.789062 C 598.246094 1268.71875 596.394531 1264.570312 594.433594 1260.179688 C 589.859375 1249.921875 584.675781 1238.289062 583.53125 1225.03125 C 582.265625 1210.328125 586.21875 1196.660156 589.707031 1184.609375 C 592.773438 1174 595.671875 1163.988281 594.519531 1155.25 C 593.050781 1144.078125 584.871094 1133.339844 576.210938 1121.96875 C 574.757812 1120.058594 573.316406 1118.171875 571.902344 1116.269531 C 565.398438 1107.539062 545.613281 1080.980469 553.324219 1052.230469 C 556.894531 1038.921875 565.257812 1029.039062 572.636719 1020.328125 C 578.851562 1012.988281 584.214844 1006.648438 585.246094 1000.320312 C 586.1875 994.570312 583.746094 987.5 580.921875 979.308594 C 578.21875 971.46875 575.152344 962.589844 574.550781 952.78125 C 573.40625 934.050781 581.34375 918.058594 588.34375 903.960938 C 593.410156 893.75 598.191406 884.121094 598.902344 875 C 599.804688 863.398438 594.371094 850.578125 588.621094 837 C 580.550781 817.941406 571.398438 796.328125 578.5 772.828125 C 581.882812 761.628906 588.425781 752.511719 594.195312 744.460938 C 600.007812 736.351562 605.027344 729.351562 605.390625 722.710938 C 605.695312 717.089844 602.640625 710.128906 599.40625 702.761719 C 598.941406 701.710938 598.476562 700.648438 598.023438 699.601562 C 592.933594 687.808594 587.777344 672.25 593.164062 656.46875 C 596.910156 645.488281 606.332031 636.679688 617.75 633.46875 C 627.636719 630.691406 637.585938 632.648438 645.050781 638.851562 C 652.144531 644.75 653.113281 655.28125 647.21875 662.378906 C 641.902344 668.769531 632.828125 670.191406 625.894531 666.101562 C 625.394531 666.449219 624.921875 666.929688 624.777344 667.28125 C 623.070312 672.28125 626.195312 680.558594 628.699219 686.359375 C 629.125 687.351562 629.5625 688.339844 630 689.328125 C 634.445312 699.46875 639.488281 710.949219 638.75 724.53125 C 637.859375 740.898438 629.089844 753.128906 621.347656 763.929688 C 616.675781 770.441406 612.265625 776.601562 610.484375 782.488281 C 606.878906 794.429688 612.675781 808.121094 619.386719 823.96875 C 626.117188 839.859375 633.746094 857.871094 632.210938 877.589844 C 631 893.171875 624.238281 906.789062 618.269531 918.808594 C 612.382812 930.671875 607.300781 940.910156 607.902344 950.738281 C 608.222656 956 610.304688 962.03125 612.507812 968.410156 C 616.261719 979.300781 620.519531 991.640625 618.222656 1005.710938 C 615.699219 1021.171875 606.367188 1032.191406 598.136719 1041.910156 C 592.527344 1048.539062 587.226562 1054.800781 585.59375 1060.890625 C 583.226562 1069.710938 587.515625 1081.300781 598.695312 1096.308594 C 600.039062 1098.109375 601.410156 1099.910156 602.789062 1101.71875 C 613.207031 1115.398438 625.015625 1130.898438 627.648438 1150.898438 C 629.707031 1166.558594 625.507812 1181.078125 621.800781 1193.890625 C 618.863281 1204.050781 616.085938 1213.648438 616.820312 1222.160156 C 617.480469 1229.820312 621.109375 1237.960938 624.949219 1246.570312 C 627.066406 1251.320312 629.253906 1256.21875 631.136719 1261.429688 C 639.96875 1285.851562 636.21875 1309.351562 621.351562 1322.78125 C 618.15625 1325.671875 614.152344 1327.089844 610.160156 1327.089844" fill="#f5d649"/></g><g><path d="M 497.03125 1321.558594 C 493.800781 1321.558594 490.53125 1320.621094 487.65625 1318.671875 C 473.132812 1308.800781 468.054688 1289.789062 473.726562 1266.53125 C 474.058594 1265.160156 474.410156 1263.78125 474.765625 1262.390625 C 476.832031 1254.25 478.972656 1245.828125 476.777344 1241.46875 C 475.691406 1239.320312 472.707031 1236.5 469.816406 1233.78125 C 463.816406 1228.121094 456.347656 1221.078125 453.488281 1209.890625 C 449.808594 1195.460938 456.085938 1182.890625 460.664062 1173.71875 C 461.546875 1171.949219 462.378906 1170.289062 463.09375 1168.71875 C 469.640625 1154.359375 470.132812 1136.730469 470.609375 1119.679688 L 472.46875 1053.101562 C 472.925781 1036.828125 472.796875 1023.628906 466.851562 1014.128906 C 464.648438 1010.621094 461.230469 1006.941406 457.609375 1003.039062 C 449.082031 993.859375 438.472656 982.441406 437.792969 965.609375 C 437.085938 948.039062 447.554688 935.609375 455.964844 925.621094 C 460.472656 920.269531 464.730469 915.210938 466.433594 910.550781 C 470.550781 899.300781 462.121094 884.269531 452.355469 868.558594 C 440.480469 849.46875 426.355469 821.058594 440.695312 794.878906 C 446.640625 784.019531 455.804688 777.238281 463.886719 771.261719 C 469.871094 766.820312 475.527344 762.640625 477.773438 758.121094 C 480.945312 751.71875 478.894531 741.660156 476.464844 732.660156 C 476.207031 731.710938 475.945312 730.738281 475.679688 729.78125 C 472.191406 717.039062 468.242188 702.589844 471.890625 687.078125 C 474.691406 675.171875 483.117188 664.261719 493.875 658.609375 C 503.03125 653.808594 513.070312 653.121094 522.140625 656.671875 C 530.730469 660.03125 534.964844 669.730469 531.601562 678.320312 C 528.265625 686.828125 518.710938 691.070312 510.179688 687.871094 C 508.636719 688.171875 505.253906 691.148438 504.414062 694.730469 C 502.710938 701.96875 505.234375 711.199219 507.90625 720.960938 C 508.179688 721.960938 508.453125 722.96875 508.722656 723.960938 C 512.78125 739.011719 515.832031 756.589844 507.699219 772.96875 C 501.871094 784.710938 492.253906 791.828125 483.765625 798.109375 C 477.929688 802.429688 472.417969 806.511719 469.996094 810.929688 C 465.542969 819.058594 469.054688 832.140625 480.726562 850.921875 C 491.53125 868.289062 507.859375 894.550781 497.8125 922.03125 C 494.082031 932.21875 487.410156 940.148438 481.519531 947.140625 C 475.871094 953.851562 470.992188 959.640625 471.175781 964.261719 C 471.359375 968.75 476.570312 974.359375 482.085938 980.300781 C 486.398438 984.941406 491.28125 990.199219 495.164062 996.398438 C 506.953125 1015.210938 506.324219 1037.648438 505.867188 1054.039062 L 504.007812 1120.609375 C 503.464844 1140.039062 502.851562 1162.058594 493.492188 1182.578125 C 492.535156 1184.679688 491.53125 1186.699219 490.558594 1188.640625 C 488.320312 1193.121094 485.257812 1199.261719 485.863281 1201.621094 C 486.320312 1203.421875 489.878906 1206.769531 492.734375 1209.46875 C 497.257812 1213.730469 502.890625 1219.039062 506.625 1226.449219 C 514.429688 1241.960938 510.390625 1257.851562 507.144531 1270.621094 C 506.820312 1271.898438 506.496094 1273.179688 506.1875 1274.441406 C 503.789062 1284.28125 505.191406 1290.191406 506.4375 1291.03125 C 514.066406 1296.21875 516.050781 1306.609375 510.863281 1314.238281 C 507.632812 1318.988281 502.378906 1321.558594 497.03125 1321.558594" fill="#f5d649"/></g><g><path d="M 605.613281 1406.640625 C 534.75 1405.949219 463.230469 1388.339844 394.785156 1371.46875 C 361.183594 1363.179688 327.871094 1353.769531 294.355469 1345.148438 C 262.175781 1336.871094 229.421875 1328.078125 196.175781 1325.53125 C 167.421875 1323.320312 134.511719 1326.421875 110.816406 1344.539062 C 90.195312 1360.320312 84.453125 1386.238281 85.234375 1411.011719 C 87.03125 1467.929688 111.226562 1523.71875 145.785156 1568.28125 C 186.269531 1620.488281 244.347656 1661.75 307.8125 1680.640625 C 308.707031 1680.910156 309.289062 1679.570312 308.453125 1679.121094 C 257.671875 1651.929688 208.902344 1622.390625 169.8125 1579.308594 C 132.09375 1537.75 105.203125 1485.070312 98.09375 1429.070312 C 94.441406 1400.300781 95.488281 1366.929688 122.933594 1349.980469 C 150.109375 1333.210938 187.933594 1338.261719 217.359375 1344.859375 C 278.492188 1358.570312 336.78125 1382.871094 396.878906 1400.191406 C 430.421875 1409.859375 465.085938 1417.828125 499.851562 1421.300781 C 535.6875 1424.890625 571.480469 1420.96875 606.429688 1412.691406 C 609.855469 1411.878906 609.046875 1406.671875 605.613281 1406.640625" fill="#f5e9c1"/></g><g><path d="M 1736.128906 206.78125 C 1707.332031 212.371094 1678.957031 220.160156 1650.351562 226.652344 C 1622.382812 232.988281 1594.257812 238.601562 1566.246094 244.792969 C 1512.125 256.765625 1454.84375 270.53125 1407.519531 300.535156 C 1406.96875 300.875 1407.3125 301.875 1407.960938 301.613281 C 1461.730469 279.804688 1515.964844 263.816406 1572.691406 251.648438 C 1627.210938 239.941406 1686.207031 232.976562 1736.941406 208.726562 C 1738.097656 208.175781 1737.25 206.558594 1736.128906 206.78125" fill="#f7ebd4"/></g><g><path d="M 1808.199219 466.066406 C 1753.28125 474.835938 1698.789062 486.046875 1643.707031 493.828125 C 1587.371094 501.773438 1530.734375 508.210938 1474.128906 513.855469 C 1473.828125 513.890625 1473.820312 514.332031 1474.128906 514.332031 C 1530.078125 514.246094 1585.703125 510.355469 1641.152344 502.851562 C 1697.757812 495.183594 1754.394531 486.046875 1809.207031 469.722656 C 1811.597656 469.011719 1810.554688 465.6875 1808.199219 466.066406" fill="#eddbb8"/></g></g></svg>