<?xml version="1.0" encoding="UTF-8"?><svg xmlns="http://www.w3.org/2000/svg" xmlns:xlink="http://www.w3.org/1999/xlink" height="818.2" preserveAspectRatio="xMidYMid meet" version="1.0" viewBox="90.9 90.9 818.2 818.2" width="818.2" zoomAndPan="magnify"><g><g id="change1_1"><path d="M 877.007812 441.902344 L 876.621094 441.511719 C 855.863281 420.753906 847.757812 390.503906 855.355469 362.148438 C 867.097656 318.316406 841.089844 273.261719 797.257812 261.515625 L 797.253906 261.515625 C 768.902344 253.917969 746.753906 231.773438 739.15625 203.417969 L 739.015625 202.886719 C 727.269531 159.054688 682.214844 133.042969 638.382812 144.789062 L 638.078125 144.871094 C 609.722656 152.46875 579.46875 144.359375 558.714844 123.605469 L 558.097656 122.992188 C 526.011719 90.902344 473.988281 90.902344 441.902344 122.992188 L 441.289062 123.605469 C 420.53125 144.359375 390.277344 152.46875 361.921875 144.871094 L 361.617188 144.789062 C 317.785156 133.042969 272.730469 159.054688 260.984375 202.886719 L 260.84375 203.417969 C 253.246094 231.773438 231.097656 253.917969 202.746094 261.515625 L 202.742188 261.515625 C 158.910156 273.261719 132.902344 318.316406 144.644531 362.148438 C 152.242188 390.503906 144.136719 420.753906 123.378906 441.511719 L 122.992188 441.902344 C 90.902344 473.988281 90.902344 526.011719 122.992188 558.097656 L 123.214844 558.324219 C 143.972656 579.082031 152.078125 609.335938 144.480469 637.6875 L 144.257812 638.527344 C 132.511719 682.359375 158.523438 727.410156 202.355469 739.15625 L 203.195312 739.382812 C 231.546875 746.980469 253.695312 769.125 261.292969 797.480469 L 261.375 797.785156 C 273.117188 841.617188 318.171875 867.628906 362.003906 855.886719 L 362.535156 855.742188 C 390.890625 848.144531 421.144531 856.253906 441.902344 877.007812 C 473.988281 909.097656 526.011719 909.097656 558.097656 877.007812 C 578.855469 856.253906 609.109375 848.144531 637.464844 855.742188 L 637.996094 855.886719 C 681.828125 867.628906 726.882812 841.617188 738.625 797.785156 L 738.707031 797.480469 C 746.304688 769.125 768.453125 746.980469 796.804688 739.382812 L 797.644531 739.15625 C 841.476562 727.410156 867.488281 682.359375 855.742188 638.527344 L 855.519531 637.6875 C 847.921875 609.335938 856.027344 579.082031 876.785156 558.324219 L 877.007812 558.097656 C 909.097656 526.011719 909.097656 473.988281 877.007812 441.902344" fill="#f01500"/></g><g id="change2_1"><path d="M 347.625 584.914062 C 344.859375 584.914062 341.859375 584.074219 338.449219 582.34375 C 335.128906 580.660156 332.433594 578.5 330.445312 575.929688 L 270.09375 493.96875 L 270.09375 563.296875 C 270.09375 570.117188 268.054688 575.496094 264.03125 579.296875 C 260.082031 583.023438 255.152344 584.914062 249.378906 584.914062 C 243.601562 584.914062 238.671875 583.023438 234.722656 579.296875 C 230.699219 575.5 228.660156 570.117188 228.660156 563.296875 L 228.660156 436.703125 C 228.660156 429.886719 230.699219 424.503906 234.722656 420.703125 C 238.671875 416.976562 243.601562 415.085938 249.378906 415.085938 C 252.121094 415.085938 255.144531 415.921875 258.613281 417.632812 C 262.089844 419.355469 264.800781 421.574219 266.675781 424.234375 L 326.90625 506.996094 L 326.90625 436.703125 C 326.90625 429.886719 328.945312 424.503906 332.96875 420.703125 C 336.917969 416.976562 341.847656 415.085938 347.625 415.085938 C 353.394531 415.085938 358.324219 416.976562 362.277344 420.703125 C 366.300781 424.507812 368.339844 429.890625 368.339844 436.703125 L 368.339844 563.296875 C 368.339844 570.117188 366.300781 575.496094 362.277344 579.296875 C 358.324219 583.023438 353.394531 584.914062 347.625 584.914062" fill="#fff"/></g><g id="change2_2"><path d="M 411.996094 582.296875 C 406.070312 582.296875 401.03125 580.367188 397.015625 576.5625 C 392.925781 572.699219 390.851562 567.574219 390.851562 561.332031 L 390.851562 441.285156 C 390.851562 434.753906 392.542969 429.226562 395.878906 424.859375 C 399.5 420.109375 404.996094 417.703125 412.210938 417.703125 L 465.527344 417.703125 C 472.121094 417.703125 477.195312 419.859375 480.609375 424.113281 C 483.777344 428.074219 485.382812 432.527344 485.382812 437.355469 C 485.382812 442.21875 483.726562 446.691406 480.464844 450.648438 C 476.984375 454.867188 471.960938 457.011719 465.527344 457.011719 L 432.28125 457.011719 L 432.28125 479.691406 L 462.945312 479.691406 C 469.660156 479.691406 474.832031 481.832031 478.3125 486.054688 C 481.578125 490.015625 483.234375 494.488281 483.234375 499.34375 C 483.234375 504.226562 481.527344 508.714844 478.167969 512.683594 C 474.617188 516.871094 469.496094 518.996094 462.945312 518.996094 L 432.28125 518.996094 L 432.28125 542.988281 L 467.460938 542.988281 C 474.058594 542.988281 479.132812 545.148438 482.546875 549.402344 C 485.714844 553.359375 487.316406 557.8125 487.316406 562.644531 C 487.316406 567.503906 485.664062 571.976562 482.398438 575.933594 C 478.921875 580.152344 473.894531 582.296875 467.460938 582.296875 L 411.996094 582.296875" fill="#fff"/></g><g id="change2_3"><path d="M 649.277344 584.914062 C 642.921875 584.914062 637.363281 583.03125 632.746094 579.316406 C 628.214844 575.671875 625.128906 571.074219 623.578125 565.652344 L 602.839844 494.5 L 582.097656 565.675781 C 580.554688 571.070312 577.46875 575.667969 572.933594 579.316406 C 568.316406 583.03125 562.753906 584.914062 556.402344 584.914062 C 549.191406 584.914062 543.316406 582.800781 538.941406 578.625 C 534.800781 574.6875 532.015625 569.898438 530.660156 564.394531 L 503.339844 442.507812 C 503.007812 440.859375 502.78125 439.582031 502.628906 438.574219 C 502.453125 437.421875 502.367188 435.945312 502.367188 434.082031 C 502.367188 429.445312 504.132812 425.109375 507.617188 421.203125 C 511.230469 417.144531 516.144531 415.085938 522.222656 415.085938 C 528.679688 415.085938 533.75 417.007812 537.292969 420.796875 C 540.511719 424.246094 542.742188 428.839844 543.914062 434.453125 L 558.738281 510.761719 L 581.660156 431.285156 C 583.078125 426.410156 585.714844 422.464844 589.496094 419.539062 C 593.316406 416.582031 597.808594 415.085938 602.839844 415.085938 C 607.871094 415.085938 612.359375 416.582031 616.183594 419.535156 C 619.960938 422.460938 622.597656 426.40625 624.015625 431.269531 L 646.941406 510.761719 L 661.753906 434.515625 C 662.933594 428.839844 665.164062 424.246094 668.386719 420.796875 C 671.925781 417.007812 677 415.085938 683.460938 415.085938 C 689.53125 415.085938 694.445312 417.144531 698.066406 421.207031 C 701.550781 425.117188 703.316406 429.449219 703.316406 434.082031 C 703.316406 435.90625 703.230469 437.378906 703.050781 438.578125 C 702.894531 439.597656 702.667969 440.859375 702.367188 442.390625 L 675.039062 564.300781 C 673.664062 569.894531 670.878906 574.683594 666.742188 578.625 C 662.359375 582.800781 656.484375 584.914062 649.277344 584.914062" fill="#fff"/></g><g id="change2_4"><path d="M 747.089844 533.394531 C 741.503906 533.394531 736.753906 531.679688 732.960938 528.300781 C 729.019531 524.789062 727.019531 519.964844 727.019531 513.960938 L 727.019531 434.519531 C 727.019531 428.515625 729.019531 423.691406 732.964844 420.175781 C 736.753906 416.800781 741.507812 415.085938 747.089844 415.085938 C 752.53125 415.085938 757.25 416.835938 761.117188 420.292969 C 765.128906 423.886719 767.164062 428.671875 767.164062 434.519531 L 767.164062 513.960938 C 767.164062 519.8125 765.128906 524.601562 761.117188 528.1875 C 757.257812 531.644531 752.535156 533.394531 747.089844 533.394531 Z M 747.089844 584.914062 C 741.25 584.914062 736.171875 582.765625 731.996094 578.523438 C 727.839844 574.308594 725.730469 569.183594 725.730469 563.296875 C 725.730469 557.414062 727.839844 552.292969 731.996094 548.070312 C 736.171875 543.828125 741.25 541.679688 747.089844 541.679688 C 752.925781 541.679688 758.007812 543.828125 762.1875 548.066406 C 766.34375 552.296875 768.449219 557.417969 768.449219 563.296875 C 768.449219 569.179688 766.34375 574.304688 762.1875 578.523438 C 758.007812 582.765625 752.925781 584.914062 747.089844 584.914062" fill="#fff"/></g></g></svg>