<?xml version="1.0" encoding="UTF-8" standalone="no"?><svg xmlns="http://www.w3.org/2000/svg" xmlns:xlink="http://www.w3.org/1999/xlink" fill="#000000" height="367.2" preserveAspectRatio="xMidYMid meet" version="1" viewBox="36.8 72.4 438.3 367.2" width="438.3" zoomAndPan="magnify"><g fill="#fefefe" id="change1_1"><path d="M 465.640625 246.757812 L 269.40625 77.355469 C 269.269531 77.246094 269.128906 77.15625 269 77.042969 C 268.691406 76.792969 268.394531 76.550781 268.074219 76.324219 C 267.828125 76.144531 267.582031 75.976562 267.339844 75.8125 C 267.023438 75.597656 266.710938 75.402344 266.390625 75.214844 C 266.113281 75.050781 265.835938 74.894531 265.546875 74.746094 C 265.25 74.59375 264.949219 74.441406 264.640625 74.300781 C 264.324219 74.15625 264.003906 74.011719 263.683594 73.878906 C 263.402344 73.769531 263.117188 73.660156 262.828125 73.558594 C 262.480469 73.433594 262.132812 73.324219 261.78125 73.222656 C 261.507812 73.136719 261.226562 73.066406 260.949219 72.996094 C 260.582031 72.90625 260.21875 72.820312 259.855469 72.753906 C 259.570312 72.699219 259.292969 72.65625 259.003906 72.613281 C 258.644531 72.554688 258.277344 72.511719 257.914062 72.480469 C 257.617188 72.453125 257.320312 72.429688 257.023438 72.417969 C 256.667969 72.402344 256.328125 72.390625 255.976562 72.390625 C 255.65625 72.390625 255.34375 72.402344 255.023438 72.417969 C 254.699219 72.429688 254.367188 72.453125 254.035156 72.488281 C 253.707031 72.511719 253.367188 72.554688 253.046875 72.601562 C 252.726562 72.652344 252.417969 72.699219 252.097656 72.761719 C 251.765625 72.828125 251.429688 72.90625 251.089844 72.988281 C 250.78125 73.0625 250.488281 73.140625 250.179688 73.230469 C 249.855469 73.328125 249.527344 73.429688 249.207031 73.546875 C 248.894531 73.652344 248.585938 73.769531 248.277344 73.898438 C 247.980469 74.019531 247.6875 74.144531 247.386719 74.289062 C 247.066406 74.4375 246.738281 74.597656 246.417969 74.761719 C 246.148438 74.90625 245.894531 75.050781 245.640625 75.199219 C 245.296875 75.394531 244.960938 75.605469 244.648438 75.824219 C 244.402344 75.980469 244.179688 76.144531 243.9375 76.3125 C 243.613281 76.546875 243.300781 76.796875 242.988281 77.054688 C 242.855469 77.160156 242.726562 77.25 242.589844 77.355469 L 178.269531 132.886719 L 178.269531 110.539062 C 178.269531 104.46875 173.300781 99.492188 167.222656 99.492188 L 129.210938 99.492188 C 123.132812 99.492188 118.167969 104.46875 118.167969 110.539062 L 118.167969 184.769531 L 46.363281 246.757812 C 37.78125 254.164062 36.832031 267.128906 44.234375 275.695312 C 48.289062 280.402344 54.015625 282.816406 59.78125 282.816406 C 64.523438 282.816406 69.296875 281.167969 73.171875 277.824219 L 255.996094 119.996094 L 438.824219 277.824219 C 442.699219 281.167969 447.472656 282.816406 452.226562 282.816406 C 457.984375 282.816406 463.707031 280.402344 467.765625 275.695312 C 475.167969 267.128906 474.214844 254.164062 465.640625 246.757812" fill="inherit"/><path d="M 333.589844 298.761719 C 330.984375 326.097656 270.664062 377.300781 255.996094 403.652344 C 241.332031 377.300781 181.019531 326.097656 178.410156 298.761719 C 175.808594 271.417969 193.800781 254.246094 216.050781 254.246094 C 233.0625 254.246094 249.695312 268.027344 255.609375 284.199219 C 255.765625 284.628906 255.898438 285.277344 255.996094 286.082031 C 256.109375 285.277344 256.242188 284.628906 256.394531 284.199219 C 262.308594 268.027344 278.933594 254.246094 295.945312 254.246094 C 318.199219 254.246094 336.191406 271.417969 333.589844 298.761719 M 397.144531 268.308594 L 267.953125 156.769531 C 261.375 151.101562 250.621094 151.101562 244.054688 156.769531 L 114.851562 268.308594 C 108.285156 273.980469 102.90625 285.726562 102.90625 294.40625 L 102.90625 423.824219 C 102.90625 432.503906 110.007812 439.609375 118.6875 439.609375 L 393.308594 439.609375 C 401.984375 439.609375 409.09375 432.503906 409.09375 423.824219 L 409.09375 294.40625 C 409.09375 285.726562 403.714844 273.976562 397.144531 268.308594" fill="inherit"/></g></svg>