<?xml version="1.0" encoding="UTF-8" standalone="no"?><svg xmlns="http://www.w3.org/2000/svg" xmlns:xlink="http://www.w3.org/1999/xlink" fill="#fefefe" height="72" preserveAspectRatio="xMidYMid meet" version="1" viewBox="0.3 0.5 72.2 72.0" width="72.2" zoomAndPan="magnify"><g id="change1_1"><path d="M 64.140625 0.519531 C 63.996094 0.511719 63.851562 0.546875 63.726562 0.617188 L 61.648438 1.820312 L 58.703125 3.527344 C 58.355469 3.726562 58.230469 4.167969 58.414062 4.523438 C 58.941406 5.527344 58.597656 6.726562 57.65625 7.273438 L 57.65625 7.277344 C 57.335938 7.460938 56.96875 7.550781 56.597656 7.539062 C 56.214844 7.527344 55.886719 7.800781 55.828125 8.175781 C 55.683594 9.113281 55.132812 9.925781 54.328125 10.390625 C 52.890625 11.222656 51.050781 10.761719 50.128906 9.320312 C 49.914062 8.980469 49.46875 8.871094 49.121094 9.074219 L 42.816406 12.722656 C 42.816406 12.722656 42.816406 12.722656 42.8125 12.726562 L 40.488281 14.070312 C 40.128906 14.277344 40.007812 14.734375 40.214844 15.09375 C 44.246094 22.097656 53.027344 24.636719 59.808594 20.710938 C 66.589844 16.785156 68.785156 7.898438 64.753906 0.894531 C 64.625 0.671875 64.394531 0.53125 64.140625 0.519531 Z M 16.558594 1.382812 C 15.988281 1.40625 15.652344 2.027344 15.941406 2.515625 L 18.222656 6.449219 C 16.925781 6.390625 15.636719 6.835938 14.671875 7.789062 C 12.886719 9.558594 12.820312 12.394531 14.453125 14.242188 C 14.34375 14.335938 14.210938 14.398438 14.105469 14.5 C 12.25 16.34375 12.234375 19.355469 14.082031 21.191406 C 14.574219 21.679688 15.1875 21.996094 15.835938 22.226562 C 15.132812 23.921875 15.46875 25.902344 16.765625 27.257812 C 16.789062 27.292969 16.816406 27.324219 16.84375 27.351562 L 16.847656 27.355469 C 18.191406 28.6875 20.179688 29.007812 21.917969 28.332031 C 22.078125 28.570312 22.210938 28.828125 22.417969 29.03125 C 22.417969 29.03125 22.417969 29.03125 22.417969 29.035156 C 23.839844 30.441406 25.980469 30.777344 27.765625 29.953125 C 27.878906 30.097656 27.96875 30.261719 28.097656 30.390625 C 28.097656 30.394531 28.097656 30.394531 28.101562 30.394531 C 29.949219 32.230469 32.96875 32.214844 34.828125 30.367188 C 35.90625 29.296875 36.359375 27.789062 36.140625 26.316406 C 36.398438 26.148438 36.667969 25.996094 36.886719 25.78125 C 38.5625 24.117188 38.722656 21.511719 37.386719 19.667969 C 37.597656 19.519531 37.800781 19.359375 37.984375 19.175781 C 37.988281 19.175781 37.988281 19.175781 37.988281 19.175781 C 39.84375 17.332031 39.859375 14.320312 38.011719 12.484375 C 37.097656 11.574219 35.859375 11.09375 34.597656 11.113281 C 34.863281 9.625 34.421875 8.070312 33.316406 6.96875 L 33.3125 6.96875 C 31.960938 5.625 29.945312 5.257812 28.214844 5.941406 C 27.976562 5.347656 27.667969 4.785156 27.207031 4.332031 C 26.285156 3.414062 25.066406 2.957031 23.847656 2.964844 C 22.628906 2.96875 21.410156 3.433594 20.480469 4.355469 C 20.082031 4.75 19.761719 5.210938 19.527344 5.710938 L 17.242188 1.761719 C 17.101562 1.515625 16.839844 1.367188 16.558594 1.375 Z M 39.476562 2.210938 C 37.414062 2.210938 35.726562 3.898438 35.726562 5.957031 C 35.726562 8.019531 37.414062 9.707031 39.476562 9.707031 C 41.539062 9.707031 43.226562 8.019531 43.226562 5.957031 C 43.226562 3.898438 41.539062 2.210938 39.476562 2.210938 Z M 63.765625 2.328125 C 66.898438 8.535156 64.894531 16.035156 59.054688 19.414062 C 53.214844 22.796875 45.742188 20.785156 41.949219 14.957031 L 42.9375 14.386719 C 44.90625 17.363281 48 19.199219 51.289062 19.636719 C 51.9375 19.722656 52.59375 19.757812 53.253906 19.730469 C 53.328125 19.730469 53.398438 19.726562 53.46875 19.726562 C 53.5 19.726562 53.53125 19.722656 53.558594 19.722656 C 53.589844 19.71875 53.621094 19.714844 53.652344 19.714844 C 55.011719 19.621094 56.367188 19.28125 57.65625 18.679688 C 57.667969 18.671875 57.679688 18.671875 57.6875 18.664062 C 57.75 18.636719 57.808594 18.605469 57.871094 18.574219 C 57.890625 18.570312 57.902344 18.5625 57.917969 18.546875 C 57.976562 18.519531 58.039062 18.488281 58.097656 18.457031 C 58.113281 18.449219 58.128906 18.441406 58.140625 18.4375 C 58.273438 18.367188 58.40625 18.292969 58.539062 18.21875 C 60.160156 17.277344 61.460938 16 62.40625 14.519531 C 62.425781 14.488281 62.441406 14.464844 62.457031 14.4375 C 62.476562 14.402344 62.496094 14.378906 62.515625 14.347656 C 62.851562 13.800781 63.144531 13.226562 63.390625 12.632812 C 64.652344 9.558594 64.617188 5.957031 63.027344 2.757812 Z M 61.710938 3.519531 C 63.0625 6.300781 63.09375 9.40625 62.003906 12.0625 C 61.292969 13.789062 60.125 15.316406 58.535156 16.4375 C 58.519531 16.453125 58.503906 16.457031 58.488281 16.472656 C 58.449219 16.5 58.410156 16.527344 58.371094 16.554688 C 58.34375 16.574219 58.316406 16.59375 58.289062 16.605469 C 58.253906 16.625 58.222656 16.644531 58.191406 16.671875 C 58.144531 16.703125 58.101562 16.726562 58.058594 16.753906 C 58.035156 16.769531 58.015625 16.785156 57.992188 16.796875 C 57.925781 16.835938 57.855469 16.878906 57.785156 16.917969 C 57.714844 16.960938 57.648438 17 57.578125 17.035156 C 57.550781 17.050781 57.527344 17.066406 57.5 17.078125 C 57.460938 17.097656 57.414062 17.121094 57.371094 17.144531 C 57.339844 17.164062 57.304688 17.175781 57.269531 17.199219 C 57.238281 17.210938 57.203125 17.230469 57.171875 17.242188 C 57.128906 17.265625 57.089844 17.285156 57.050781 17.304688 C 57.027344 17.308594 57.011719 17.324219 56.988281 17.332031 C 55.226562 18.148438 53.328125 18.398438 51.488281 18.152344 C 48.648438 17.773438 45.980469 16.191406 44.253906 13.625 L 49.3125 10.695312 C 50.75 12.328125 53.160156 12.800781 55.078125 11.691406 C 55.078125 11.691406 55.078125 11.691406 55.082031 11.691406 C 56.109375 11.09375 56.832031 10.109375 57.15625 8.972656 C 57.59375 8.914062 58.019531 8.796875 58.40625 8.574219 C 59.835938 7.746094 60.457031 6.042969 60.011719 4.5 Z M 39.476562 3.710938 C 40.726562 3.710938 41.726562 4.707031 41.726562 5.960938 C 41.726562 7.210938 40.726562 8.207031 39.476562 8.207031 C 38.222656 8.207031 37.226562 7.210938 37.226562 5.960938 C 37.226562 4.707031 38.222656 3.710938 39.476562 3.710938 Z M 23.851562 4.460938 C 24.683594 4.457031 25.515625 4.769531 26.152344 5.398438 C 26.621094 5.867188 26.933594 6.46875 27.042969 7.121094 C 27.136719 7.648438 27.738281 7.914062 28.1875 7.625 C 29.488281 6.792969 31.179688 6.964844 32.257812 8.035156 C 33.226562 9 33.472656 10.460938 32.871094 11.699219 C 32.589844 12.285156 33.132812 12.925781 33.753906 12.746094 C 34.898438 12.417969 36.125 12.726562 36.957031 13.550781 C 38.222656 14.8125 38.21875 16.835938 36.933594 18.113281 C 36.644531 18.398438 36.300781 18.628906 35.925781 18.792969 C 35.421875 19.011719 35.316406 19.679688 35.730469 20.042969 C 35.777344 20.085938 35.820312 20.125 35.855469 20.15625 C 37.125 21.417969 37.117188 23.441406 35.832031 24.71875 C 35.589844 24.957031 35.3125 25.160156 35.007812 25.3125 C 34.691406 25.476562 34.535156 25.835938 34.625 26.175781 C 34.925781 27.289062 34.601562 28.480469 33.773438 29.308594 C 32.484375 30.582031 30.429688 30.589844 29.160156 29.335938 C 28.953125 29.128906 28.773438 28.890625 28.628906 28.636719 C 28.417969 28.257812 27.929688 28.136719 27.566406 28.375 C 26.265625 29.21875 24.5625 29.050781 23.476562 27.976562 C 23.226562 27.726562 23.019531 27.433594 22.867188 27.117188 C 22.675781 26.726562 22.199219 26.578125 21.820312 26.792969 C 20.535156 27.523438 18.9375 27.316406 17.90625 26.292969 C 16.804688 25.203125 16.648438 23.496094 17.535156 22.207031 C 17.855469 21.742188 17.566406 21.105469 17.011719 21.035156 C 16.300781 20.945312 15.640625 20.628906 15.140625 20.128906 C 13.871094 18.871094 13.875 16.84375 15.164062 15.566406 C 15.398438 15.335938 15.667969 15.136719 15.960938 14.984375 C 16.453125 14.726562 16.503906 14.042969 16.054688 13.714844 C 15.9375 13.628906 15.820312 13.527344 15.707031 13.417969 C 14.4375 12.160156 14.445312 10.132812 15.730469 8.859375 C 16.648438 7.953125 17.996094 7.667969 19.175781 8.101562 L 20.953125 11.167969 L 16.636719 17.527344 C 16.394531 17.867188 16.480469 18.34375 16.828125 18.578125 C 17.171875 18.8125 17.648438 18.71875 17.875 18.367188 L 21.789062 12.609375 L 24.683594 17.605469 L 20.363281 23.964844 C 20.125 24.308594 20.210938 24.78125 20.558594 25.015625 C 20.902344 25.25 21.375 25.15625 21.605469 24.808594 L 25.519531 19.046875 L 29.242188 25.476562 C 29.445312 25.84375 29.910156 25.972656 30.273438 25.761719 C 30.636719 25.554688 30.757812 25.085938 30.539062 24.726562 L 26.820312 18.308594 L 33.761719 17.8125 C 34.734375 17.753906 34.683594 16.300781 33.707031 16.3125 C 33.6875 16.3125 33.671875 16.3125 33.652344 16.316406 L 25.988281 16.863281 L 23.09375 11.867188 L 30.03125 11.371094 C 31.011719 11.320312 30.960938 9.855469 29.976562 9.875 C 29.960938 9.875 29.941406 9.875 29.925781 9.878906 L 22.257812 10.425781 L 20.585938 7.539062 C 20.632812 6.746094 20.96875 5.992188 21.542969 5.425781 C 22.183594 4.789062 23.019531 4.46875 23.855469 4.464844 Z M 6.386719 12.78125 C 4.324219 12.78125 2.636719 14.464844 2.636719 16.527344 C 2.636719 18.589844 4.324219 20.277344 6.386719 20.277344 C 8.449219 20.277344 10.136719 18.589844 10.136719 16.527344 C 10.136719 14.464844 8.449219 12.78125 6.386719 12.78125 Z M 6.386719 14.277344 C 7.640625 14.277344 8.636719 15.277344 8.636719 16.527344 C 8.636719 17.777344 7.640625 18.777344 6.386719 18.777344 C 5.136719 18.777344 4.136719 17.777344 4.136719 16.527344 C 4.136719 15.277344 5.136719 14.277344 6.386719 14.277344 Z M 68.75 20.019531 C 66.6875 20.019531 65 21.707031 65 23.769531 C 65 25.828125 66.6875 27.515625 68.75 27.515625 C 70.8125 27.515625 72.5 25.828125 72.5 23.769531 C 72.5 21.707031 70.8125 20.019531 68.75 20.019531 Z M 68.75 21.519531 C 70 21.519531 71 22.515625 71 23.769531 C 71 25.019531 70 26.015625 68.75 26.015625 C 67.5 26.015625 66.5 25.019531 66.5 23.769531 C 66.5 22.515625 67.5 21.519531 68.75 21.519531 Z M 10.839844 22.835938 C 10.746094 22.835938 10.65625 22.84375 10.566406 22.863281 C 9.851562 22.980469 9.226562 23.523438 9.078125 24.3125 L 8.835938 25.589844 L 8.308594 24.496094 C 7.847656 23.546875 6.671875 23.230469 5.800781 23.734375 L 4.582031 24.433594 C 3.707031 24.941406 3.382812 26.121094 4 27 L 4.851562 28.210938 L 3.28125 27.660156 C 2.269531 27.304688 1.214844 27.898438 0.941406 28.875 L 0.566406 30.210938 C 0.292969 31.183594 0.929688 32.230469 1.964844 32.417969 L 4.796875 32.929688 C 4.007812 34.222656 3.871094 35.859375 4.730469 37.203125 C 4.355469 37.355469 4.007812 37.511719 3.679688 37.675781 C 2.742188 38.136719 1.984375 38.628906 1.429688 39.199219 C 0.871094 39.765625 0.5 40.449219 0.5 41.199219 C 0.5 41.289062 0.503906 41.375 0.515625 41.460938 C 0.503906 41.511719 0.5 41.566406 0.5 41.617188 C 0.5 48.660156 4.605469 54.992188 11.109375 59.515625 C 14.222656 61.683594 17.890625 63.445312 21.945312 64.695312 L 21.945312 69.742188 C 21.945312 69.761719 21.945312 69.785156 21.945312 69.808594 C 21.945312 70.144531 22.167969 70.441406 22.492188 70.53125 C 26.765625 71.789062 31.457031 72.480469 36.378906 72.480469 C 41.300781 72.480469 45.992188 71.789062 50.265625 70.53125 C 50.601562 70.4375 50.828125 70.121094 50.8125 69.773438 C 50.8125 69.765625 50.8125 69.753906 50.8125 69.746094 L 50.8125 64.699219 C 54.867188 63.449219 58.535156 61.6875 61.648438 59.519531 C 68.152344 54.996094 72.257812 48.664062 72.257812 41.621094 C 72.257812 41.566406 72.253906 41.511719 72.242188 41.460938 C 72.25 41.375 72.257812 41.289062 72.257812 41.203125 C 72.257812 40.457031 71.886719 39.769531 71.328125 39.203125 C 70.773438 38.632812 70.015625 38.140625 69.078125 37.679688 C 68.21875 37.253906 67.203125 36.859375 66.046875 36.488281 C 65.925781 34.710938 64.972656 33.050781 63.445312 32.03125 C 63.558594 31.777344 63.699219 31.539062 63.769531 31.269531 L 63.769531 31.265625 C 64.585938 28.195312 62.722656 25.019531 59.636719 24.179688 C 59.132812 24.046875 58.625 23.980469 58.117188 23.976562 C 56.796875 23.976562 55.527344 24.464844 54.492188 25.304688 C 54.117188 25.109375 53.730469 24.9375 53.320312 24.828125 C 53.316406 24.828125 53.316406 24.828125 53.316406 24.828125 C 50.464844 24.054688 47.550781 25.558594 46.476562 28.207031 C 46.128906 28.035156 45.769531 27.890625 45.394531 27.785156 C 42.308594 26.949219 39.113281 28.765625 38.300781 31.835938 C 38.1875 32.265625 38.128906 32.699219 38.117188 33.128906 C 37.542969 33.125 36.960938 33.125 36.378906 33.125 C 33.941406 33.125 31.566406 33.175781 29.265625 33.273438 C 26.96875 33.371094 24.753906 33.515625 22.640625 33.703125 C 21.582031 33.796875 20.550781 33.902344 19.550781 34.015625 C 19.175781 34.054688 18.808594 34.101562 18.441406 34.144531 L 17.933594 33.078125 L 16.710938 30.515625 C 16.042969 29.117188 14.675781 28.355469 13.234375 28.273438 C 13.121094 28.269531 13.003906 28.269531 12.886719 28.269531 L 13.859375 25.566406 C 14.214844 24.574219 13.628906 23.496094 12.648438 23.246094 L 11.300781 22.902344 C 11.148438 22.863281 10.992188 22.84375 10.839844 22.851562 Z M 10.878906 24.339844 C 10.898438 24.339844 10.914062 24.339844 10.929688 24.34375 L 12.277344 24.6875 C 12.398438 24.722656 12.515625 24.863281 12.449219 25.042969 L 11.160156 28.632812 C 11 28.699219 10.84375 28.777344 10.691406 28.867188 L 6.425781 31.328125 C 6.273438 31.414062 6.128906 31.511719 5.988281 31.617188 L 2.234375 30.9375 C 2.042969 30.90625 1.976562 30.734375 2.007812 30.613281 L 2.386719 29.273438 C 2.421875 29.152344 2.621094 29.007812 2.785156 29.066406 L 6.566406 30.398438 C 7.257812 30.636719 7.851562 29.855469 7.429688 29.257812 L 5.226562 26.128906 C 5.132812 26 5.207031 25.800781 5.332031 25.726562 L 6.550781 25.027344 C 6.675781 24.953125 6.882812 24.984375 6.957031 25.144531 L 8.480469 28.289062 C 8.792969 28.9375 9.757812 28.808594 9.890625 28.101562 L 10.550781 24.585938 C 10.582031 24.433594 10.753906 24.339844 10.878906 24.339844 Z M 58.113281 25.46875 C 58.492188 25.46875 58.871094 25.519531 59.242188 25.617188 C 61.554688 26.246094 62.925781 28.59375 62.320312 30.871094 C 62.222656 31.246094 62.070312 31.605469 61.871094 31.9375 C 61.644531 32.3125 61.785156 32.796875 62.175781 32.992188 C 64.003906 33.917969 64.9375 35.972656 64.421875 37.921875 C 64.300781 38.375 64.105469 38.800781 63.84375 39.1875 C 63.597656 39.546875 63.710938 40.035156 64.085938 40.253906 C 64.925781 40.75 65.550781 41.484375 65.90625 42.332031 C 65.996094 42.542969 66.066406 42.761719 66.121094 42.984375 C 66.175781 43.210938 66.210938 43.4375 66.226562 43.667969 C 66.246094 43.867188 66.242188 44.066406 66.230469 44.269531 C 64.792969 44.765625 63.050781 45.230469 61.066406 45.644531 C 57.800781 46.328125 53.875 46.875 49.5 47.246094 L 52.015625 42.890625 L 61.824219 43.601562 C 62.238281 43.636719 62.601562 43.324219 62.632812 42.910156 C 62.664062 42.492188 62.347656 42.132812 61.933594 42.105469 L 52.847656 41.445312 L 57.6875 33.066406 C 57.984375 32.570312 57.628906 31.9375 57.050781 31.933594 C 56.777344 31.933594 56.523438 32.078125 56.390625 32.316406 L 51.554688 40.6875 L 46.453125 33.175781 C 46.3125 32.960938 46.074219 32.835938 45.816406 32.835938 C 45.214844 32.84375 44.867188 33.523438 45.210938 34.015625 L 50.722656 42.128906 L 48.027344 46.796875 L 47.683594 47.386719 C 47.121094 47.425781 46.550781 47.464844 45.972656 47.5 L 44.652344 45.550781 L 43.207031 43.421875 L 41.761719 41.296875 C 41.621094 41.082031 41.382812 40.957031 41.125 40.957031 C 40.523438 40.964844 40.175781 41.644531 40.519531 42.136719 L 43.410156 46.394531 L 44.226562 47.59375 C 42.992188 47.652344 41.734375 47.695312 40.457031 47.726562 C 40.453125 47.566406 40.449219 47.40625 40.4375 47.246094 C 40.410156 46.828125 40.363281 46.40625 40.296875 45.984375 C 40.226562 45.558594 40.136719 45.136719 40.023438 44.714844 C 39.492188 42.738281 38.519531 40.996094 37.238281 39.5625 C 37.46875 39.214844 37.75 38.90625 38.070312 38.644531 C 38.402344 38.371094 38.777344 38.144531 39.183594 37.984375 C 39.585938 37.820312 40.023438 37.71875 40.476562 37.683594 C 41.125 37.636719 41.410156 36.84375 40.941406 36.394531 C 39.808594 35.308594 39.351562 33.703125 39.75 32.207031 C 40.351562 29.929688 42.6875 28.59375 45 29.222656 C 45.519531 29.363281 46.007812 29.601562 46.441406 29.921875 C 46.882812 30.25 47.515625 30.003906 47.625 29.464844 C 47.640625 29.386719 47.65625 29.3125 47.671875 29.25 C 48.277344 26.96875 50.609375 25.636719 52.921875 26.261719 C 53.355469 26.378906 53.769531 26.566406 54.148438 26.808594 C 54.445312 27 54.835938 26.960938 55.085938 26.710938 C 55.894531 25.902344 56.988281 25.464844 58.113281 25.464844 Z M 12.980469 29.753906 C 13.976562 29.753906 14.925781 30.242188 15.355469 31.148438 L 15.960938 32.414062 L 9.988281 35.859375 C 9.625 36.0625 9.496094 36.527344 9.703125 36.890625 C 9.914062 37.253906 10.378906 37.375 10.738281 37.160156 L 16.609375 33.773438 L 17.804688 36.277344 L 19.027344 38.839844 C 18.746094 39.109375 18.476562 39.390625 18.21875 39.683594 C 17.6875 40.296875 17.214844 40.960938 16.808594 41.660156 C 16.40625 42.363281 16.066406 43.101562 15.800781 43.871094 C 15.535156 44.640625 15.34375 45.4375 15.230469 46.253906 C 15.226562 46.265625 15.226562 46.28125 15.222656 46.292969 C 14.367188 46.15625 13.539062 46.011719 12.75 45.859375 C 12.730469 45.824219 12.710938 45.789062 12.6875 45.757812 L 11.128906 43.578125 C 11.144531 43.570312 11.160156 43.558594 11.175781 43.550781 L 17.359375 39.980469 C 18.023438 39.613281 17.777344 38.601562 17.015625 38.578125 C 16.875 38.574219 16.730469 38.609375 16.609375 38.683594 L 10.421875 42.253906 C 10.367188 42.285156 10.316406 42.324219 10.269531 42.371094 L 6.0625 36.492188 C 5.296875 35.417969 5.648438 33.890625 6.679688 32.980469 L 6.683594 32.976562 C 6.835938 32.84375 7 32.722656 7.175781 32.621094 L 11.441406 30.164062 C 11.484375 30.132812 11.527344 30.117188 11.574219 30.089844 C 11.707031 30.019531 11.847656 29.960938 11.988281 29.914062 L 11.992188 29.914062 C 12.316406 29.804688 12.648438 29.75 12.980469 29.75 Z M 36.378906 34.609375 C 36.984375 34.609375 37.582031 34.613281 38.179688 34.617188 C 38.214844 34.617188 38.25 34.617188 38.28125 34.609375 C 38.441406 35.257812 38.714844 35.878906 39.085938 36.445312 C 38.929688 36.492188 38.773438 36.53125 38.625 36.589844 C 38.074219 36.808594 37.566406 37.113281 37.117188 37.484375 C 36.761719 37.777344 36.4375 38.117188 36.160156 38.492188 C 33.695312 36.324219 30.425781 35.144531 27.035156 35.34375 C 26.195312 35.398438 25.347656 35.53125 24.503906 35.757812 C 23.660156 35.984375 22.859375 36.289062 22.105469 36.664062 C 21.433594 37 20.800781 37.394531 20.210938 37.832031 L 19.160156 35.628906 L 19.125 35.558594 C 19.320312 35.527344 19.519531 35.511719 19.71875 35.488281 C 20.707031 35.375 21.726562 35.273438 22.769531 35.179688 C 24.859375 34.996094 27.054688 34.855469 29.332031 34.757812 C 31.609375 34.660156 33.964844 34.609375 36.378906 34.609375 Z M 27.683594 36.824219 C 32.664062 36.769531 37.226562 40.070312 38.578125 45.105469 C 38.675781 45.476562 38.757812 45.851562 38.816406 46.222656 C 38.878906 46.59375 38.917969 46.96875 38.941406 47.335938 C 38.949219 47.476562 38.953125 47.617188 38.957031 47.757812 C 38.171875 47.773438 37.375 47.777344 36.574219 47.777344 C 36.527344 43.148438 32.816406 39.328125 28.144531 39.183594 C 23.609375 39.042969 19.765625 42.417969 19.242188 46.84375 C 18.371094 46.742188 17.527344 46.628906 16.710938 46.515625 C 16.710938 46.496094 16.714844 46.480469 16.714844 46.460938 C 16.816406 45.742188 16.984375 45.039062 17.21875 44.363281 C 17.453125 43.683594 17.75 43.03125 18.109375 42.414062 C 18.464844 41.792969 18.882812 41.210938 19.351562 40.667969 C 19.824219 40.125 20.347656 39.628906 20.917969 39.183594 C 21.492188 38.738281 22.113281 38.34375 22.777344 38.011719 C 23.4375 37.679688 24.144531 37.410156 24.894531 37.210938 C 25.824219 36.960938 26.761719 36.835938 27.683594 36.828125 Z M 65.9375 38.019531 C 66.894531 38.339844 67.726562 38.671875 68.414062 39.011719 C 69.253906 39.425781 69.878906 39.855469 70.257812 40.242188 C 70.636719 40.628906 70.757812 40.929688 70.757812 41.195312 C 70.757812 41.457031 70.636719 41.761719 70.257812 42.148438 C 69.878906 42.535156 69.253906 42.960938 68.414062 43.378906 C 68.199219 43.484375 67.972656 43.589844 67.730469 43.691406 C 67.730469 43.644531 67.730469 43.601562 67.722656 43.554688 C 67.699219 43.242188 67.652344 42.9375 67.578125 42.632812 C 67.507812 42.332031 67.410156 42.039062 67.289062 41.753906 C 66.902344 40.832031 66.265625 40.015625 65.445312 39.386719 C 65.617188 39.039062 65.769531 38.683594 65.867188 38.308594 L 65.871094 38.308594 C 65.894531 38.210938 65.917969 38.117188 65.9375 38.019531 Z M 5.621094 38.453125 L 10.59375 45.40625 C 7.960938 44.800781 5.824219 44.109375 4.34375 43.378906 C 3.503906 42.960938 2.878906 42.535156 2.5 42.148438 C 2.121094 41.761719 2 41.457031 2 41.195312 C 2 40.929688 2.121094 40.628906 2.5 40.242188 C 2.878906 39.855469 3.503906 39.425781 4.34375 39.011719 C 4.726562 38.824219 5.152344 38.636719 5.621094 38.453125 Z M 27.914062 40.675781 C 27.972656 40.679688 28.035156 40.679688 28.097656 40.679688 C 29.058594 40.707031 29.964844 40.925781 30.792969 41.289062 L 28.039062 46.050781 L 26.628906 40.785156 C 27.046875 40.710938 27.472656 40.675781 27.914062 40.675781 Z M 25.183594 41.195312 L 26.589844 46.441406 L 21.960938 43.765625 C 22.753906 42.621094 23.875 41.71875 25.183594 41.195312 Z M 32.09375 42.035156 C 33.246094 42.867188 34.136719 44.03125 34.632812 45.382812 L 29.339844 46.800781 Z M 2.148438 43.8125 C 2.585938 44.136719 3.097656 44.433594 3.679688 44.722656 C 5.554688 45.644531 8.171875 46.441406 11.386719 47.113281 C 17.816406 48.457031 26.636719 49.277344 36.378906 49.277344 C 46.121094 49.277344 54.941406 48.457031 61.371094 47.113281 C 64.589844 46.441406 67.203125 45.644531 69.078125 44.722656 C 69.660156 44.433594 70.171875 44.136719 70.609375 43.8125 C 69.863281 49.402344 66.285156 54.457031 60.789062 58.28125 C 54.578125 62.601562 45.9375 65.304688 36.378906 65.304688 C 26.820312 65.304688 18.179688 62.601562 11.96875 58.28125 C 6.472656 54.457031 2.898438 49.402344 2.148438 43.8125 Z M 21.238281 45.082031 L 25.253906 47.398438 C 23.695312 47.292969 22.183594 47.160156 20.730469 47.007812 C 20.8125 46.332031 20.984375 45.683594 21.238281 45.082031 Z M 35 46.835938 C 35.046875 47.144531 35.070312 47.457031 35.074219 47.773438 C 33.945312 47.765625 32.828125 47.746094 31.730469 47.710938 Z M 66.328125 48.628906 C 66.082031 48.636719 65.855469 48.769531 65.722656 48.976562 C 65.324219 49.589844 64.882812 50.183594 64.402344 50.765625 C 64.125 51.082031 64.167969 51.5625 64.488281 51.832031 C 64.8125 52.101562 65.292969 52.050781 65.554688 51.722656 C 66.074219 51.101562 66.546875 50.457031 66.980469 49.792969 C 67.320312 49.285156 66.941406 48.605469 66.328125 48.628906 Z M 63.355469 52.230469 C 63.164062 52.230469 62.976562 52.308594 62.839844 52.445312 C 62.277344 52.988281 61.679688 53.511719 61.046875 54.015625 C 60.410156 54.519531 59.742188 55 59.039062 55.457031 C 56.222656 57.289062 52.878906 58.75 49.175781 59.722656 C 48.769531 59.824219 48.527344 60.234375 48.632812 60.640625 C 48.738281 61.042969 49.152344 61.28125 49.554688 61.171875 C 53.402344 60.164062 56.894531 58.640625 59.855469 56.710938 C 60.597656 56.230469 61.304688 55.722656 61.976562 55.191406 C 62.648438 54.660156 63.285156 54.101562 63.882812 53.523438 C 64.378906 53.054688 64.042969 52.21875 63.355469 52.230469 Z M 23.445312 65.125 C 27.460938 66.210938 31.820312 66.804688 36.378906 66.804688 C 40.9375 66.804688 45.296875 66.210938 49.3125 65.125 L 49.3125 69.234375 C 45.324219 70.355469 40.957031 70.972656 36.378906 70.972656 C 31.800781 70.972656 27.433594 70.355469 23.445312 69.234375 Z M 23.445312 65.125" fill="inherit"/></g></svg>