<?xml version="1.0" encoding="UTF-8"?><svg xmlns="http://www.w3.org/2000/svg" xmlns:xlink="http://www.w3.org/1999/xlink" height="350.0" preserveAspectRatio="xMidYMid meet" version="1.0" viewBox="17.0 78.3 478.5 350.0" width="478.5" zoomAndPan="magnify"><g id="change1_1"><path d="M109.9,137c7.1,0,12.9-5.8,12.9-12.9c0-7.1-5.8-12.9-12.9-12.9c-7.1,0-12.9,5.8-12.9,12.9C97,131.2,102.8,137,109.9,137z M109.9,119.3c2.7,0,4.9,2.2,4.9,4.9c0,2.7-2.2,4.9-4.9,4.9c-2.7,0-4.9-2.2-4.9-4.9C105,121.5,107.2,119.3,109.9,119.3z" fill="inherit"/><path d="M108.3,227.6h11.4c3.1,0,5.9-1.4,7.8-3.8c1.9-2.4,2.6-5.5,1.8-8.5l-5.9-23.8c-1.1-4.3-4.9-7.3-9.4-7.3s-8.3,3-9.4,7.3 l-5.9,23.8c-0.7,3-0.1,6.1,1.8,8.5S105.3,227.6,108.3,227.6z M106.5,217.2l5.9-23.8c0.2-0.7,0.9-1.3,1.6-1.3c0.8,0,1.4,0.5,1.6,1.3 l5.9,23.8c0.2,0.8-0.1,1.4-0.4,1.7c-0.2,0.3-0.7,0.7-1.5,0.7h-11.4c-0.8,0-1.3-0.5-1.5-0.7S106.3,218,106.5,217.2z" fill="inherit"/><path d="M140.4,330.2l5.7-15.9c24.9-69.8,25.8-147,2.3-217.3c-2.4-7.3-8-13.1-15.2-15.9c-7.2-2.8-15.2-2.1-22,1.7 c-26,14.8-45.9,38.5-56.1,66.6c-2.1,5.7-3.8,11.5-5.3,17.4C31.2,168.8,17,184.3,17,203.4v40.1c0,31.3,22.8,57.9,53.4,63l8.4,23.6 l-13.4,53.6c-2.8,11.1,3.1,22.7,13.8,26.9c9.8,3.9,20.1,5.9,30.4,5.9c10.3,0,20.6-2,30.4-5.9c10.6-4.2,16.5-15.8,13.8-26.9 L140.4,330.2z M62.6,152c9.6-26.3,28.2-48.5,52.6-62.4c4.6-2.6,10.1-3.1,15.1-1.2c5,1.9,8.8,5.9,10.5,11 c5.7,17.2,10,34.9,12.8,52.7l-6.9,2.7c-17.3,6.9-37,4.9-52.5-5.5c-1.8-1.2-4.3-0.7-5.5,1.1c-1.2,1.8-0.7,4.3,1.1,5.5 c10.8,7.2,23.3,10.9,35.9,10.9c8.1,0,16.3-1.5,24-4.6l5.1-2c6.5,50.7,1.1,102.8-16.2,151.2l-5.2,14.4H85.8l-23.6-66 C49.8,225.1,49.9,186.8,62.6,152z M25,243.6v-40.1c0-14,9.7-25.6,23-28.3c-5.5,29.1-3.3,59.4,6.8,87.5l12.5,35.1 C42.8,291.6,25,269.4,25,243.6z M137,403.3c-17.7,7.1-37.2,7.1-54.9,0c-6.9-2.8-10.8-10.3-9-17.6L86.2,334h9.5L88,364.5 c-0.5,2.1,0.8,4.3,2.9,4.9c0.3,0.1,0.7,0.1,1,0.1c1.8,0,3.4-1.2,3.9-3l8.1-32.4h1.7v40.3c0,2.2,1.8,4,4,4s4-1.8,4-4V334h1.7 l8.1,32.4c0.5,1.8,2.1,3,3.9,3c0.3,0,0.6,0,1-0.1c2.1-0.5,3.4-2.7,2.9-4.9l-7.6-30.5h9.5l12.9,51.8C147.8,393,144,400.5,137,403.3z" fill="inherit"/><path d="M317.8,351.5h-0.3c-8.4,0-15.7-5.4-18.1-13.5l-14.4-48.1c4.5-3.2,5.5-10.8,5.5-10.8c6.4-32.2,5.8-65-1.8-96.5 c7.3-2,13.4-7,16.7-14.2c4-8.6,3-18.3-2.5-26l-37.3-52.2c-4.9-6.9-12.6-10.9-21.1-10.9c0,0,0,0,0,0c-8.5,0-16.2,4-21.1,10.9 L186,142.4c-5.4,7.6-6.4,17.2-2.6,25.6c3.2,7.1,9,12.2,16.2,14.3c-7.8,31.8-8.6,65-2.1,97.7c0.8,4.2,3.1,7.9,6.2,10.6L189.5,338 c-2.4,7.9-9.8,13.5-18.1,13.5h-0.5c-2.7,0-5,1.7-5.8,4.2c-0.8,2.5,0,5.3,2.1,6.9l0.2,0.2c0.1,0,0.1,0.1,0.2,0.1 c7.4,5.6,16.8,7.4,25.7,5c8.9-2.4,16.2-8.6,19.8-17.1c0.1-0.3,0.2-0.6,0.4-0.8l-0.8,7.2c-2.6,23.5-14.2,44.5-32.7,59.3 c-1.6,1.3-2.5,3.1-2.5,5.1c0,2.1,1,4.1,2.7,5.4c1.1,0.9,2.5,1.3,3.9,1.3c0.6,0,1.2-0.1,1.9-0.3c13.8-3.9,26.2-11.6,35.8-22.3 c9.6-10.6,16.1-23.7,18.6-37.8l4-21.8l4,21.8c5.3,29,26.1,52,54.4,60.1c0.6,0.2,1.3,0.3,1.9,0.3c2.8,0,5.2-1.8,6.2-4.4 c0.9-2.7,0.1-5.5-2.1-7.3c-9.1-7.3-16.6-16.1-22.2-26.4c-5.6-10.2-9.1-21.3-10.4-32.9l-0.8-7.1l0.4,0.8 c3.6,8.5,10.9,14.8,19.8,17.1c8.9,2.4,18.3,0.6,25.7-5l0.2-0.2c2.1-1.6,3-4.4,2.2-6.9C322.8,353.2,320.5,351.5,317.8,351.5z M190.7,164.8c-2.6-5.9-1.9-12.5,1.8-17.7l37.3-52.2c3.4-4.8,8.8-7.5,14.6-7.5c5.9,0,11.2,2.7,14.6,7.5l37.3,52.2 c3.8,5.3,4.4,12,1.7,18c-2.3,4.9-6.4,8.4-11.4,9.8c-2.6-9.4-5.8-18.6-9.7-27.6l-17.7-41.9c-2.5-6-8.4-9.8-14.9-9.8 c-6.4,0-12.2,3.8-14.8,9.7l-17.9,41.3c-4,9.2-7.4,18.6-10.1,28.2C196.8,173.1,192.8,169.6,190.7,164.8z M219,149.6l17.9-41.3 c1.3-3,4.2-4.9,7.5-4.9c3.3,0,6.2,1.9,7.5,5l17.7,41.9c17.1,40.3,21.6,84.3,13,127.2c0,0-3.3,9.7-11.2,10h-55.1 c-5.3,0-9.9-3.8-11-9C196.6,234.9,201.4,190.4,219,149.6z M297.6,360.1c-6.6-1.8-11.9-6.3-14.5-12.6l-11-25.6 c-0.8-1.8-2.8-2.8-4.7-2.3c-1.9,0.5-3.2,2.3-3,4.3l3.8,34c1.4,12.6,5.2,24.7,11.4,35.9c5,9,11.3,17.1,18.7,24 c-21.9-8.7-37.8-27.9-42.1-51.6l-7.9-43.4c-0.3-1.9-2-3.3-3.9-3.3c-1.9,0-3.6,1.4-3.9,3.3l-7.9,43.5c-2.3,12.6-8.1,24.4-16.7,33.9 c-7,7.8-15.7,13.8-25.3,17.6c16.9-15.7,27.5-36.7,30.1-59.9l3.8-34c0.2-2-1-3.8-3-4.3c-1.9-0.5-3.9,0.5-4.7,2.3 c0,0-5.3,12.5-11,25.6c-2.7,6.2-8,10.8-14.5,12.6c-4.9,1.3-10.1,0.9-14.6-1.1c9.6-1.9,17.6-9.1,20.5-18.7l13.7-45.6 c1.8,0.5,3.6,0.8,5.5,0.8h55.1c2.3,0,4.4-0.4,6.5-1.1l13.8,46c2.9,9.7,10.8,16.8,20.5,18.7C307.6,361,302.5,361.4,297.6,360.1z" fill="inherit"/><path d="M442.9,214.3l14.3-7.2c11.6-5.8,18.7-17.4,18.7-30.3v-26c9.4-1.9,16.8-9.6,18-19.4c1.6-13.2-2.5-26.5-11.2-36.4 C474,85,461.3,79.3,448,79.3c-1.6,0-3.1,1-3.7,2.5s-0.3,3.2,0.9,4.4l6.2,6.2c4.7,4.7,5.8,11.7,2.9,17.6c-0.4,0.8-1.3,1.4-2.2,1.4 s-1.8-0.5-2.2-1.4l-14.2-28.4c-0.9-1.7-2.9-2.6-4.7-2c-1.9,0.6-3.1,2.4-2.8,4.3l6,47.6c1.2,9.8,8.6,17.5,18,19.4v26.6 c0,4.6-2.5,8.7-6.6,10.7l-8.9,4.5c-0.5-0.7-0.9-1.3-1.4-1.9l-2.4-3c2.1-2.2,3.4-5.1,3.4-8.3c0-6.6-5.4-12-12-12 c-2.3,0-4.4,0.7-6.3,1.8l-1.6-2c-0.5-0.6-1-1.1-1.5-1.6l13.1-32.6c0.8-2.1-0.2-4.4-2.2-5.2c-2-0.8-4.4,0.2-5.2,2.2l-12.4,31 c-2.5-1-5.2-1.6-7.9-1.6c-2.7,0-5.4,0.5-7.9,1.6l-12.4-31c-0.8-2.1-3.1-3-5.2-2.2c-2.1,0.8-3,3.1-2.2,5.2l13.1,32.6 c-0.5,0.5-1,1.1-1.5,1.6l-1.6,2c-1.8-1.1-4-1.8-6.3-1.8c-6.6,0-12,5.4-12,12c0,3.2,1.3,6.2,3.4,8.3l-2.4,3c-0.5,0.6-1,1.3-1.4,1.9 l-8.9-4.5c-4.1-2-6.6-6.1-6.6-10.7v-26.6c9.4-1.9,16.8-9.6,18-19.4l6-47.6c0.2-1.9-0.9-3.8-2.8-4.3c-1.9-0.6-3.9,0.3-4.7,2 l-14.2,28.4c-0.4,0.8-1.3,1.4-2.2,1.4s-1.8-0.5-2.2-1.4c-2.9-5.9-1.8-13,2.9-17.6l6.2-6.2c1.1-1.1,1.5-2.9,0.9-4.4 s-2.1-2.5-3.7-2.5c-13.3,0-26,5.7-34.8,15.7c-8.8,10-12.9,23.2-11.2,36.4c1.2,9.8,8.6,17.5,18,19.4v26c0,12.9,7.2,24.5,18.7,30.3 l14.3,7.2c0,0.8,0.1,1.5,0.1,2.3l1.8,19.8l-25.7-4.3l6.5-19.6c0.7-2.1-0.4-4.4-2.5-5.1c-2.1-0.7-4.4,0.4-5.1,2.5l-8,24 c-0.4,1.1-0.2,2.3,0.4,3.3c0.6,1,1.6,1.7,2.8,1.9l32.4,5.4l1.2,12.8l-38.2,5.5l-6.9-20.8c-0.7-2.1-3-3.2-5.1-2.5 c-2.1,0.7-3.2,3-2.5,5.1l8,24c0.6,1.7,2.1,2.7,3.8,2.7c0.2,0,41.6-5.9,41.6-5.9l1.2,13.1l-26.2,15.7l-13.8-13.8 c-1.6-1.6-4.1-1.6-5.7,0c-1.6,1.6-1.6,4.1,0,5.7l16,16c0.8,0.8,1.8,1.2,2.8,1.2c0.7,0,1.4-0.2,2.1-0.6l25.6-15.3l7.1,84.7 c0.1,0.8,0.2,1.6,0.4,2.4l-23.4,32.7c-2.2,3.1-2.5,7.2-0.8,10.6c1.8,3.4,5.2,5.5,9,5.5h16.7c8.4,0,16.2-3.3,22.1-9.2l5.2-5.2 l5.2,5.2c5.9,5.9,13.8,9.2,22.1,9.2H444c3.8,0,7.3-2.1,9-5.5c1.8-3.4,1.5-7.5-0.8-10.6l-23.4-32.7c0.2-0.8,0.3-1.6,0.4-2.4 l7.1-84.7l25.6,15.3c0.6,0.4,1.3,0.6,2.1,0.6c1,0,2.1-0.4,2.8-1.2l16-16c1.6-1.6,1.6-4.1,0-5.7c-1.6-1.6-4.1-1.6-5.7,0l-13.8,13.8 l-26.2-15.7l1.2-13.1c0,0,41.4,5.9,41.6,5.9c1.7,0,3.2-1.1,3.8-2.7l8-24c0.7-2.1-0.4-4.4-2.5-5.1c-2.1-0.7-4.4,0.4-5.1,2.5 l-6.9,20.8l-38.2-5.5l1.2-12.8l32.4-5.4c1.2-0.2,2.2-0.9,2.8-1.9c0.6-1,0.7-2.2,0.4-3.3l-8-24c-0.7-2.1-3-3.2-5.1-2.5 c-2.1,0.7-3.2,3-2.5,5.1l6.5,19.6l-25.7,4.3l1.8-19.8C442.9,215.8,442.9,215.1,442.9,214.3z M378.3,367.3h43.3l-0.3,4.1 c-0.6,6.7-6.2,11.9-12.9,11.9h-16.7c-6.7,0-12.4-5.2-12.9-11.9L378.3,367.3z M422.3,359.3h-44.6l-1.3-16h47.3L422.3,359.3z M424.3,335.3h-48.6l-1.3-16h51.3L424.3,335.3z M373.7,311.3l-1.3-16h55.3l-1.3,16H373.7z M441.9,130.4l-3.1-24.5l3.8,7.5 c1.8,3.6,5.4,5.8,9.4,5.8s7.6-2.2,9.4-5.8c4-8.1,3-17.6-2.4-24.6c6.8,2,13,5.9,17.8,11.4c7.3,8.2,10.7,19.2,9.3,30.2 c-0.9,7.3-7.2,12.9-14.6,12.9h-15C449.1,143.3,442.8,137.8,441.9,130.4z M449,195.3c6.8-3.4,11-10.2,11-17.8v-26.1h8v25.5 c0,9.9-5.5,18.8-14.3,23.2l-11.5,5.8c-0.4-2.1-1.1-4.1-1.9-6.1L449,195.3z M424,175.3c2.2,0,4,1.8,4,4s-1.8,4-4,4s-4-1.8-4-4 S421.8,175.3,424,175.3z M405.5,168.5c0.7,0.3,1.4,0.7,2,1.2c0.9,0.6,1.7,1.4,2.4,2.3l2.8,3.4c-0.4,1.2-0.6,2.5-0.6,3.8 c0,6.6,5.4,12,12,12c0.4,0,0.8,0,1.2-0.1l3.5,4.4c4.6,5.7,6.7,12.9,6.1,20.2l-6.5,71.4h-56.7l-6.5-71.4c-0.7-7.3,1.5-14.5,6.1-20.2 l3.5-4.4c0.4,0,0.8,0.1,1.2,0.1c6.6,0,12-5.4,12-12c0-1.3-0.2-2.6-0.6-3.8l2.8-3.4c0.7-0.9,1.5-1.6,2.3-2.3 c2.2-1.6,4.8-2.5,7.5-2.5C401.9,167.3,403.8,167.7,405.5,168.5z M376,175.3c2.2,0,4,1.8,4,4s-1.8,4-4,4s-4-1.8-4-4 S373.8,175.3,376,175.3z M313.9,130.4c-1.4-10.9,2-21.9,9.3-30.2c4.8-5.4,11-9.3,17.8-11.4c-5.4,7-6.4,16.5-2.4,24.6 c1.8,3.6,5.4,5.8,9.4,5.8s7.6-2.2,9.4-5.8l3.8-7.5l-3.1,24.5c-0.9,7.3-7.2,12.9-14.6,12.9h-15C321.1,143.3,314.8,137.8,313.9,130.4 z M332,176.8v-25.5h8v26.1c0,7.6,4.2,14.5,11,17.8l8.7,4.3c-0.8,2-1.4,4-1.9,6.1l-11.5-5.8C337.5,195.6,332,186.7,332,176.8z M445.8,411.9c0.7,1,0.3,1.9,0.2,2.3c-0.2,0.4-0.7,1.2-1.9,1.2h-16.7c-6.2,0-12.1-2.4-16.5-6.8l-8-8c-1.6-1.6-4.1-1.6-5.7,0l-8,8 c-4.4,4.4-10.3,6.8-16.5,6.8H356c-1.2,0-1.7-0.8-1.9-1.2c-0.2-0.4-0.5-1.3,0.2-2.3l20.7-28.9c3.9,5.1,10,8.4,16.7,8.4h16.7 c6.8,0,12.9-3.3,16.7-8.4L445.8,411.9z" fill="inherit"/></g></svg>