<?xml version="1.0" encoding="UTF-8"?><svg xmlns="http://www.w3.org/2000/svg" xmlns:xlink="http://www.w3.org/1999/xlink" height="1082.8" preserveAspectRatio="xMidYMid meet" version="1.0" viewBox="0.0 0.0 500.0 1082.8" width="500.0" zoomAndPan="magnify"><defs><clipPath id="a"><path d="M 0 272 L 500 272 L 500 1082.789062 L 0 1082.789062 Z M 0 272"/></clipPath></defs><g><g id="change1_1"><path d="M 493.351562 595.234375 C 487.875 470.816406 411.179688 459.078125 363.453125 387.085938 C 337.160156 347.4375 341.140625 296.183594 339.820312 272.972656 C 338.851562 272.792969 337.859375 272.671875 336.84375 272.671875 L 297.21875 272.671875 C 302.390625 324.925781 325.902344 432.617188 357.714844 465.335938 C 418.988281 528.371094 470.941406 559.835938 475.617188 648.964844 C 479.972656 732.074219 498.898438 903.730469 456.828125 979.710938 C 447.796875 996.046875 418.988281 980.609375 403.621094 991.183594 C 392.046875 999.152344 363.136719 1059.554688 360.734375 1067.5 C 402.398438 1065.074219 434.414062 1062.152344 444.835938 1060.042969 C 475.320312 1053.882812 478.027344 1049.132812 482.386719 1019.355469 C 488.777344 975.84375 495.535156 644.890625 493.351562 595.234375 Z M 136.53125 463.253906 C 178.703125 404.328125 195.949219 342.386719 198.835938 272.671875 L 157.253906 272.671875 C 157.285156 308.511719 150.496094 355.621094 134.960938 380.832031 C 96.917969 442.554688 15.230469 472.382812 12.886719 588.972656 C 11.890625 638.5625 8.78125 889.773438 20.71875 1006.839844 C 23.9375 1038.472656 45.625 1051.5625 52.011719 1055.351562 C 65.742188 1063.503906 98.722656 1068.089844 140.089844 1070.316406 C 140.023438 1068.898438 143.828125 1018.316406 113.566406 1002.664062 C 89.335938 990.128906 52.6875 988.90625 38.355469 959.574219 C 28.289062 938.976562 22.730469 786.753906 20.71875 739.738281 C 17.582031 666.710938 28.132812 588.140625 55.140625 552.980469 C 78.828125 522.148438 114.03125 494.679688 136.53125 463.253906" fill="#928382"/></g><g id="change2_1"><path d="M 156.355469 266.402344 L 336.84375 266.402344 C 346.601562 266.402344 354.589844 276.167969 354.589844 266.402344 L 354.589844 17.75 C 354.589844 7.988281 346.601562 0 336.84375 0 L 156.355469 0 C 146.597656 0 138.613281 7.988281 138.613281 17.75 L 138.613281 266.402344 C 138.613281 276.167969 146.597656 266.402344 156.355469 266.402344 Z M 79.308594 935.6875 C 80.132812 936.164062 81.320312 936.691406 82.652344 937.179688 L 78.554688 932.84375 C 78.808594 933.816406 79.058594 934.785156 79.308594 935.6875 Z M 238.496094 626.5625 C 234.320312 624.761719 230.714844 623.199219 227.871094 621.808594 C 225.273438 620.539062 223.660156 617.851562 223.761719 614.957031 C 223.863281 612.0625 225.660156 609.5 228.34375 608.410156 C 231.117188 607.28125 234.945312 606.238281 239.789062 604.921875 C 251.703125 601.671875 271.632812 596.242188 276.246094 587.675781 C 277.28125 585.757812 277.382812 583.796875 276.578125 581.324219 C 273.566406 572.109375 236.214844 570.945312 222.152344 570.511719 C 219.417969 570.421875 216.894531 570.34375 214.574219 570.246094 C 217.761719 596.863281 215.402344 630.96875 213.464844 658.796875 C 213.179688 662.886719 212.914062 666.800781 212.671875 670.507812 C 229.492188 671.203125 267.839844 663.277344 275.984375 655.757812 C 277.820312 654.074219 278.648438 652.648438 278.460938 651.527344 C 277.046875 643.226562 250.027344 631.550781 238.496094 626.5625 Z M 458.917969 669.496094 C 446.398438 581.148438 401.015625 477.859375 252.335938 478.894531 C 78.609375 480.101562 36.359375 606.191406 32.03125 669.496094 C 23.546875 793.316406 35.582031 903.527344 48.382812 947.082031 C 54.234375 967.019531 82.164062 971.320312 86.445312 971.625 C 163.128906 977.101562 324.609375 982.765625 418.226562 971.625 C 425.554688 970.753906 452.84375 965.003906 456.691406 946.261719 C 470.097656 880.925781 464.925781 711.851562 458.917969 669.496094 Z M 436.925781 938.625 L 436.027344 943.457031 L 431.734375 945.84375 C 427.699219 948.097656 420.679688 950.316406 415.765625 950.90625 C 380.871094 955.058594 333.589844 957.164062 275.246094 957.164062 C 202.890625 957.164062 131.207031 953.894531 88.246094 950.828125 L 87.757812 950.792969 C 83.234375 950.230469 76.25 948.136719 72.117188 945.339844 L 68.949219 943.199219 L 67.914062 939.515625 C 57.105469 900.984375 44.164062 797.664062 52.847656 670.921875 C 54.789062 642.558594 73.542969 501.011719 252.480469 499.761719 L 254.515625 499.753906 C 307.585938 499.753906 349.957031 514.351562 380.445312 543.144531 C 410.703125 571.714844 430.152344 615.203125 438.261719 672.421875 C 443.949219 712.550781 448.980469 873.28125 436.925781 938.625 Z M 254.550781 511.757812 L 252.558594 511.765625 C 84.214844 512.941406 66.636719 645.234375 64.816406 671.742188 C 58.382812 765.644531 63.890625 846.242188 71.507812 896.601562 C 81.917969 879.5625 94.417969 852.921875 100.097656 845.328125 C 115.691406 824.46875 144.015625 806.917969 167.292969 795.859375 C 193.824219 783.238281 227.003906 784.601562 255.8125 784.601562 C 269.609375 784.601562 283.917969 783.527344 297.683594 784.566406 C 314.863281 785.863281 325.335938 794.117188 340.453125 801.507812 C 360.546875 811.324219 379.355469 815.324219 393.511719 830.097656 L 393.515625 830.097656 C 393.871094 830.472656 394.222656 830.863281 394.574219 831.253906 C 395.277344 832.023438 395.96875 832.8125 396.648438 833.636719 C 396.855469 833.898438 397.0625 834.167969 397.273438 834.433594 C 398.105469 835.484375 398.925781 836.574219 399.71875 837.730469 C 400.0625 838.246094 400.445312 838.769531 400.820312 839.296875 C 400.816406 839.296875 400.816406 839.296875 400.816406 839.296875 C 409.179688 851.121094 422.84375 866.492188 424.527344 880.390625 C 425.355469 887.207031 427.445312 894.785156 429.324219 902.417969 C 435.492188 827.871094 431.164062 707.84375 426.378906 674.105469 C 410.894531 564.859375 354.695312 511.757812 254.550781 511.757812 Z M 177.90625 713.722656 C 168.558594 721.285156 125.714844 729.777344 106.371094 729.777344 C 104.007812 729.777344 101.992188 729.648438 100.4375 729.378906 C 97.871094 728.933594 95.835938 727.277344 94.769531 725.109375 C 92.132812 724.195312 90.0625 721.90625 89.589844 718.957031 C 85.195312 691.371094 82.65625 637.914062 93.675781 603.683594 C 94.59375 600.847656 96.988281 598.921875 99.730469 598.417969 C 101.511719 596.835938 103.964844 596.058594 106.460938 596.570312 C 109.109375 597.105469 111.800781 597.636719 114.523438 598.171875 C 147.421875 604.613281 188.363281 612.640625 184.101562 646.769531 C 181.929688 664.113281 171.019531 669.925781 158.191406 672.105469 C 172.609375 678.015625 184.921875 684.894531 186.664062 695.574219 C 187.382812 700.03125 186.460938 706.796875 177.90625 713.722656 Z M 285.945312 666.558594 C 274.363281 677.238281 236.054688 685.21875 214.871094 685.21875 C 211.878906 685.21875 209.238281 685.066406 207.054688 684.730469 C 205.351562 684.472656 203.902344 683.628906 202.8125 682.460938 C 199.679688 681.476562 197.476562 678.476562 197.679688 675.046875 C 197.980469 669.785156 198.386719 663.96875 198.816406 657.773438 C 200.859375 628.460938 203.386719 591.976562 199.207031 566.296875 C 198.675781 563.015625 200.421875 559.917969 203.265625 558.535156 C 204.695312 556.402344 207.175781 555.0625 209.90625 555.285156 C 213.210938 555.53125 217.5625 555.671875 222.605469 555.832031 C 250.101562 556.6875 284.328125 557.753906 290.542969 576.765625 C 292.582031 583.019531 292.117188 589.210938 289.175781 594.648438 C 282.894531 606.304688 266.832031 612.410156 252.421875 616.636719 C 273.800781 626.226562 290.671875 635.761719 292.933594 649.066406 C 293.679688 653.421875 293.070312 659.992188 285.945312 666.558594 Z M 401.03125 704.9375 C 396.542969 709.089844 391.308594 712.46875 385.636719 715.011719 C 388.265625 721.207031 390.695312 727.363281 392.78125 733.578125 C 394.15625 737.675781 391.949219 742.113281 387.847656 743.488281 C 387.027344 743.761719 386.183594 743.894531 385.363281 743.894531 C 382.09375 743.894531 379.039062 741.832031 377.945312 738.558594 C 375.84375 732.296875 373.332031 725.992188 370.578125 719.597656 C 367.003906 720.214844 363.363281 720.539062 359.707031 720.539062 C 355.863281 720.539062 352 720.191406 348.1875 719.476562 C 318.199219 713.839844 302.371094 691.148438 305.855469 658.777344 C 308.507812 634.121094 327.492188 617.753906 345.121094 612.457031 C 355.210938 609.425781 364.367188 610.167969 370.730469 614.335938 C 371.011719 614.382812 371.296875 614.445312 371.574219 614.523438 C 402.878906 623.359375 414.097656 652.46875 415.652344 666.628906 C 417.242188 681.113281 412.046875 694.71875 401.03125 704.9375 Z M 370.769531 630.710938 C 367.953125 631.378906 364.871094 630.46875 362.902344 628.085938 C 362.003906 626.992188 359.871094 626.265625 356.902344 626.265625 C 354.84375 626.265625 352.371094 626.621094 349.617188 627.441406 C 337.359375 631.132812 323.289062 643.027344 321.410156 660.453125 C 319.917969 674.386719 321.773438 698.582031 351.074219 704.09375 C 355.285156 704.882812 359.613281 705.050781 363.878906 704.671875 C 362.8125 702.359375 361.734375 700.042969 360.644531 697.695312 C 357.09375 690.074219 353.429688 682.195312 350.003906 674.226562 C 348.296875 670.257812 350.128906 665.660156 354.097656 663.953125 C 358.085938 662.246094 362.671875 664.078125 364.382812 668.050781 C 367.710938 675.800781 371.328125 683.570312 374.839844 691.09375 C 376.34375 694.328125 377.824219 697.519531 379.28125 700.6875 C 383.410156 698.835938 387.199219 696.410156 390.390625 693.453125 C 395.554688 688.671875 401.421875 680.433594 400.09375 668.335938 C 399.210938 660.28125 392.203125 638.667969 370.769531 630.710938 Z M 378.296875 545.417969 C 348.40625 517.195312 306.761719 502.886719 254.519531 502.886719 L 252.503906 502.894531 C 76.324219 504.121094 57.875 643.257812 55.96875 671.140625 C 47.3125 797.484375 60.171875 900.351562 70.925781 938.671875 L 71.652344 941.246094 L 73.875 942.753906 C 77.421875 945.144531 84.011719 947.171875 88.09375 947.675781 L 88.503906 947.714844 C 131.382812 950.765625 202.96875 954.035156 275.246094 954.035156 C 333.46875 954.035156 380.625 951.933594 415.398438 947.796875 C 419.96875 947.25 426.472656 945.195312 430.210938 943.109375 L 433.21875 941.4375 L 433.84375 938.050781 C 445.851562 872.992188 440.828125 712.851562 435.164062 672.863281 C 427.15625 616.367188 408.027344 573.488281 378.296875 545.417969 Z M 428.195312 937.011719 L 428.0625 937.738281 L 427.414062 938.097656 C 424.339844 939.808594 418.523438 941.640625 414.71875 942.09375 C 380.167969 946.203125 333.246094 948.292969 275.246094 948.292969 C 203.144531 948.292969 131.695312 945.03125 88.878906 941.984375 C 85.007812 941.507812 79.539062 939.648438 77.089844 937.992188 L 76.613281 937.671875 L 76.464844 937.117188 C 65.808594 899.175781 53.089844 797.144531 61.695312 671.523438 C 63.546875 644.535156 81.425781 509.828125 252.542969 508.632812 L 254.542969 508.621094 C 356.519531 508.621094 413.742188 562.609375 429.476562 673.664062 C 435.109375 713.40625 440.117188 872.457031 428.195312 937.011719 Z M 139.660156 681.734375 C 131.617188 678.730469 124.679688 676.136719 120.175781 673.378906 C 117.320312 671.621094 115.902344 668.242188 116.632812 664.976562 C 117.378906 661.710938 120.113281 659.273438 123.449219 658.921875 C 129.03125 658.335938 134.394531 658.125 139.59375 657.925781 C 161.546875 657.078125 167.238281 655.449219 168.566406 644.832031 C 170.847656 626.601562 146.355469 620.355469 111.511719 613.527344 C 110.105469 613.253906 108.730469 612.972656 107.335938 612.695312 C 98.972656 643.3125 101.074219 689.441406 104.691406 714.136719 C 117.972656 715.085938 161.65625 706.597656 168.0625 701.5625 C 170.921875 699.242188 171.214844 697.984375 171.21875 697.976562 C 170.078125 693.105469 148.765625 685.136719 139.660156 681.734375" fill="#dd9b5e"/></g><g id="change3_1"><path d="M 156.355469 272.671875 L 336.84375 272.671875 C 337.859375 272.671875 338.851562 272.792969 339.820312 272.972656 C 346.808594 274.257812 352.429688 279.257812 354.078125 275.746094 C 354.398438 275.0625 354.589844 274.09375 354.589844 272.671875 L 354.589844 266.402344 C 354.589844 276.167969 346.601562 266.402344 336.84375 266.402344 L 156.355469 266.402344 C 146.597656 266.402344 138.613281 276.167969 138.613281 266.402344 L 138.613281 272.671875 C 138.613281 282.425781 146.597656 272.671875 156.355469 272.671875 Z M 287.789062 857.113281 C 304.398438 845.011719 327.902344 836.554688 348.296875 833.59375 C 362.273438 831.558594 378.691406 829.574219 393.511719 830.097656 C 379.355469 815.324219 360.546875 811.324219 340.453125 801.507812 C 325.335938 794.117188 314.863281 785.863281 297.683594 784.566406 C 283.917969 783.527344 269.609375 784.601562 255.8125 784.601562 C 227.003906 784.601562 193.824219 783.238281 167.292969 795.859375 C 144.015625 806.917969 115.691406 824.46875 100.097656 845.328125 C 94.417969 852.921875 81.917969 879.5625 71.507812 896.601562 C 71.097656 897.277344 70.6875 897.9375 70.28125 898.582031 C 72.242188 911.386719 74.328125 922.128906 76.371094 930.527344 L 78.554688 932.84375 L 82.652344 937.179688 L 84.882812 939.539062 C 85.339844 939.644531 85.796875 939.75 86.253906 939.855469 C 86.234375 939.851562 86.214844 939.847656 86.199219 939.84375 C 90.09375 925.398438 105.449219 907.742188 112.820312 898.601562 C 127.789062 880.054688 140.386719 859.921875 155.65625 841.402344 C 168.605469 825.699219 180.878906 811.605469 197.980469 800.320312 C 207.664062 793.945312 227.644531 784.207031 239.304688 785.058594 C 222.671875 795.300781 214.363281 802.5625 197.5625 813.554688 C 181.777344 823.886719 163.558594 841.71875 154.5 857.636719 C 143.617188 876.757812 128.695312 892.578125 116.46875 910.820312 C 111.320312 918.503906 105.695312 927.308594 101.316406 935.417969 C 100.457031 937.007812 99.824219 938.988281 99.265625 941.121094 C 112.570312 941.984375 127.984375 942.847656 144.890625 943.625 C 145.660156 942.851562 146.433594 942.0625 147.171875 941.207031 C 158.070312 928.546875 168.410156 915.089844 179.097656 902.226562 C 198.558594 878.785156 212.699219 849.933594 234.988281 829.019531 C 257.4375 807.929688 284.65625 787.675781 315.96875 790.234375 C 311.671875 795.847656 294.78125 800.023438 287.613281 804.402344 C 278.953125 809.679688 267.988281 813.445312 260.453125 819.792969 C 245.320312 832.554688 232.292969 845.078125 220.027344 860.796875 C 206.96875 877.515625 192.484375 891.964844 181.363281 910.769531 C 175.65625 920.410156 170.914062 930.46875 163.945312 939.277344 C 162.550781 941.039062 161.125 942.683594 159.691406 944.269531 C 174.917969 944.894531 191.109375 945.441406 207.863281 945.855469 C 214.332031 936.257812 221.574219 927.078125 227.398438 920.082031 C 245.886719 897.890625 264.261719 874.257812 287.789062 857.113281 Z M 429.324219 902.417969 C 427.445312 894.785156 425.355469 887.207031 424.527344 880.390625 C 422.84375 866.492188 409.179688 851.121094 400.816406 839.296875 C 396.394531 839.035156 388.746094 834.855469 383.015625 835.464844 C 370.484375 836.800781 354.785156 839.292969 342.324219 841.726562 C 319.296875 846.21875 295.101562 858.859375 277.15625 874.101562 C 262.117188 886.867188 249.996094 907.445312 239.820312 924.382812 C 234.664062 932.964844 228.304688 938.808594 221.664062 946.167969 C 239.1875 946.519531 257.191406 946.726562 275.246094 946.726562 C 275.628906 946.726562 275.996094 946.722656 276.378906 946.722656 C 280.84375 941.90625 285.410156 937.320312 290.03125 933.148438 C 306.730469 918.074219 317.023438 903.960938 337.335938 893.53125 C 364.21875 879.734375 390.738281 868.519531 421.351562 869.960938 C 421.632812 870.5625 421.898438 871.167969 422.144531 871.769531 C 416.679688 877.664062 413.003906 877.128906 404.027344 877.71875 C 394.367188 878.363281 384.652344 880.628906 375.34375 883.980469 C 358.546875 890.019531 338.3125 895.9375 322.789062 905.699219 C 308.269531 914.828125 300.886719 927.960938 289.703125 940.886719 C 287.992188 942.871094 286.300781 944.796875 284.628906 946.703125 C 338.257812 946.488281 381.933594 944.421875 414.53125 940.539062 C 418.019531 940.125 423.691406 938.386719 426.65625 936.730469 C 428.191406 928.421875 429.4375 918.382812 430.445312 907.152344 C 430.089844 905.574219 429.714844 903.996094 429.324219 902.417969" fill="#a53021"/></g><g clip-path="url(#a)" id="change4_1"><path d="M 498.824219 583.496094 C 493.351562 459.078125 426.835938 453.316406 379.101562 381.328125 C 350.089844 337.574219 357.253906 292.816406 354.078125 275.746094 C 352.429688 279.257812 346.808594 274.257812 339.820312 272.972656 C 341.140625 296.183594 337.160156 347.4375 363.453125 387.085938 C 411.179688 459.078125 487.875 470.816406 493.351562 595.234375 C 495.535156 644.890625 488.777344 975.84375 482.386719 1019.355469 C 478.027344 1049.132812 475.320312 1053.882812 444.835938 1060.042969 C 434.414062 1062.152344 402.398438 1065.074219 360.734375 1067.5 C 363.136719 1059.554688 392.046875 999.152344 403.621094 991.183594 C 418.988281 980.609375 447.796875 996.046875 456.828125 979.710938 C 498.898438 903.730469 479.972656 732.074219 475.617188 648.964844 C 470.941406 559.835938 418.988281 528.371094 357.714844 465.335938 C 325.902344 432.617188 302.390625 324.925781 297.21875 272.671875 L 198.835938 272.671875 C 195.949219 342.386719 178.703125 404.328125 136.53125 463.253906 C 114.03125 494.679688 78.828125 522.148438 55.140625 552.980469 C 28.132812 588.140625 17.582031 666.710938 20.71875 739.738281 C 22.730469 786.753906 28.289062 938.976562 38.355469 959.574219 C 52.6875 988.90625 89.335938 990.128906 113.566406 1002.664062 C 143.828125 1018.316406 140.023438 1068.898438 140.089844 1070.316406 C 98.722656 1068.089844 65.742188 1063.503906 52.011719 1055.351562 C 45.625 1051.5625 23.9375 1038.472656 20.71875 1006.839844 C 8.78125 889.773438 11.890625 638.5625 12.886719 588.972656 C 15.230469 472.382812 96.917969 442.554688 134.960938 380.832031 C 150.496094 355.621094 157.285156 308.511719 157.253906 272.671875 L 156.355469 272.671875 C 146.597656 272.671875 138.613281 282.425781 138.613281 272.671875 L 138.613281 272.640625 C 138.28125 272.660156 138.085938 272.671875 138.085938 272.671875 C 140.195312 309.195312 131.367188 352.691406 113.726562 381.328125 C 75.6875 443.046875 3.492188 466.902344 1.148438 583.496094 C 0.144531 633.082031 -3.054688 898.4375 8.886719 1015.496094 C 12.109375 1047.128906 35.460938 1062.910156 41.84375 1066.695312 C 91.914062 1096.433594 415.09375 1077.261719 451.875 1069.828125 C 482.367188 1063.664062 489.765625 1048.40625 494.132812 1018.625 C 500.515625 975.105469 501.011719 633.15625 498.824219 583.496094 Z M 86.445312 971.625 C 82.164062 971.320312 54.234375 967.019531 48.382812 947.082031 C 35.582031 903.527344 23.546875 793.316406 32.03125 669.496094 C 36.359375 606.191406 78.609375 480.101562 252.335938 478.894531 C 401.015625 477.859375 446.398438 581.148438 458.917969 669.496094 C 464.925781 711.851562 470.097656 880.925781 456.691406 946.261719 C 452.84375 965.003906 425.554688 970.753906 418.226562 971.625 C 324.609375 982.765625 163.128906 977.101562 86.445312 971.625 Z M 429.476562 673.664062 C 413.742188 562.609375 356.519531 508.621094 254.542969 508.621094 L 252.542969 508.632812 C 81.425781 509.828125 63.546875 644.535156 61.695312 671.523438 C 53.089844 797.144531 65.808594 899.175781 76.464844 937.117188 L 76.613281 937.671875 L 77.089844 937.992188 C 79.539062 939.648438 85.007812 941.507812 88.878906 941.984375 C 131.695312 945.03125 203.144531 948.292969 275.246094 948.292969 C 333.246094 948.292969 380.167969 946.203125 414.71875 942.09375 C 418.523438 941.640625 424.339844 939.808594 427.414062 938.097656 L 428.0625 937.738281 L 428.195312 937.011719 C 440.117188 872.457031 435.109375 713.40625 429.476562 673.664062 Z M 426.65625 936.730469 C 423.691406 938.386719 418.019531 940.125 414.53125 940.539062 C 381.933594 944.421875 338.257812 946.488281 284.628906 946.703125 C 286.300781 944.796875 287.992188 942.871094 289.703125 940.886719 C 300.886719 927.960938 308.269531 914.828125 322.789062 905.699219 C 338.3125 895.9375 358.546875 890.019531 375.34375 883.980469 C 384.652344 880.628906 394.367188 878.363281 404.027344 877.71875 C 413.003906 877.128906 416.679688 877.664062 422.144531 871.769531 C 421.898438 871.167969 421.632812 870.5625 421.351562 869.960938 C 390.738281 868.519531 364.21875 879.734375 337.335938 893.53125 C 317.023438 903.960938 306.730469 918.074219 290.03125 933.148438 C 285.410156 937.320312 280.84375 941.90625 276.378906 946.722656 C 275.996094 946.722656 275.628906 946.726562 275.246094 946.726562 C 257.191406 946.726562 239.1875 946.519531 221.664062 946.167969 C 228.304688 938.808594 234.664062 932.964844 239.820312 924.382812 C 249.996094 907.445312 262.117188 886.867188 277.15625 874.101562 C 295.101562 858.859375 319.296875 846.21875 342.324219 841.726562 C 354.785156 839.292969 370.484375 836.800781 383.015625 835.464844 C 388.746094 834.855469 396.394531 839.035156 400.816406 839.296875 C 400.816406 839.296875 400.816406 839.296875 400.820312 839.296875 C 400.445312 838.769531 400.0625 838.246094 399.71875 837.730469 C 398.925781 836.574219 398.105469 835.484375 397.273438 834.433594 C 397.0625 834.167969 396.859375 833.898438 396.648438 833.636719 C 395.96875 832.8125 395.277344 832.023438 394.574219 831.253906 C 394.222656 830.863281 393.871094 830.472656 393.515625 830.097656 L 393.511719 830.097656 C 378.691406 829.574219 362.273438 831.558594 348.296875 833.59375 C 327.902344 836.554688 304.398438 845.011719 287.789062 857.113281 C 264.261719 874.257812 245.886719 897.890625 227.398438 920.082031 C 221.574219 927.078125 214.332031 936.257812 207.863281 945.855469 C 191.109375 945.441406 174.917969 944.894531 159.691406 944.269531 C 161.125 942.683594 162.550781 941.039062 163.945312 939.277344 C 170.914062 930.46875 175.65625 920.410156 181.363281 910.769531 C 192.484375 891.964844 206.96875 877.515625 220.027344 860.796875 C 232.292969 845.078125 245.320312 832.554688 260.453125 819.792969 C 267.988281 813.445312 278.953125 809.679688 287.613281 804.402344 C 294.78125 800.023438 311.671875 795.847656 315.96875 790.234375 C 284.65625 787.675781 257.4375 807.929688 234.988281 829.019531 C 212.699219 849.933594 198.558594 878.785156 179.097656 902.226562 C 168.410156 915.089844 158.070312 928.546875 147.171875 941.207031 C 146.433594 942.0625 145.660156 942.851562 144.890625 943.625 C 127.984375 942.847656 112.570312 941.984375 99.265625 941.121094 C 99.824219 938.988281 100.457031 937.007812 101.316406 935.417969 C 105.695312 927.308594 111.320312 918.503906 116.46875 910.820312 C 128.695312 892.578125 143.617188 876.757812 154.5 857.636719 C 163.558594 841.71875 181.777344 823.886719 197.5625 813.554688 C 214.363281 802.5625 222.671875 795.300781 239.304688 785.058594 C 227.644531 784.207031 207.664062 793.945312 197.980469 800.320312 C 180.878906 811.605469 168.605469 825.699219 155.65625 841.402344 C 140.386719 859.921875 127.789062 880.054688 112.820312 898.601562 C 105.449219 907.742188 90.09375 925.398438 86.199219 939.84375 C 86.214844 939.847656 86.234375 939.851562 86.253906 939.855469 C 85.796875 939.75 85.339844 939.644531 84.882812 939.539062 L 82.652344 937.179688 C 81.320312 936.691406 80.132812 936.164062 79.308594 935.6875 C 79.058594 934.785156 78.808594 933.816406 78.554688 932.84375 L 76.371094 930.527344 C 74.328125 922.128906 72.242188 911.386719 70.28125 898.582031 C 70.6875 897.9375 71.097656 897.277344 71.507812 896.601562 C 63.890625 846.242188 58.382812 765.644531 64.816406 671.742188 C 66.636719 645.234375 84.214844 512.941406 252.558594 511.765625 L 254.550781 511.757812 C 354.695312 511.757812 410.894531 564.859375 426.378906 674.105469 C 431.164062 707.84375 435.492188 827.871094 429.324219 902.417969 C 429.714844 903.996094 430.089844 905.574219 430.445312 907.152344 C 429.4375 918.382812 428.191406 928.421875 426.65625 936.730469 Z M 436.027344 943.457031 L 436.925781 938.625 C 448.980469 873.28125 443.949219 712.550781 438.261719 672.421875 C 430.152344 615.203125 410.703125 571.714844 380.445312 543.144531 C 349.957031 514.351562 307.585938 499.753906 254.515625 499.753906 L 252.480469 499.761719 C 73.542969 501.011719 54.789062 642.558594 52.847656 670.921875 C 44.164062 797.664062 57.105469 900.984375 67.914062 939.515625 L 68.949219 943.199219 L 72.117188 945.339844 C 76.25 948.136719 83.234375 950.230469 87.757812 950.792969 L 88.246094 950.828125 C 131.207031 953.894531 202.890625 957.164062 275.246094 957.164062 C 333.589844 957.164062 380.871094 955.058594 415.765625 950.90625 C 420.679688 950.316406 427.699219 948.097656 431.734375 945.84375 Z M 415.398438 947.796875 C 380.625 951.933594 333.46875 954.035156 275.246094 954.035156 C 202.96875 954.035156 131.382812 950.765625 88.503906 947.714844 L 88.09375 947.675781 C 84.011719 947.171875 77.421875 945.144531 73.875 942.753906 L 71.652344 941.246094 L 70.925781 938.671875 C 60.171875 900.351562 47.3125 797.484375 55.96875 671.140625 C 57.875 643.257812 76.324219 504.121094 252.503906 502.894531 L 254.519531 502.886719 C 306.761719 502.886719 348.40625 517.195312 378.296875 545.417969 C 408.027344 573.488281 427.15625 616.367188 435.164062 672.863281 C 440.828125 712.851562 445.851562 872.992188 433.84375 938.050781 L 433.21875 941.4375 L 430.210938 943.109375 C 426.472656 945.195312 419.96875 947.25 415.398438 947.796875" fill="#48291f"/></g><g id="change5_1"><path d="M 158.191406 672.105469 C 171.019531 669.925781 181.929688 664.113281 184.101562 646.769531 C 188.363281 612.640625 147.421875 604.613281 114.523438 598.171875 C 111.800781 597.636719 109.109375 597.105469 106.460938 596.570312 C 103.964844 596.058594 101.511719 596.835938 99.730469 598.417969 C 96.988281 598.921875 94.59375 600.847656 93.675781 603.683594 C 82.65625 637.914062 85.195312 691.371094 89.589844 718.957031 C 90.0625 721.90625 92.132812 724.195312 94.769531 725.109375 C 95.835938 727.277344 97.871094 728.933594 100.4375 729.378906 C 101.992188 729.648438 104.007812 729.777344 106.371094 729.777344 C 125.714844 729.777344 168.558594 721.285156 177.90625 713.722656 C 186.460938 706.796875 187.382812 700.03125 186.664062 695.574219 C 184.921875 684.894531 172.609375 678.015625 158.191406 672.105469 Z M 168.0625 701.5625 C 161.65625 706.597656 117.972656 715.085938 104.691406 714.136719 C 101.074219 689.441406 98.972656 643.3125 107.335938 612.695312 C 108.730469 612.972656 110.105469 613.253906 111.511719 613.527344 C 146.355469 620.355469 170.847656 626.601562 168.566406 644.832031 C 167.238281 655.449219 161.546875 657.078125 139.59375 657.925781 C 134.394531 658.125 129.03125 658.335938 123.449219 658.921875 C 120.113281 659.273438 117.378906 661.710938 116.632812 664.976562 C 115.902344 668.242188 117.320312 671.621094 120.175781 673.378906 C 124.679688 676.136719 131.617188 678.730469 139.660156 681.734375 C 148.765625 685.136719 170.078125 693.105469 171.21875 697.976562 C 171.214844 697.984375 170.921875 699.242188 168.0625 701.5625 Z M 252.421875 616.636719 C 266.832031 612.410156 282.894531 606.304688 289.175781 594.648438 C 292.117188 589.210938 292.582031 583.019531 290.542969 576.765625 C 284.328125 557.753906 250.101562 556.6875 222.605469 555.832031 C 217.5625 555.671875 213.210938 555.53125 209.90625 555.285156 C 207.175781 555.0625 204.695312 556.402344 203.265625 558.535156 C 200.421875 559.917969 198.675781 563.015625 199.207031 566.296875 C 203.386719 591.976562 200.859375 628.460938 198.816406 657.773438 C 198.386719 663.96875 197.980469 669.785156 197.679688 675.046875 C 197.476562 678.476562 199.679688 681.476562 202.8125 682.460938 C 203.902344 683.628906 205.351562 684.472656 207.054688 684.730469 C 209.238281 685.066406 211.878906 685.21875 214.871094 685.21875 C 236.054688 685.21875 274.363281 677.238281 285.945312 666.558594 C 293.070312 659.992188 293.679688 653.421875 292.933594 649.066406 C 290.671875 635.761719 273.800781 626.226562 252.421875 616.636719 Z M 275.984375 655.757812 C 267.839844 663.277344 229.492188 671.203125 212.671875 670.507812 C 212.914062 666.800781 213.179688 662.886719 213.464844 658.796875 C 215.402344 630.96875 217.761719 596.863281 214.574219 570.246094 C 216.894531 570.34375 219.417969 570.421875 222.152344 570.511719 C 236.214844 570.945312 273.566406 572.109375 276.578125 581.324219 C 277.382812 583.796875 277.28125 585.757812 276.246094 587.675781 C 271.632812 596.242188 251.703125 601.671875 239.789062 604.921875 C 234.945312 606.238281 231.117188 607.28125 228.34375 608.410156 C 225.660156 609.5 223.863281 612.0625 223.761719 614.957031 C 223.660156 617.851562 225.273438 620.539062 227.871094 621.808594 C 230.714844 623.199219 234.320312 624.761719 238.496094 626.5625 C 250.027344 631.550781 277.046875 643.226562 278.460938 651.527344 C 278.648438 652.648438 277.820312 654.074219 275.984375 655.757812 Z M 415.652344 666.628906 C 414.097656 652.46875 402.878906 623.359375 371.574219 614.523438 C 371.296875 614.445312 371.011719 614.382812 370.730469 614.335938 C 364.367188 610.167969 355.210938 609.425781 345.121094 612.457031 C 327.492188 617.753906 308.507812 634.121094 305.855469 658.777344 C 302.371094 691.148438 318.199219 713.839844 348.1875 719.476562 C 352 720.191406 355.863281 720.539062 359.707031 720.539062 C 363.363281 720.539062 367.003906 720.214844 370.578125 719.597656 C 373.332031 725.992188 375.84375 732.296875 377.945312 738.558594 C 379.039062 741.832031 382.09375 743.894531 385.363281 743.894531 C 386.183594 743.894531 387.027344 743.761719 387.847656 743.488281 C 391.949219 742.113281 394.15625 737.675781 392.78125 733.578125 C 390.695312 727.363281 388.265625 721.207031 385.636719 715.011719 C 391.308594 712.46875 396.542969 709.089844 401.03125 704.9375 C 412.046875 694.71875 417.242188 681.113281 415.652344 666.628906 Z M 390.390625 693.453125 C 387.199219 696.410156 383.410156 698.835938 379.28125 700.6875 C 377.824219 697.519531 376.34375 694.328125 374.839844 691.09375 C 371.328125 683.570312 367.710938 675.800781 364.382812 668.050781 C 362.671875 664.078125 358.085938 662.246094 354.097656 663.953125 C 350.128906 665.660156 348.296875 670.257812 350.003906 674.226562 C 353.429688 682.195312 357.09375 690.074219 360.644531 697.695312 C 361.734375 700.042969 362.8125 702.359375 363.878906 704.671875 C 359.613281 705.050781 355.285156 704.882812 351.074219 704.09375 C 321.773438 698.582031 319.917969 674.386719 321.410156 660.453125 C 323.289062 643.027344 337.359375 631.132812 349.617188 627.441406 C 352.371094 626.621094 354.84375 626.265625 356.902344 626.265625 C 359.871094 626.265625 362.003906 626.992188 362.902344 628.085938 C 364.871094 630.46875 367.953125 631.378906 370.769531 630.710938 C 392.203125 638.667969 399.210938 660.28125 400.09375 668.335938 C 401.421875 680.433594 395.554688 688.671875 390.390625 693.453125" fill="#fff"/></g></g></svg>